<ttFont>
    <TTGlyph name="ampersand" xMin="109" yMin="-20" xMax="1405" yMax="1485">
      <contour>
        <pt x="422" y="1165" on="1"/>
        <pt x="422" y="1131" on="0"/>
        <pt x="438" y="1066" on="0"/>
        <pt x="471" y="1001" on="0"/>
        <pt x="523" y="934" on="0"/>
        <pt x="559" y="897" on="1"/>
        <pt x="618" y="932" on="0"/>
        <pt x="704" y="994" on="0"/>
        <pt x="760" y="1058" on="0"/>
        <pt x="788" y="1128" on="0"/>
        <pt x="788" y="1169" on="1"/>
        <pt x="788" y="1205" on="0"/>
        <pt x="763" y="1266" on="0"/>
        <pt x="716" y="1310" on="0"/>
        <pt x="650" y="1335" on="0"/>
        <pt x="608" y="1335" on="1"/>
        <pt x="522" y="1335" on="0"/>
        <pt x="422" y="1246" on="0"/>
      </contour>
      <contour>
        <pt x="557" y="141" on="1"/>
        <pt x="615" y="141" on="0"/>
        <pt x="713" y="164" on="0"/>
        <pt x="797" y="204" on="0"/>
        <pt x="869" y="258" on="0"/>
        <pt x="901" y="289" on="1"/>
        <pt x="514" y="696" on="1"/>
        <pt x="462" y="663" on="0"/>
        <pt x="382" y="600" on="0"/>
        <pt x="327" y="528" on="0"/>
        <pt x="299" y="443" on="0"/>
        <pt x="299" y="387" on="1"/>
        <pt x="299" y="333" on="0"/>
        <pt x="334" y="242" on="0"/>
        <pt x="400" y="177" on="0"/>
        <pt x="496" y="141" on="0"/>
      </contour>
      <contour>
        <pt x="109" y="381" on="1"/>
        <pt x="109" y="459" on="0"/>
        <pt x="149" y="581" on="0"/>
        <pt x="226" y="681" on="0"/>
        <pt x="337" y="767" on="0"/>
        <pt x="408" y="809" on="1"/>
        <pt x="377" y="845" on="0"/>
        <pt x="317" y="922" on="0"/>
        <pt x="272" y="1009" on="0"/>
        <pt x="244" y="1108" on="0"/>
        <pt x="244" y="1165" on="1"/>
        <pt x="244" y="1240" on="0"/>
        <pt x="294" y="1359" on="0"/>
        <pt x="388" y="1442" on="0"/>
        <pt x="526" y="1485" on="0"/>
        <pt x="614" y="1485" on="1"/>
        <pt x="697" y="1485" on="0"/>
        <pt x="828" y="1442" on="0"/>
        <pt x="919" y="1359" on="0"/>
        <pt x="967" y="1240" on="0"/>
        <pt x="967" y="1165" on="1"/>
        <pt x="967" y="1101" on="0"/>
        <pt x="917" y="992" on="0"/>
        <pt x="833" y="899" on="0"/>
        <pt x="724" y="820" on="0"/>
        <pt x="664" y="784" on="1"/>
        <pt x="1016" y="412" on="1"/>
        <pt x="1043" y="441" on="0"/>
        <pt x="1086" y="501" on="0"/>
        <pt x="1120" y="569" on="0"/>
        <pt x="1147" y="647" on="0"/>
        <pt x="1157" y="694" on="1"/>
        <pt x="1341" y="694" on="1"/>
        <pt x="1326" y="628" on="0"/>
        <pt x="1285" y="517" on="0"/>
        <pt x="1232" y="419" on="0"/>
        <pt x="1167" y="334" on="0"/>
        <pt x="1128" y="293" on="1"/>
        <pt x="1405" y="0" on="1"/>
        <pt x="1180" y="0" on="1"/>
        <pt x="1012" y="172" on="1"/>
        <pt x="963" y="127" on="0"/>
        <pt x="867" y="56" on="0"/>
        <pt x="759" y="7" on="0"/>
        <pt x="635" y="-20" on="0"/>
        <pt x="557" y="-20" on="1"/>
        <pt x="452" y="-20" on="0"/>
        <pt x="285" y="33" on="0"/>
        <pt x="170" y="136" on="0"/>
        <pt x="109" y="285" on="0"/>
      </contour>
    </TTGlyph>
    <TTGlyph name="asciitilde" xMin="102" yMin="586" xMax="1026" yMax="858">
      <contour>
        <pt x="530" y="651" on="1"/>
        <pt x="493" y="667" on="0"/>
        <pt x="438" y="689" on="0"/>
        <pt x="393" y="702" on="0"/>
        <pt x="352" y="707" on="0"/>
        <pt x="330" y="707" on="1"/>
        <pt x="302" y="707" on="0"/>
        <pt x="242" y="688" on="0"/>
        <pt x="183" y="655" on="0"/>
        <pt x="127" y="611" on="0"/>
        <pt x="102" y="586" on="1"/>
        <pt x="102" y="748" on="1"/>
        <pt x="202" y="856" on="0"/>
        <pt x="350" y="856" on="1"/>
        <pt x="379" y="856" on="0"/>
        <pt x="429" y="851" on="0"/>
        <pt x="484" y="838" on="0"/>
        <pt x="551" y="813" on="0"/>
        <pt x="598" y="793" on="1"/>
        <pt x="635" y="777" on="0"/>
        <pt x="690" y="755" on="0"/>
        <pt x="737" y="742" on="0"/>
        <pt x="777" y="737" on="0"/>
        <pt x="799" y="737" on="1"/>
        <pt x="827" y="737" on="0"/>
        <pt x="887" y="756" on="0"/>
        <pt x="946" y="789" on="0"/>
        <pt x="1002" y="833" on="0"/>
        <pt x="1026" y="858" on="1"/>
        <pt x="1026" y="696" on="1"/>
        <pt x="927" y="588" on="0"/>
        <pt x="778" y="588" on="1"/>
        <pt x="749" y="588" on="0"/>
        <pt x="699" y="593" on="0"/>
        <pt x="644" y="606" on="0"/>
        <pt x="577" y="631" on="0"/>
      </contour>
    </TTGlyph>
    <TTGlyph name="asterisk" xMin="82" yMin="631" xMax="1044" yMax="1556">
      <contour>
        <pt x="664" y="1556" on="1"/>
        <pt x="621" y="1163" on="1"/>
        <pt x="1018" y="1274" on="1"/>
        <pt x="1044" y="1081" on="1"/>
        <pt x="666" y="1053" on="1"/>
        <pt x="911" y="727" on="1"/>
        <pt x="733" y="631" on="1"/>
        <pt x="557" y="989" on="1"/>
        <pt x="399" y="631" on="1"/>
        <pt x="215" y="727" on="1"/>
        <pt x="457" y="1053" on="1"/>
        <pt x="82" y="1081" on="1"/>
        <pt x="111" y="1274" on="1"/>
        <pt x="502" y="1163" on="1"/>
        <pt x="459" y="1556" on="1"/>
      </contour>
    </TTGlyph>
    <TTGlyph name="at" xMin="109" yMin="-182" xMax="1665" yMax="1462">
      <contour>
        <pt x="1665" y="731" on="1"/>
        <pt x="1665" y="669" on="0"/>
        <pt x="1646" y="544" on="0"/>
        <pt x="1609" y="431" on="0"/>
        <pt x="1552" y="334" on="0"/>
        <pt x="1476" y="262" on="0"/>
        <pt x="1379" y="221" on="0"/>
        <pt x="1321" y="221" on="1"/>
        <pt x="1276" y="221" on="0"/>
        <pt x="1203" y="251" on="0"/>
        <pt x="1151" y="301" on="0"/>
        <pt x="1118" y="366" on="0"/>
        <pt x="1112" y="401" on="1"/>
        <pt x="1108" y="401" on="1"/>
        <pt x="1090" y="364" on="0"/>
        <pt x="1036" y="298" on="0"/>
        <pt x="965" y="249" on="0"/>
        <pt x="876" y="221" on="0"/>
        <pt x="823" y="221" on="1"/>
        <pt x="746" y="221" on="0"/>
        <pt x="627" y="277" on="0"/>
        <pt x="545" y="378" on="0"/>
        <pt x="502" y="520" on="0"/>
        <pt x="502" y="606" on="1"/>
        <pt x="502" y="707" on="0"/>
        <pt x="561" y="875" on="0"/>
        <pt x="672" y="997" on="0"/>
        <pt x="830" y="1065" on="0"/>
        <pt x="928" y="1065" on="1"/>
        <pt x="973" y="1065" on="0"/>
        <pt x="1063" y="1057" on="0"/>
        <pt x="1145" y="1043" on="0"/>
        <pt x="1214" y="1026" on="0"/>
        <pt x="1237" y="1018" on="1"/>
        <pt x="1214" y="602" on="1"/>
        <pt x="1213" y="580" on="0"/>
        <pt x="1212" y="553" on="0"/>
        <pt x="1212" y="537" on="0"/>
        <pt x="1212" y="529" on="0"/>
        <pt x="1212" y="526" on="1"/>
        <pt x="1212" y="473" on="0"/>
        <pt x="1233" y="405" on="0"/>
        <pt x="1267" y="365" on="0"/>
        <pt x="1310" y="350" on="0"/>
        <pt x="1333" y="350" on="1"/>
        <pt x="1379" y="350" on="0"/>
        <pt x="1449" y="411" on="0"/>
        <pt x="1496" y="515" on="0"/>
        <pt x="1520" y="655" on="0"/>
        <pt x="1520" y="733" on="1"/>
        <pt x="1520" y="875" on="0"/>
        <pt x="1434" y="1096" on="0"/>
        <pt x="1282" y="1248" on="0"/>
        <pt x="1073" y="1327" on="0"/>
        <pt x="950" y="1327" on="1"/>
        <pt x="781" y="1327" on="0"/>
        <pt x="523" y="1216" on="0"/>
        <pt x="348" y="1017" on="0"/>
        <pt x="258" y="744" on="0"/>
        <pt x="258" y="582" on="1"/>
        <pt x="258" y="431" on="0"/>
        <pt x="337" y="197" on="0"/>
        <pt x="490" y="37" on="0"/>
        <pt x="717" y="-45" on="0"/>
        <pt x="864" y="-45" on="1"/>
        <pt x="925" y="-45" on="0"/>
        <pt x="1044" y="-31" on="0"/>
        <pt x="1155" y="-7" on="0"/>
        <pt x="1255" y="24" on="0"/>
        <pt x="1298" y="41" on="1"/>
        <pt x="1298" y="-100" on="1"/>
        <pt x="1212" y="-138" on="0"/>
        <pt x="996" y="-182" on="0"/>
        <pt x="866" y="-182" on="1"/>
        <pt x="687" y="-182" on="0"/>
        <pt x="406" y="-80" on="0"/>
        <pt x="211" y="115" on="0"/>
        <pt x="109" y="396" on="0"/>
        <pt x="109" y="575" on="1"/>
        <pt x="109" y="763" on="0"/>
        <pt x="227" y="1088" on="0"/>
        <pt x="446" y="1326" on="0"/>
        <pt x="757" y="1462" on="0"/>
        <pt x="950" y="1462" on="1"/>
        <pt x="1106" y="1462" on="0"/>
        <pt x="1368" y="1361" on="0"/>
        <pt x="1559" y="1172" on="0"/>
        <pt x="1665" y="901" on="0"/>
      </contour>
      <contour>
        <pt x="662" y="602" on="1"/>
        <pt x="662" y="469" on="0"/>
        <pt x="763" y="350" on="0"/>
        <pt x="848" y="350" on="1"/>
        <pt x="903" y="350" on="0"/>
        <pt x="981" y="395" on="0"/>
        <pt x="1031" y="478" on="0"/>
        <pt x="1057" y="593" on="0"/>
        <pt x="1061" y="662" on="1"/>
        <pt x="1075" y="915" on="1"/>
        <pt x="1047" y="923" on="0"/>
        <pt x="970" y="936" on="0"/>
        <pt x="928" y="936" on="1"/>
        <pt x="854" y="936" on="0"/>
        <pt x="753" y="878" on="0"/>
        <pt x="690" y="784" on="0"/>
        <pt x="662" y="664" on="0"/>
      </contour>
    </TTGlyph>
    <TTGlyph name="bar" xMin="489" yMin="-492" xMax="639" yMax="1556">
      <contour>
        <pt x="489" y="1556" on="1"/>
        <pt x="639" y="1556" on="1"/>
        <pt x="639" y="-492" on="1"/>
        <pt x="489" y="-492" on="1"/>
      </contour>
    </TTGlyph>
    <TTGlyph name="braceleft" xMin="61" yMin="-324" xMax="674" yMax="1462">
      <contour>
        <pt x="500" y="-16" on="1"/>
        <pt x="500" y="-64" on="0"/>
        <pt x="524" y="-125" on="0"/>
        <pt x="569" y="-160" on="0"/>
        <pt x="634" y="-173" on="0"/>
        <pt x="674" y="-174" on="1"/>
        <pt x="674" y="-324" on="1"/>
        <pt x="597" y="-323" on="0"/>
        <pt x="466" y="-290" on="0"/>
        <pt x="371" y="-219" on="0"/>
        <pt x="317" y="-109" on="0"/>
        <pt x="317" y="-31" on="1"/>
        <pt x="317" y="303" on="1"/>
        <pt x="317" y="406" on="0"/>
        <pt x="186" y="492" on="0"/>
        <pt x="61" y="492" on="1"/>
        <pt x="61" y="647" on="1"/>
        <pt x="186" y="647" on="0"/>
        <pt x="317" y="733" on="0"/>
        <pt x="317" y="836" on="1"/>
        <pt x="317" y="1169" on="1"/>
        <pt x="317" y="1247" on="0"/>
        <pt x="371" y="1357" on="0"/>
        <pt x="466" y="1428" on="0"/>
        <pt x="597" y="1461" on="0"/>
        <pt x="674" y="1462" on="1"/>
        <pt x="674" y="1313" on="1"/>
        <pt x="634" y="1312" on="0"/>
        <pt x="569" y="1299" on="0"/>
        <pt x="524" y="1264" on="0"/>
        <pt x="500" y="1203" on="0"/>
        <pt x="500" y="1155" on="1"/>
        <pt x="500" y="823" on="1"/>
        <pt x="500" y="718" on="0"/>
        <pt x="381" y="595" on="0"/>
        <pt x="266" y="575" on="1"/>
        <pt x="266" y="563" on="1"/>
        <pt x="381" y="543" on="0"/>
        <pt x="500" y="421" on="0"/>
        <pt x="500" y="315" on="1"/>
      </contour>
    </TTGlyph>
    <TTGlyph name="braceright" xMin="51" yMin="-324" xMax="664" yMax="1462">
      <contour>
        <pt x="225" y="315" on="1"/>
        <pt x="225" y="421" on="0"/>
        <pt x="344" y="543" on="0"/>
        <pt x="459" y="563" on="1"/>
        <pt x="459" y="575" on="1"/>
        <pt x="344" y="595" on="0"/>
        <pt x="225" y="718" on="0"/>
        <pt x="225" y="823" on="1"/>
        <pt x="225" y="1155" on="1"/>
        <pt x="225" y="1203" on="0"/>
        <pt x="201" y="1264" on="0"/>
        <pt x="156" y="1299" on="0"/>
        <pt x="91" y="1312" on="0"/>
        <pt x="51" y="1313" on="1"/>
        <pt x="51" y="1462" on="1"/>
        <pt x="128" y="1461" on="0"/>
        <pt x="259" y="1428" on="0"/>
        <pt x="354" y="1357" on="0"/>
        <pt x="408" y="1247" on="0"/>
        <pt x="408" y="1169" on="1"/>
        <pt x="408" y="836" on="1"/>
        <pt x="408" y="784" on="0"/>
        <pt x="441" y="712" on="0"/>
        <pt x="506" y="667" on="0"/>
        <pt x="602" y="647" on="0"/>
        <pt x="664" y="647" on="1"/>
        <pt x="664" y="492" on="1"/>
        <pt x="539" y="492" on="0"/>
        <pt x="408" y="406" on="0"/>
        <pt x="408" y="303" on="1"/>
        <pt x="408" y="-31" on="1"/>
        <pt x="408" y="-109" on="0"/>
        <pt x="354" y="-219" on="0"/>
        <pt x="259" y="-290" on="0"/>
        <pt x="128" y="-323" on="0"/>
        <pt x="51" y="-324" on="1"/>
        <pt x="51" y="-174" on="1"/>
        <pt x="91" y="-173" on="0"/>
        <pt x="156" y="-160" on="0"/>
        <pt x="201" y="-125" on="0"/>
        <pt x="225" y="-64" on="0"/>
        <pt x="225" y="-16" on="1"/>
      </contour>
    </TTGlyph>
    <TTGlyph name="colon" xMin="147" yMin="-29" xMax="401" yMax="1126">
      <contour>
        <pt x="147" y="111" on="1"/>
        <pt x="147" y="149" on="0"/>
        <pt x="167" y="202" on="0"/>
        <pt x="201" y="235" on="0"/>
        <pt x="247" y="250" on="0"/>
        <pt x="274" y="250" on="1"/>
        <pt x="300" y="250" on="0"/>
        <pt x="347" y="235" on="0"/>
        <pt x="381" y="202" on="0"/>
        <pt x="401" y="149" on="0"/>
        <pt x="401" y="111" on="1"/>
        <pt x="401" y="74" on="0"/>
        <pt x="381" y="21" on="0"/>
        <pt x="347" y="-13" on="0"/>
        <pt x="300" y="-29" on="0"/>
        <pt x="274" y="-29" on="1"/>
        <pt x="247" y="-29" on="0"/>
        <pt x="201" y="-13" on="0"/>
        <pt x="167" y="21" on="0"/>
        <pt x="147" y="74" on="0"/>
      </contour>
      <contour>
        <pt x="147" y="987" on="1"/>
        <pt x="147" y="1026" on="0"/>
        <pt x="167" y="1079" on="0"/>
        <pt x="201" y="1112" on="0"/>
        <pt x="247" y="1126" on="0"/>
        <pt x="274" y="1126" on="1"/>
        <pt x="300" y="1126" on="0"/>
        <pt x="347" y="1112" on="0"/>
        <pt x="381" y="1079" on="0"/>
        <pt x="401" y="1026" on="0"/>
        <pt x="401" y="987" on="1"/>
        <pt x="401" y="950" on="0"/>
        <pt x="381" y="898" on="0"/>
        <pt x="347" y="864" on="0"/>
        <pt x="300" y="848" on="0"/>
        <pt x="274" y="848" on="1"/>
        <pt x="247" y="848" on="0"/>
        <pt x="201" y="864" on="0"/>
        <pt x="167" y="898" on="0"/>
        <pt x="147" y="950" on="0"/>
      </contour>
    </TTGlyph>
    <TTGlyph name="comma" xMin="63" yMin="-264" xMax="377" yMax="238">
      <contour>
        <pt x="362" y="238" on="1"/>
        <pt x="377" y="215" on="1"/>
        <pt x="363" y="161" on="0"/>
        <pt x="324" y="39" on="0"/>
        <pt x="277" y="-85" on="0"/>
        <pt x="226" y="-208" on="0"/>
        <pt x="201" y="-264" on="1"/>
        <pt x="63" y="-264" on="1"/>
        <pt x="78" y="-203" on="0"/>
        <pt x="107" y="-71" on="0"/>
        <pt x="134" y="60" on="0"/>
        <pt x="156" y="185" on="0"/>
        <pt x="164" y="238" on="1"/>
      </contour>
    </TTGlyph>
    <TTGlyph name="dollar" xMin="123" yMin="-119" xMax="985" yMax="1554">
      <contour>
        <pt x="985" y="446" on="1"/>
        <pt x="985" y="376" on="0"/>
        <pt x="935" y="262" on="0"/>
        <pt x="842" y="178" on="0"/>
        <pt x="709" y="123" on="0"/>
        <pt x="625" y="111" on="1"/>
        <pt x="625" y="-119" on="1"/>
        <pt x="487" y="-119" on="1"/>
        <pt x="487" y="102" on="1"/>
        <pt x="437" y="102" on="0"/>
        <pt x="335" y="111" on="0"/>
        <pt x="239" y="129" on="0"/>
        <pt x="155" y="155" on="0"/>
        <pt x="123" y="172" on="1"/>
        <pt x="123" y="344" on="1"/>
        <pt x="156" y="328" on="0"/>
        <pt x="243" y="295" on="0"/>
        <pt x="339" y="269" on="0"/>
        <pt x="440" y="252" on="0"/>
        <pt x="487" y="252" on="1"/>
        <pt x="487" y="686" on="1"/>
        <pt x="398" y="716" on="0"/>
        <pt x="267" y="782" on="0"/>
        <pt x="181" y="867" on="0"/>
        <pt x="139" y="977" on="0"/>
        <pt x="139" y="1051" on="1"/>
        <pt x="139" y="1118" on="0"/>
        <pt x="188" y="1229" on="0"/>
        <pt x="279" y="1312" on="0"/>
        <pt x="408" y="1365" on="0"/>
        <pt x="487" y="1374" on="1"/>
        <pt x="487" y="1554" on="1"/>
        <pt x="625" y="1554" on="1"/>
        <pt x="625" y="1378" on="1"/>
        <pt x="725" y="1373" on="0"/>
        <pt x="894" y="1331" on="0"/>
        <pt x="961" y="1300" on="1"/>
        <pt x="895" y="1155" on="1"/>
        <pt x="839" y="1180" on="0"/>
        <pt x="699" y="1221" on="0"/>
        <pt x="625" y="1227" on="1"/>
        <pt x="625" y="805" on="1"/>
        <pt x="713" y="774" on="0"/>
        <pt x="848" y="708" on="0"/>
        <pt x="939" y="625" on="0"/>
        <pt x="985" y="518" on="0"/>
      </contour>
      <contour>
        <pt x="809" y="446" on="1"/>
        <pt x="809" y="479" on="0"/>
        <pt x="789" y="534" on="0"/>
        <pt x="746" y="579" on="0"/>
        <pt x="676" y="617" on="0"/>
        <pt x="625" y="635" on="1"/>
        <pt x="625" y="262" on="1"/>
        <pt x="718" y="276" on="0"/>
        <pt x="809" y="374" on="0"/>
      </contour>
      <contour>
        <pt x="315" y="1049" on="1"/>
        <pt x="315" y="1013" on="0"/>
        <pt x="332" y="956" on="0"/>
        <pt x="372" y="909" on="0"/>
        <pt x="438" y="871" on="0"/>
        <pt x="487" y="854" on="1"/>
        <pt x="487" y="1223" on="1"/>
        <pt x="398" y="1207" on="0"/>
        <pt x="315" y="1118" on="0"/>
      </contour>
    </TTGlyph>
    <TTGlyph name="eight" xMin="106" yMin="-20" xMax="1024" yMax="1485">
      <contour>
        <pt x="565" y="1485" on="1"/>
        <pt x="649" y="1485" on="0"/>
        <pt x="798" y="1441" on="0"/>
        <pt x="911" y="1353" on="0"/>
        <pt x="977" y="1221" on="0"/>
        <pt x="977" y="1133" on="1"/>
        <pt x="977" y="1066" on="0"/>
        <pt x="937" y="958" on="0"/>
        <pt x="867" y="871" on="0"/>
        <pt x="771" y="802" on="0"/>
        <pt x="715" y="774" on="1"/>
        <pt x="773" y="743" on="0"/>
        <pt x="884" y="667" on="0"/>
        <pt x="971" y="572" on="0"/>
        <pt x="1024" y="454" on="0"/>
        <pt x="1024" y="381" on="1"/>
        <pt x="1024" y="289" on="0"/>
        <pt x="957" y="140" on="0"/>
        <pt x="836" y="36" on="0"/>
        <pt x="667" y="-20" on="0"/>
        <pt x="565" y="-20" on="1"/>
        <pt x="455" y="-20" on="0"/>
        <pt x="284" y="34" on="0"/>
        <pt x="167" y="135" on="0"/>
        <pt x="106" y="281" on="0"/>
        <pt x="106" y="373" on="1"/>
        <pt x="106" y="448" on="0"/>
        <pt x="151" y="568" on="0"/>
        <pt x="227" y="664" on="0"/>
        <pt x="331" y="738" on="0"/>
        <pt x="389" y="766" on="1"/>
        <pt x="340" y="797" on="0"/>
        <pt x="254" y="870" on="0"/>
        <pt x="191" y="960" on="0"/>
        <pt x="154" y="1069" on="0"/>
        <pt x="154" y="1135" on="1"/>
        <pt x="154" y="1222" on="0"/>
        <pt x="221" y="1353" on="0"/>
        <pt x="335" y="1441" on="0"/>
        <pt x="484" y="1485" on="0"/>
      </contour>
      <contour>
        <pt x="285" y="371" on="1"/>
        <pt x="285" y="318" on="0"/>
        <pt x="317" y="229" on="0"/>
        <pt x="385" y="166" on="0"/>
        <pt x="489" y="131" on="0"/>
        <pt x="561" y="131" on="1"/>
        <pt x="631" y="131" on="0"/>
        <pt x="738" y="166" on="0"/>
        <pt x="810" y="231" on="0"/>
        <pt x="846" y="323" on="0"/>
        <pt x="846" y="379" on="1"/>
        <pt x="846" y="431" on="0"/>
        <pt x="807" y="515" on="0"/>
        <pt x="734" y="587" on="0"/>
        <pt x="632" y="651" on="0"/>
        <pt x="569" y="682" on="1"/>
        <pt x="539" y="696" on="1"/>
        <pt x="413" y="636" on="0"/>
        <pt x="285" y="481" on="0"/>
      </contour>
      <contour>
        <pt x="563" y="1333" on="1"/>
        <pt x="457" y="1333" on="0"/>
        <pt x="332" y="1227" on="0"/>
        <pt x="332" y="1126" on="1"/>
        <pt x="332" y="1069" on="0"/>
        <pt x="367" y="987" on="0"/>
        <pt x="429" y="923" on="0"/>
        <pt x="516" y="872" on="0"/>
        <pt x="567" y="848" on="1"/>
        <pt x="615" y="870" on="0"/>
        <pt x="700" y="922" on="0"/>
        <pt x="763" y="988" on="0"/>
        <pt x="799" y="1072" on="0"/>
        <pt x="799" y="1126" on="1"/>
        <pt x="799" y="1227" on="0"/>
        <pt x="673" y="1333" on="0"/>
      </contour>
    </TTGlyph>
    <TTGlyph name="equal" xMin="102" yMin="442" xMax="1026" yMax="1001">
      <contour>
        <pt x="102" y="852" on="1"/>
        <pt x="102" y="1001" on="1"/>
        <pt x="1026" y="1001" on="1"/>
        <pt x="1026" y="852" on="1"/>
      </contour>
      <contour>
        <pt x="102" y="442" on="1"/>
        <pt x="102" y="592" on="1"/>
        <pt x="1026" y="592" on="1"/>
        <pt x="1026" y="442" on="1"/>
      </contour>
    </TTGlyph>
    <TTGlyph name="exclam" xMin="147" yMin="-29" xMax="401" yMax="1462">
      <contour>
        <pt x="336" y="414" on="1"/>
        <pt x="215" y="414" on="1"/>
        <pt x="164" y="1462" on="1"/>
        <pt x="387" y="1462" on="1"/>
      </contour>
      <contour>
        <pt x="147" y="111" on="1"/>
        <pt x="147" y="149" on="0"/>
        <pt x="167" y="202" on="0"/>
        <pt x="201" y="235" on="0"/>
        <pt x="247" y="250" on="0"/>
        <pt x="274" y="250" on="1"/>
        <pt x="300" y="250" on="0"/>
        <pt x="347" y="235" on="0"/>
        <pt x="381" y="202" on="0"/>
        <pt x="401" y="149" on="0"/>
        <pt x="401" y="111" on="1"/>
        <pt x="401" y="74" on="0"/>
        <pt x="381" y="21" on="0"/>
        <pt x="347" y="-13" on="0"/>
        <pt x="300" y="-29" on="0"/>
        <pt x="274" y="-29" on="1"/>
        <pt x="247" y="-29" on="0"/>
        <pt x="201" y="-13" on="0"/>
        <pt x="167" y="21" on="0"/>
        <pt x="147" y="74" on="0"/>
      </contour>
    </TTGlyph>
    <TTGlyph name="five" xMin="131" yMin="-20" xMax="1014" yMax="1462">
      <contour>
        <pt x="545" y="897" on="1"/>
        <pt x="644" y="897" on="0"/>
        <pt x="815" y="842" on="0"/>
        <pt x="942" y="734" on="0"/>
        <pt x="1014" y="574" on="0"/>
        <pt x="1014" y="469" on="1"/>
        <pt x="1014" y="355" on="0"/>
        <pt x="946" y="173" on="0"/>
        <pt x="812" y="47" on="0"/>
        <pt x="615" y="-20" on="0"/>
        <pt x="487" y="-20" on="1"/>
        <pt x="436" y="-20" on="0"/>
        <pt x="337" y="-10" on="0"/>
        <pt x="246" y="9" on="0"/>
        <pt x="164" y="39" on="0"/>
        <pt x="131" y="59" on="1"/>
        <pt x="131" y="231" on="1"/>
        <pt x="164" y="208" on="0"/>
        <pt x="253" y="172" on="0"/>
        <pt x="351" y="148" on="0"/>
        <pt x="450" y="135" on="0"/>
        <pt x="492" y="135" on="1"/>
        <pt x="571" y="135" on="0"/>
        <pt x="695" y="172" on="0"/>
        <pt x="781" y="250" on="0"/>
        <pt x="827" y="368" on="0"/>
        <pt x="827" y="449" on="1"/>
        <pt x="827" y="592" on="0"/>
        <pt x="651" y="743" on="0"/>
        <pt x="483" y="743" on="1"/>
        <pt x="456" y="743" on="0"/>
        <pt x="393" y="738" on="0"/>
        <pt x="330" y="730" on="0"/>
        <pt x="273" y="721" on="0"/>
        <pt x="252" y="717" on="1"/>
        <pt x="162" y="774" on="1"/>
        <pt x="217" y="1462" on="1"/>
        <pt x="907" y="1462" on="1"/>
        <pt x="907" y="1296" on="1"/>
        <pt x="375" y="1296" on="1"/>
        <pt x="336" y="877" on="1"/>
        <pt x="368" y="883" on="0"/>
        <pt x="473" y="897" on="0"/>
      </contour>
    </TTGlyph>
    <TTGlyph name="four" xMin="23" yMin="0" xMax="1087" yMax="1470">
      <contour>
        <pt x="1087" y="328" on="1"/>
        <pt x="874" y="328" on="1"/>
        <pt x="874" y="0" on="1"/>
        <pt x="698" y="0" on="1"/>
        <pt x="698" y="328" on="1"/>
        <pt x="23" y="328" on="1"/>
        <pt x="23" y="487" on="1"/>
        <pt x="686" y="1470" on="1"/>
        <pt x="874" y="1470" on="1"/>
        <pt x="874" y="494" on="1"/>
        <pt x="1087" y="494" on="1"/>
      </contour>
      <contour>
        <pt x="698" y="494" on="1"/>
        <pt x="698" y="850" on="1"/>
        <pt x="698" y="906" on="0"/>
        <pt x="701" y="1029" on="0"/>
        <pt x="705" y="1146" on="0"/>
        <pt x="710" y="1248" on="0"/>
        <pt x="711" y="1282" on="1"/>
        <pt x="702" y="1282" on="1"/>
        <pt x="695" y="1262" on="0"/>
        <pt x="674" y="1213" on="0"/>
        <pt x="649" y="1164" on="0"/>
        <pt x="623" y="1118" on="0"/>
        <pt x="612" y="1102" on="1"/>
        <pt x="201" y="494" on="1"/>
      </contour>
    </TTGlyph>
    <TTGlyph name="greater" xMin="102" yMin="238" xMax="1026" yMax="1245">
      <contour>
        <pt x="102" y="399" on="1"/>
        <pt x="838" y="721" on="1"/>
        <pt x="102" y="1085" on="1"/>
        <pt x="102" y="1245" on="1"/>
        <pt x="1026" y="764" on="1"/>
        <pt x="1026" y="662" on="1"/>
        <pt x="102" y="238" on="1"/>
      </contour>
    </TTGlyph>
    <TTGlyph name="guillemotleft" xMin="82" yMin="115" xMax="915" yMax="967">
      <contour>
        <pt x="82" y="553" on="1"/>
        <pt x="391" y="967" on="1"/>
        <pt x="508" y="889" on="1"/>
        <pt x="270" y="541" on="1"/>
        <pt x="508" y="193" on="1"/>
        <pt x="391" y="115" on="1"/>
        <pt x="82" y="526" on="1"/>
      </contour>
      <contour>
        <pt x="489" y="553" on="1"/>
        <pt x="799" y="967" on="1"/>
        <pt x="915" y="889" on="1"/>
        <pt x="678" y="541" on="1"/>
        <pt x="915" y="193" on="1"/>
        <pt x="799" y="115" on="1"/>
        <pt x="489" y="526" on="1"/>
      </contour>
    </TTGlyph>
    <TTGlyph name="guillemotright" xMin="84" yMin="115" xMax="918" yMax="967">
      <contour>
        <pt x="918" y="526" on="1"/>
        <pt x="608" y="115" on="1"/>
        <pt x="492" y="193" on="1"/>
        <pt x="729" y="541" on="1"/>
        <pt x="492" y="889" on="1"/>
        <pt x="608" y="967" on="1"/>
        <pt x="918" y="553" on="1"/>
      </contour>
      <contour>
        <pt x="510" y="526" on="1"/>
        <pt x="201" y="115" on="1"/>
        <pt x="84" y="193" on="1"/>
        <pt x="322" y="541" on="1"/>
        <pt x="84" y="889" on="1"/>
        <pt x="201" y="967" on="1"/>
        <pt x="510" y="553" on="1"/>
      </contour>
    </TTGlyph>
    <TTGlyph name="hyphen" xMin="82" yMin="465" xMax="578" yMax="633">
      <contour>
        <pt x="82" y="465" on="1"/>
        <pt x="82" y="633" on="1"/>
        <pt x="578" y="633" on="1"/>
        <pt x="578" y="465" on="1"/>
      </contour>
    </TTGlyph>
    <TTGlyph name="less" xMin="102" yMin="238" xMax="1026" yMax="1245">
      <contour>
        <pt x="1026" y="238" on="1"/>
        <pt x="102" y="662" on="1"/>
        <pt x="102" y="764" on="1"/>
        <pt x="1026" y="1245" on="1"/>
        <pt x="1026" y="1085" on="1"/>
        <pt x="291" y="721" on="1"/>
        <pt x="1026" y="399" on="1"/>
      </contour>
    </TTGlyph>
    <TTGlyph name="nine" xMin="106" yMin="-20" xMax="1028" yMax="1483">
      <contour>
        <pt x="1028" y="838" on="1"/>
        <pt x="1028" y="733" on="0"/>
        <pt x="1007" y="524" on="0"/>
        <pt x="954" y="334" on="0"/>
        <pt x="862" y="169" on="0"/>
        <pt x="720" y="49" on="0"/>
        <pt x="522" y="-20" on="0"/>
        <pt x="389" y="-20" on="1"/>
        <pt x="370" y="-20" on="0"/>
        <pt x="324" y="-18" on="0"/>
        <pt x="278" y="-13" on="0"/>
        <pt x="234" y="-7" on="0"/>
        <pt x="217" y="-2" on="1"/>
        <pt x="217" y="154" on="1"/>
        <pt x="252" y="141" on="0"/>
        <pt x="340" y="129" on="0"/>
        <pt x="383" y="129" on="1"/>
        <pt x="518" y="129" on="0"/>
        <pt x="692" y="223" on="0"/>
        <pt x="794" y="384" on="0"/>
        <pt x="837" y="598" on="0"/>
        <pt x="842" y="717" on="1"/>
        <pt x="829" y="717" on="1"/>
        <pt x="809" y="681" on="0"/>
        <pt x="753" y="619" on="0"/>
        <pt x="677" y="573" on="0"/>
        <pt x="581" y="547" on="0"/>
        <pt x="522" y="547" on="1"/>
        <pt x="427" y="547" on="0"/>
        <pt x="273" y="606" on="0"/>
        <pt x="165" y="720" on="0"/>
        <pt x="106" y="885" on="0"/>
        <pt x="106" y="991" on="1"/>
        <pt x="106" y="1105" on="0"/>
        <pt x="169" y="1288" on="0"/>
        <pt x="284" y="1415" on="0"/>
        <pt x="449" y="1483" on="0"/>
        <pt x="551" y="1483" on="1"/>
        <pt x="652" y="1483" on="0"/>
        <pt x="826" y="1405" on="0"/>
        <pt x="954" y="1245" on="0"/>
        <pt x="1028" y="1002" on="0"/>
      </contour>
      <contour>
        <pt x="553" y="1329" on="1"/>
        <pt x="493" y="1329" on="0"/>
        <pt x="394" y="1289" on="0"/>
        <pt x="322" y="1205" on="0"/>
        <pt x="283" y="1078" on="0"/>
        <pt x="283" y="991" on="1"/>
        <pt x="283" y="921" on="0"/>
        <pt x="316" y="810" on="0"/>
        <pt x="382" y="732" on="0"/>
        <pt x="481" y="690" on="0"/>
        <pt x="547" y="690" on="1"/>
        <pt x="615" y="690" on="0"/>
        <pt x="725" y="737" on="0"/>
        <pt x="803" y="812" on="0"/>
        <pt x="846" y="908" on="0"/>
        <pt x="846" y="956" on="1"/>
        <pt x="846" y="1023" on="0"/>
        <pt x="809" y="1156" on="0"/>
        <pt x="736" y="1263" on="0"/>
        <pt x="626" y="1329" on="0"/>
      </contour>
    </TTGlyph>
    <TTGlyph name="numbersign" xMin="51" yMin="0" xMax="1272" yMax="1462">
      <contour>
        <pt x="983" y="893" on="1"/>
        <pt x="920" y="565" on="1"/>
        <pt x="1200" y="565" on="1"/>
        <pt x="1200" y="428" on="1"/>
        <pt x="893" y="428" on="1"/>
        <pt x="811" y="0" on="1"/>
        <pt x="664" y="0" on="1"/>
        <pt x="748" y="428" on="1"/>
        <pt x="457" y="428" on="1"/>
        <pt x="375" y="0" on="1"/>
        <pt x="231" y="0" on="1"/>
        <pt x="309" y="428" on="1"/>
        <pt x="51" y="428" on="1"/>
        <pt x="51" y="565" on="1"/>
        <pt x="336" y="565" on="1"/>
        <pt x="401" y="893" on="1"/>
        <pt x="127" y="893" on="1"/>
        <pt x="127" y="1030" on="1"/>
        <pt x="426" y="1030" on="1"/>
        <pt x="508" y="1462" on="1"/>
        <pt x="655" y="1462" on="1"/>
        <pt x="573" y="1030" on="1"/>
        <pt x="866" y="1030" on="1"/>
        <pt x="950" y="1462" on="1"/>
        <pt x="1094" y="1462" on="1"/>
        <pt x="1010" y="1030" on="1"/>
        <pt x="1272" y="1030" on="1"/>
        <pt x="1272" y="893" on="1"/>
      </contour>
      <contour>
        <pt x="483" y="565" on="1"/>
        <pt x="774" y="565" on="1"/>
        <pt x="838" y="893" on="1"/>
        <pt x="547" y="893" on="1"/>
      </contour>
    </TTGlyph>
    <TTGlyph name="one" xMin="178" yMin="0" xMax="711" yMax="1462">
      <contour>
        <pt x="711" y="0" on="1"/>
        <pt x="535" y="0" on="1"/>
        <pt x="535" y="913" on="1"/>
        <pt x="535" y="956" on="0"/>
        <pt x="536" y="1054" on="0"/>
        <pt x="539" y="1151" on="0"/>
        <pt x="542" y="1240" on="0"/>
        <pt x="543" y="1274" on="1"/>
        <pt x="526" y="1256" on="0"/>
        <pt x="500" y="1230" on="0"/>
        <pt x="473" y="1206" on="0"/>
        <pt x="443" y="1179" on="0"/>
        <pt x="422" y="1161" on="1"/>
        <pt x="274" y="1040" on="1"/>
        <pt x="178" y="1163" on="1"/>
        <pt x="561" y="1462" on="1"/>
        <pt x="711" y="1462" on="1"/>
      </contour>
    </TTGlyph>
    <TTGlyph name="parenleft" xMin="82" yMin="-324" xMax="555" yMax="1462">
      <contour>
        <pt x="82" y="561" on="1"/>
        <pt x="82" y="686" on="0"/>
        <pt x="118" y="929" on="0"/>
        <pt x="192" y="1158" on="0"/>
        <pt x="305" y="1369" on="0"/>
        <pt x="383" y="1462" on="1"/>
        <pt x="555" y="1462" on="1"/>
        <pt x="415" y="1269" on="0"/>
        <pt x="270" y="807" on="0"/>
        <pt x="270" y="563" on="1"/>
        <pt x="270" y="444" on="0"/>
        <pt x="307" y="208" on="0"/>
        <pt x="378" y="-18" on="0"/>
        <pt x="484" y="-230" on="0"/>
        <pt x="553" y="-324" on="1"/>
        <pt x="383" y="-324" on="1"/>
        <pt x="305" y="-234" on="0"/>
        <pt x="192" y="-28" on="0"/>
        <pt x="118" y="197" on="0"/>
        <pt x="82" y="437" on="0"/>
      </contour>
    </TTGlyph>
    <TTGlyph name="parenright" xMin="61" yMin="-324" xMax="535" yMax="1462">
      <contour>
        <pt x="535" y="561" on="1"/>
        <pt x="535" y="437" on="0"/>
        <pt x="499" y="197" on="0"/>
        <pt x="424" y="-28" on="0"/>
        <pt x="311" y="-234" on="0"/>
        <pt x="233" y="-324" on="1"/>
        <pt x="63" y="-324" on="1"/>
        <pt x="132" y="-230" on="0"/>
        <pt x="238" y="-18" on="0"/>
        <pt x="310" y="208" on="0"/>
        <pt x="346" y="444" on="0"/>
        <pt x="346" y="563" on="1"/>
        <pt x="346" y="807" on="0"/>
        <pt x="202" y="1269" on="0"/>
        <pt x="61" y="1462" on="1"/>
        <pt x="233" y="1462" on="1"/>
        <pt x="311" y="1369" on="0"/>
        <pt x="424" y="1158" on="0"/>
        <pt x="499" y="929" on="0"/>
        <pt x="535" y="686" on="0"/>
      </contour>
    </TTGlyph>
    <TTGlyph name="percent" xMin="102" yMin="-20" xMax="1587" yMax="1483">
      <contour>
        <pt x="250" y="1026" on="1"/>
        <pt x="250" y="861" on="0"/>
        <pt x="321" y="696" on="0"/>
        <pt x="401" y="696" on="1"/>
        <pt x="557" y="696" on="0"/>
        <pt x="557" y="1026" on="1"/>
        <pt x="557" y="1354" on="0"/>
        <pt x="401" y="1354" on="1"/>
        <pt x="321" y="1354" on="0"/>
        <pt x="250" y="1191" on="0"/>
      </contour>
      <contour>
        <pt x="705" y="1026" on="1"/>
        <pt x="705" y="918" on="0"/>
        <pt x="669" y="746" on="0"/>
        <pt x="595" y="628" on="0"/>
        <pt x="480" y="565" on="0"/>
        <pt x="401" y="565" on="1"/>
        <pt x="328" y="565" on="0"/>
        <pt x="216" y="628" on="0"/>
        <pt x="140" y="746" on="0"/>
        <pt x="102" y="918" on="0"/>
        <pt x="102" y="1026" on="1"/>
        <pt x="102" y="1134" on="0"/>
        <pt x="137" y="1304" on="0"/>
        <pt x="210" y="1421" on="0"/>
        <pt x="323" y="1483" on="0"/>
        <pt x="401" y="1483" on="1"/>
        <pt x="476" y="1483" on="0"/>
        <pt x="589" y="1421" on="0"/>
        <pt x="666" y="1304" on="0"/>
        <pt x="705" y="1134" on="0"/>
      </contour>
      <contour>
        <pt x="1133" y="440" on="1"/>
        <pt x="1133" y="275" on="0"/>
        <pt x="1204" y="111" on="0"/>
        <pt x="1284" y="111" on="1"/>
        <pt x="1440" y="111" on="0"/>
        <pt x="1440" y="440" on="1"/>
        <pt x="1440" y="768" on="0"/>
        <pt x="1284" y="768" on="1"/>
        <pt x="1204" y="768" on="0"/>
        <pt x="1133" y="605" on="0"/>
      </contour>
      <contour>
        <pt x="1587" y="440" on="1"/>
        <pt x="1587" y="332" on="0"/>
        <pt x="1552" y="161" on="0"/>
        <pt x="1478" y="43" on="0"/>
        <pt x="1363" y="-20" on="0"/>
        <pt x="1284" y="-20" on="1"/>
        <pt x="1210" y="-20" on="0"/>
        <pt x="1098" y="43" on="0"/>
        <pt x="1023" y="161" on="0"/>
        <pt x="985" y="332" on="0"/>
        <pt x="985" y="440" on="1"/>
        <pt x="985" y="548" on="0"/>
        <pt x="1020" y="718" on="0"/>
        <pt x="1093" y="835" on="0"/>
        <pt x="1206" y="897" on="0"/>
        <pt x="1284" y="897" on="1"/>
        <pt x="1359" y="897" on="0"/>
        <pt x="1472" y="835" on="0"/>
        <pt x="1548" y="718" on="0"/>
        <pt x="1587" y="548" on="0"/>
      </contour>
      <contour>
        <pt x="1331" y="1462" on="1"/>
        <pt x="520" y="0" on="1"/>
        <pt x="362" y="0" on="1"/>
        <pt x="1174" y="1462" on="1"/>
      </contour>
    </TTGlyph>
    <TTGlyph name="period" xMin="147" yMin="-29" xMax="401" yMax="250">
      <contour>
        <pt x="147" y="111" on="1"/>
        <pt x="147" y="149" on="0"/>
        <pt x="167" y="202" on="0"/>
        <pt x="201" y="235" on="0"/>
        <pt x="247" y="250" on="0"/>
        <pt x="274" y="250" on="1"/>
        <pt x="300" y="250" on="0"/>
        <pt x="347" y="235" on="0"/>
        <pt x="381" y="202" on="0"/>
        <pt x="401" y="149" on="0"/>
        <pt x="401" y="111" on="1"/>
        <pt x="401" y="74" on="0"/>
        <pt x="381" y="21" on="0"/>
        <pt x="347" y="-13" on="0"/>
        <pt x="300" y="-29" on="0"/>
        <pt x="274" y="-29" on="1"/>
        <pt x="247" y="-29" on="0"/>
        <pt x="201" y="-13" on="0"/>
        <pt x="167" y="21" on="0"/>
        <pt x="147" y="74" on="0"/>
      </contour>
    </TTGlyph>
    <TTGlyph name="plus" xMin="102" yMin="262" xMax="1026" yMax="1186">
      <contour>
        <pt x="489" y="647" on="1"/>
        <pt x="102" y="647" on="1"/>
        <pt x="102" y="797" on="1"/>
        <pt x="489" y="797" on="1"/>
        <pt x="489" y="1186" on="1"/>
        <pt x="639" y="1186" on="1"/>
        <pt x="639" y="797" on="1"/>
        <pt x="1026" y="797" on="1"/>
        <pt x="1026" y="647" on="1"/>
        <pt x="639" y="647" on="1"/>
        <pt x="639" y="262" on="1"/>
        <pt x="489" y="262" on="1"/>
      </contour>
    </TTGlyph>
    <TTGlyph name="question" xMin="37" yMin="-29" xMax="805" yMax="1483">
      <contour>
        <pt x="281" y="414" on="1"/>
        <pt x="281" y="451" on="1"/>
        <pt x="281" y="508" on="0"/>
        <pt x="296" y="600" on="0"/>
        <pt x="335" y="680" on="0"/>
        <pt x="401" y="757" on="0"/>
        <pt x="451" y="799" on="1"/>
        <pt x="499" y="840" on="0"/>
        <pt x="567" y="907" on="0"/>
        <pt x="610" y="976" on="0"/>
        <pt x="631" y="1055" on="0"/>
        <pt x="631" y="1108" on="1"/>
        <pt x="631" y="1156" on="0"/>
        <pt x="601" y="1235" on="0"/>
        <pt x="544" y="1292" on="0"/>
        <pt x="459" y="1323" on="0"/>
        <pt x="403" y="1323" on="1"/>
        <pt x="320" y="1323" on="0"/>
        <pt x="170" y="1271" on="0"/>
        <pt x="100" y="1237" on="1"/>
        <pt x="37" y="1382" on="1"/>
        <pt x="118" y="1424" on="0"/>
        <pt x="306" y="1483" on="0"/>
        <pt x="403" y="1483" on="1"/>
        <pt x="496" y="1483" on="0"/>
        <pt x="645" y="1432" on="0"/>
        <pt x="749" y="1336" on="0"/>
        <pt x="805" y="1197" on="0"/>
        <pt x="805" y="1110" on="1"/>
        <pt x="805" y="1043" on="0"/>
        <pt x="778" y="938" on="0"/>
        <pt x="724" y="848" on="0"/>
        <pt x="644" y="764" on="0"/>
        <pt x="590" y="717" on="1"/>
        <pt x="538" y="672" on="0"/>
        <pt x="472" y="605" on="0"/>
        <pt x="434" y="542" on="0"/>
        <pt x="420" y="476" on="0"/>
        <pt x="420" y="432" on="1"/>
        <pt x="420" y="414" on="1"/>
      </contour>
      <contour>
        <pt x="233" y="111" on="1"/>
        <pt x="233" y="149" on="0"/>
        <pt x="253" y="202" on="0"/>
        <pt x="287" y="235" on="0"/>
        <pt x="333" y="250" on="0"/>
        <pt x="360" y="250" on="1"/>
        <pt x="386" y="250" on="0"/>
        <pt x="433" y="235" on="0"/>
        <pt x="467" y="202" on="0"/>
        <pt x="487" y="149" on="0"/>
        <pt x="487" y="111" on="1"/>
        <pt x="487" y="74" on="0"/>
        <pt x="467" y="21" on="0"/>
        <pt x="433" y="-13" on="0"/>
        <pt x="386" y="-29" on="0"/>
        <pt x="360" y="-29" on="1"/>
        <pt x="333" y="-29" on="0"/>
        <pt x="287" y="-13" on="0"/>
        <pt x="253" y="21" on="0"/>
        <pt x="233" y="74" on="0"/>
      </contour>
    </TTGlyph>
    <TTGlyph name="quotedbl" xMin="133" yMin="934" xMax="690" yMax="1462">
      <contour>
        <pt x="330" y="1462" on="1"/>
        <pt x="289" y="934" on="1"/>
        <pt x="174" y="934" on="1"/>
        <pt x="133" y="1462" on="1"/>
      </contour>
      <contour>
        <pt x="690" y="1462" on="1"/>
        <pt x="649" y="934" on="1"/>
        <pt x="535" y="934" on="1"/>
        <pt x="494" y="1462" on="1"/>
      </contour>
    </TTGlyph>
    <TTGlyph name="quotesingle" xMin="133" yMin="934" xMax="330" yMax="1462">
      <contour>
        <pt x="330" y="1462" on="1"/>
        <pt x="289" y="934" on="1"/>
        <pt x="174" y="934" on="1"/>
        <pt x="133" y="1462" on="1"/>
      </contour>
    </TTGlyph>
    <TTGlyph name="semicolon" xMin="63" yMin="-264" xMax="401" yMax="1126">
      <contour>
        <pt x="362" y="238" on="1"/>
        <pt x="377" y="215" on="1"/>
        <pt x="363" y="161" on="0"/>
        <pt x="324" y="39" on="0"/>
        <pt x="277" y="-85" on="0"/>
        <pt x="226" y="-208" on="0"/>
        <pt x="201" y="-264" on="1"/>
        <pt x="63" y="-264" on="1"/>
        <pt x="78" y="-203" on="0"/>
        <pt x="107" y="-71" on="0"/>
        <pt x="134" y="60" on="0"/>
        <pt x="156" y="185" on="0"/>
        <pt x="164" y="238" on="1"/>
      </contour>
      <contour>
        <pt x="147" y="987" on="1"/>
        <pt x="147" y="1026" on="0"/>
        <pt x="167" y="1079" on="0"/>
        <pt x="201" y="1112" on="0"/>
        <pt x="247" y="1126" on="0"/>
        <pt x="274" y="1126" on="1"/>
        <pt x="300" y="1126" on="0"/>
        <pt x="347" y="1112" on="0"/>
        <pt x="381" y="1079" on="0"/>
        <pt x="401" y="1026" on="0"/>
        <pt x="401" y="987" on="1"/>
        <pt x="401" y="950" on="0"/>
        <pt x="381" y="898" on="0"/>
        <pt x="347" y="864" on="0"/>
        <pt x="300" y="848" on="0"/>
        <pt x="274" y="848" on="1"/>
        <pt x="247" y="848" on="0"/>
        <pt x="201" y="864" on="0"/>
        <pt x="167" y="898" on="0"/>
        <pt x="147" y="950" on="0"/>
      </contour>
    </TTGlyph>
    <TTGlyph name="seven" xMin="90" yMin="0" xMax="1030" yMax="1462">
      <contour>
        <pt x="281" y="0" on="1"/>
        <pt x="844" y="1296" on="1"/>
        <pt x="90" y="1296" on="1"/>
        <pt x="90" y="1462" on="1"/>
        <pt x="1030" y="1462" on="1"/>
        <pt x="1030" y="1317" on="1"/>
        <pt x="475" y="0" on="1"/>
      </contour>
    </TTGlyph>
    <TTGlyph name="six" xMin="113" yMin="-20" xMax="1034" yMax="1483">
      <contour>
        <pt x="113" y="625" on="1"/>
        <pt x="113" y="730" on="0"/>
        <pt x="134" y="938" on="0"/>
        <pt x="187" y="1129" on="0"/>
        <pt x="279" y="1293" on="0"/>
        <pt x="421" y="1414" on="0"/>
        <pt x="619" y="1483" on="0"/>
        <pt x="752" y="1483" on="1"/>
        <pt x="771" y="1483" on="0"/>
        <pt x="817" y="1481" on="0"/>
        <pt x="864" y="1476" on="0"/>
        <pt x="907" y="1469" on="0"/>
        <pt x="924" y="1464" on="1"/>
        <pt x="924" y="1309" on="1"/>
        <pt x="889" y="1321" on="0"/>
        <pt x="801" y="1333" on="0"/>
        <pt x="758" y="1333" on="1"/>
        <pt x="668" y="1333" on="0"/>
        <pt x="531" y="1290" on="0"/>
        <pt x="431" y="1212" on="0"/>
        <pt x="364" y="1104" on="0"/>
        <pt x="322" y="973" on="0"/>
        <pt x="302" y="825" on="0"/>
        <pt x="299" y="745" on="1"/>
        <pt x="311" y="745" on="1"/>
        <pt x="331" y="781" on="0"/>
        <pt x="388" y="844" on="0"/>
        <pt x="464" y="889" on="0"/>
        <pt x="559" y="915" on="0"/>
        <pt x="618" y="915" on="1"/>
        <pt x="713" y="915" on="0"/>
        <pt x="867" y="856" on="0"/>
        <pt x="975" y="742" on="0"/>
        <pt x="1034" y="577" on="0"/>
        <pt x="1034" y="471" on="1"/>
        <pt x="1034" y="357" on="0"/>
        <pt x="972" y="175" on="0"/>
        <pt x="856" y="48" on="0"/>
        <pt x="692" y="-20" on="0"/>
        <pt x="590" y="-20" on="1"/>
        <pt x="490" y="-20" on="0"/>
        <pt x="315" y="58" on="0"/>
        <pt x="187" y="218" on="0"/>
        <pt x="113" y="460" on="0"/>
      </contour>
      <contour>
        <pt x="588" y="133" on="1"/>
        <pt x="648" y="133" on="0"/>
        <pt x="747" y="174" on="0"/>
        <pt x="819" y="257" on="0"/>
        <pt x="858" y="384" on="0"/>
        <pt x="858" y="471" on="1"/>
        <pt x="858" y="541" on="0"/>
        <pt x="825" y="652" on="0"/>
        <pt x="759" y="730" on="0"/>
        <pt x="660" y="772" on="0"/>
        <pt x="594" y="772" on="1"/>
        <pt x="527" y="772" on="0"/>
        <pt x="416" y="725" on="0"/>
        <pt x="338" y="650" on="0"/>
        <pt x="295" y="554" on="0"/>
        <pt x="295" y="506" on="1"/>
        <pt x="295" y="439" on="0"/>
        <pt x="332" y="306" on="0"/>
        <pt x="405" y="200" on="0"/>
        <pt x="515" y="133" on="0"/>
      </contour>
    </TTGlyph>
    <TTGlyph name="slash" xMin="20" yMin="0" xMax="743" yMax="1462">
      <contour>
        <pt x="743" y="1462" on="1"/>
        <pt x="199" y="0" on="1"/>
        <pt x="20" y="0" on="1"/>
        <pt x="565" y="1462" on="1"/>
      </contour>
    </TTGlyph>
    <TTGlyph name="three" xMin="82" yMin="-20" xMax="1006" yMax="1483">
      <contour>
        <pt x="961" y="1120" on="1"/>
        <pt x="961" y="1047" on="0"/>
        <pt x="915" y="927" on="0"/>
        <pt x="832" y="839" on="0"/>
        <pt x="716" y="782" on="0"/>
        <pt x="645" y="770" on="1"/>
        <pt x="645" y="764" on="1"/>
        <pt x="822" y="742" on="0"/>
        <pt x="1006" y="561" on="0"/>
        <pt x="1006" y="416" on="1"/>
        <pt x="1006" y="320" on="0"/>
        <pt x="941" y="160" on="0"/>
        <pt x="809" y="44" on="0"/>
        <pt x="607" y="-20" on="0"/>
        <pt x="469" y="-20" on="1"/>
        <pt x="360" y="-20" on="0"/>
        <pt x="167" y="14" on="0"/>
        <pt x="82" y="59" on="1"/>
        <pt x="82" y="229" on="1"/>
        <pt x="169" y="183" on="0"/>
        <pt x="372" y="133" on="0"/>
        <pt x="465" y="133" on="1"/>
        <pt x="557" y="133" on="0"/>
        <pt x="691" y="173" on="0"/>
        <pt x="778" y="247" on="0"/>
        <pt x="819" y="355" on="0"/>
        <pt x="819" y="422" on="1"/>
        <pt x="819" y="490" on="0"/>
        <pt x="766" y="587" on="0"/>
        <pt x="668" y="650" on="0"/>
        <pt x="527" y="680" on="0"/>
        <pt x="438" y="680" on="1"/>
        <pt x="305" y="680" on="1"/>
        <pt x="305" y="831" on="1"/>
        <pt x="438" y="831" on="1"/>
        <pt x="519" y="831" on="0"/>
        <pt x="645" y="871" on="0"/>
        <pt x="730" y="945" on="0"/>
        <pt x="774" y="1047" on="0"/>
        <pt x="774" y="1108" on="1"/>
        <pt x="774" y="1160" on="0"/>
        <pt x="738" y="1242" on="0"/>
        <pt x="672" y="1299" on="0"/>
        <pt x="580" y="1329" on="0"/>
        <pt x="524" y="1329" on="1"/>
        <pt x="417" y="1329" on="0"/>
        <pt x="254" y="1262" on="0"/>
        <pt x="180" y="1208" on="1"/>
        <pt x="88" y="1333" on="1"/>
        <pt x="126" y="1364" on="0"/>
        <pt x="219" y="1418" on="0"/>
        <pt x="329" y="1459" on="0"/>
        <pt x="454" y="1483" on="0"/>
        <pt x="524" y="1483" on="1"/>
        <pt x="632" y="1483" on="0"/>
        <pt x="795" y="1429" on="0"/>
        <pt x="905" y="1332" on="0"/>
        <pt x="961" y="1199" on="0"/>
      </contour>
    </TTGlyph>
    <TTGlyph name="two" xMin="96" yMin="0" xMax="1008" yMax="1483">
      <contour>
        <pt x="1008" y="0" on="1"/>
        <pt x="96" y="0" on="1"/>
        <pt x="96" y="156" on="1"/>
        <pt x="446" y="537" on="1"/>
        <pt x="521" y="618" on="0"/>
        <pt x="639" y="752" on="0"/>
        <pt x="722" y="880" on="0"/>
        <pt x="766" y="1009" on="0"/>
        <pt x="766" y="1085" on="1"/>
        <pt x="766" y="1144" on="0"/>
        <pt x="732" y="1234" on="0"/>
        <pt x="669" y="1297" on="0"/>
        <pt x="583" y="1329" on="0"/>
        <pt x="530" y="1329" on="1"/>
        <pt x="435" y="1329" on="0"/>
        <pt x="282" y="1252" on="0"/>
        <pt x="213" y="1192" on="1"/>
        <pt x="111" y="1311" on="1"/>
        <pt x="151" y="1347" on="0"/>
        <pt x="243" y="1410" on="0"/>
        <pt x="349" y="1456" on="0"/>
        <pt x="467" y="1483" on="0"/>
        <pt x="532" y="1483" on="1"/>
        <pt x="628" y="1483" on="0"/>
        <pt x="783" y="1429" on="0"/>
        <pt x="891" y="1328" on="0"/>
        <pt x="950" y="1183" on="0"/>
        <pt x="950" y="1092" on="1"/>
        <pt x="950" y="1007" on="0"/>
        <pt x="897" y="853" on="0"/>
        <pt x="804" y="704" on="0"/>
        <pt x="675" y="554" on="0"/>
        <pt x="600" y="473" on="1"/>
        <pt x="319" y="174" on="1"/>
        <pt x="319" y="166" on="1"/>
        <pt x="1008" y="166" on="1"/>
      </contour>
    </TTGlyph>
    <TTGlyph name="uni00AD" xMin="82" yMin="465" xMax="578" yMax="633">
      <component glyphName="hyphen" x="0" y="0" flags="0x1204"/>
    </TTGlyph>
    <TTGlyph name="uni1780" xMin="200" yMin="0" xMax="1100" yMax="1200">
      <contour>
        <pt x="1100" y="1200" on="1"/>
        <pt x="1100" y="1062" on="1"/>
        <pt x="200" y="1062" on="1"/>
        <pt x="200" y="1200" on="1"/>
      </contour>
      <contour>
        <pt x="388" y="600" on="1"/>
        <pt x="388" y="0" on="1"/>
        <pt x="200" y="0" on="1"/>
        <pt x="200" y="600" on="1"/>
        <pt x="200" y="923" on="0"/>
        <pt x="650" y="923" on="1"/>
        <pt x="1100" y="923" on="0"/>
        <pt x="1100" y="600" on="1"/>
        <pt x="1100" y="0" on="1"/>
        <pt x="912" y="0" on="1"/>
        <pt x="912" y="600" on="1"/>
        <pt x="912" y="785" on="0"/>
        <pt x="650" y="785" on="1"/>
        <pt x="388" y="785" on="0"/>
      </contour>
    </TTGlyph>
    <TTGlyph name="uni1781" xMin="200" yMin="0" xMax="1100" yMax="1200">
      <contour>
        <pt x="388" y="473" on="1"/>
        <pt x="388" y="323" on="1"/>
        <pt x="388" y="231" on="0"/>
        <pt x="447" y="185" on="1"/>
        <pt x="505" y="138" on="0"/>
        <pt x="650" y="138" on="1"/>
        <pt x="795" y="138" on="0"/>
        <pt x="854" y="185" on="1"/>
        <pt x="912" y="231" on="0"/>
        <pt x="912" y="323" on="1"/>
        <pt x="912" y="480" on="1"/>
        <pt x="1100" y="480" on="1"/>
        <pt x="1100" y="323" on="1"/>
        <pt x="1100" y="185" on="0"/>
        <pt x="1000" y="93" on="1"/>
        <pt x="900" y="0" on="0"/>
        <pt x="650" y="0" on="1"/>
        <pt x="400" y="0" on="0"/>
        <pt x="300" y="93" on="1"/>
        <pt x="200" y="185" on="0"/>
        <pt x="200" y="323" on="1"/>
        <pt x="200" y="586" on="1"/>
        <pt x="556" y="636" on="1"/>
        <pt x="912" y="687" on="0"/>
        <pt x="912" y="877" on="1"/>
        <pt x="912" y="969" on="0"/>
        <pt x="854" y="1016" on="1"/>
        <pt x="795" y="1062" on="0"/>
        <pt x="650" y="1062" on="1"/>
        <pt x="505" y="1062" on="0"/>
        <pt x="447" y="1016" on="1"/>
        <pt x="388" y="969" on="0"/>
        <pt x="388" y="897" on="1"/>
        <pt x="388" y="863" on="0"/>
        <pt x="488" y="863" on="1"/>
        <pt x="488" y="719" on="1"/>
        <pt x="338" y="719" on="1"/>
        <pt x="200" y="719" on="0"/>
        <pt x="200" y="863" on="1"/>
        <pt x="200" y="897" on="1"/>
        <pt x="200" y="1015" on="0"/>
        <pt x="300" y="1108" on="1"/>
        <pt x="400" y="1200" on="0"/>
        <pt x="650" y="1200" on="1"/>
        <pt x="900" y="1200" on="0"/>
        <pt x="1000" y="1108" on="1"/>
        <pt x="1100" y="1015" on="0"/>
        <pt x="1100" y="877" on="1"/>
        <pt x="1100" y="575" on="0"/>
        <pt x="566" y="499" on="1"/>
      </contour>
    </TTGlyph>
    <TTGlyph name="uni1782" xMin="200" yMin="0" xMax="1100" yMax="1200">
      <contour>
        <pt x="1100" y="1200" on="1"/>
        <pt x="1100" y="1062" on="1"/>
        <pt x="200" y="1062" on="1"/>
        <pt x="200" y="1200" on="1"/>
      </contour>
      <contour>
        <pt x="388" y="320" on="1"/>
        <pt x="457" y="400" on="0"/>
        <pt x="573" y="400" on="1"/>
        <pt x="700" y="400" on="1"/>
        <pt x="700" y="262" on="1"/>
        <pt x="596" y="262" on="1"/>
        <pt x="493" y="262" on="0"/>
        <pt x="450" y="216" on="1"/>
        <pt x="408" y="171" on="0"/>
        <pt x="388" y="86" on="1"/>
        <pt x="388" y="0" on="1"/>
        <pt x="200" y="0" on="1"/>
        <pt x="200" y="600" on="1"/>
        <pt x="200" y="923" on="0"/>
        <pt x="650" y="923" on="1"/>
        <pt x="1100" y="923" on="0"/>
        <pt x="1100" y="600" on="1"/>
        <pt x="1100" y="0" on="1"/>
        <pt x="912" y="0" on="1"/>
        <pt x="912" y="600" on="1"/>
        <pt x="912" y="785" on="0"/>
        <pt x="650" y="785" on="1"/>
        <pt x="388" y="785" on="0"/>
        <pt x="388" y="600" on="1"/>
      </contour>
    </TTGlyph>
    <TTGlyph name="uni1783" xMin="59" yMin="0" xMax="1700" yMax="1200">
      <contour>
        <pt x="862" y="806" on="1"/>
        <pt x="782" y="905" on="1"/>
        <pt x="742" y="955" on="1"/>
        <pt x="721" y="980" on="0"/>
        <pt x="721" y="1005" on="1"/>
        <pt x="721" y="1029" on="0"/>
        <pt x="740" y="1053" on="1"/>
        <pt x="777" y="1102" on="1"/>
        <pt x="852" y="1200" on="1"/>
        <pt x="1100" y="1200" on="1"/>
        <pt x="1100" y="1062" on="1"/>
        <pt x="852" y="1062" on="1"/>
        <pt x="1050" y="840" on="1"/>
        <pt x="1050" y="323" on="1"/>
        <pt x="1050" y="138" on="0"/>
        <pt x="1281" y="138" on="1"/>
        <pt x="1512" y="138" on="0"/>
        <pt x="1512" y="323" on="1"/>
        <pt x="1512" y="806" on="1"/>
        <pt x="1407" y="905" on="1"/>
        <pt x="1355" y="955" on="1"/>
        <pt x="1324" y="984" on="0"/>
        <pt x="1324" y="1012" on="1"/>
        <pt x="1324" y="1033" on="0"/>
        <pt x="1340" y="1053" on="1"/>
        <pt x="1377" y="1102" on="1"/>
        <pt x="1452" y="1200" on="1"/>
        <pt x="1700" y="1200" on="1"/>
        <pt x="1700" y="1062" on="1"/>
        <pt x="1452" y="1062" on="1"/>
        <pt x="1700" y="840" on="1"/>
        <pt x="1700" y="323" on="1"/>
        <pt x="1700" y="0" on="0"/>
        <pt x="1281" y="0" on="1"/>
        <pt x="1062" y="0" on="0"/>
        <pt x="956" y="98" on="1"/>
        <pt x="850" y="0" on="0"/>
        <pt x="625" y="0" on="1"/>
        <pt x="200" y="0" on="0"/>
        <pt x="200" y="323" on="1"/>
        <pt x="200" y="1015" on="1"/>
        <pt x="200" y="1062" on="0"/>
        <pt x="59" y="1062" on="1"/>
        <pt x="59" y="1200" on="1"/>
        <pt x="238" y="1200" on="1"/>
        <pt x="388" y="1200" on="0"/>
        <pt x="388" y="1098" on="1"/>
        <pt x="388" y="323" on="1"/>
        <pt x="388" y="138" on="0"/>
        <pt x="625" y="138" on="1"/>
        <pt x="862" y="138" on="0"/>
        <pt x="862" y="323" on="1"/>
      </contour>
    </TTGlyph>
    <TTGlyph name="uni1784" xMin="100" yMin="0" xMax="1100" yMax="1400">
      <contour>
        <pt x="200" y="1400" on="1"/>
        <pt x="388" y="1400" on="1"/>
        <pt x="388" y="1039" on="1"/>
        <pt x="388" y="989" on="0"/>
        <pt x="460" y="923" on="0"/>
        <pt x="530" y="923" on="1"/>
        <pt x="604" y="923" on="0"/>
        <pt x="705" y="953" on="1"/>
        <pt x="630" y="1004" on="0"/>
        <pt x="630" y="1056" on="1"/>
        <pt x="630" y="1200" on="0"/>
        <pt x="820" y="1200" on="1"/>
        <pt x="1000" y="1200" on="0"/>
        <pt x="1000" y="1056" on="1"/>
        <pt x="1000" y="994" on="0"/>
        <pt x="932" y="937" on="1"/>
        <pt x="953" y="930" on="0"/>
        <pt x="975" y="920" on="1"/>
        <pt x="1100" y="867" on="0"/>
        <pt x="1100" y="720" on="1"/>
        <pt x="1100" y="0" on="1"/>
        <pt x="882" y="0" on="1"/>
        <pt x="651" y="210" on="1"/>
        <pt x="419" y="0" on="1"/>
        <pt x="200" y="0" on="1"/>
        <pt x="200" y="535" on="1"/>
        <pt x="200" y="576" on="0"/>
        <pt x="100" y="576" on="1"/>
        <pt x="100" y="720" on="1"/>
        <pt x="250" y="720" on="1"/>
        <pt x="388" y="720" on="0"/>
        <pt x="388" y="576" on="1"/>
        <pt x="388" y="166" on="1"/>
        <pt x="651" y="405" on="1"/>
        <pt x="912" y="167" on="1"/>
        <pt x="912" y="720" on="1"/>
        <pt x="912" y="769" on="0"/>
        <pt x="864" y="815" on="0"/>
        <pt x="828" y="834" on="1"/>
        <pt x="686" y="785" on="0"/>
        <pt x="530" y="785" on="1"/>
        <pt x="372" y="785" on="0"/>
        <pt x="289" y="855" on="1"/>
        <pt x="200" y="916" on="0"/>
        <pt x="200" y="1039" on="1"/>
      </contour>
    </TTGlyph>
    <TTGlyph name="uni1785" xMin="100" yMin="0" xMax="1100" yMax="1200">
      <contour>
        <pt x="912" y="640" on="1"/>
        <pt x="912" y="762" on="1"/>
        <pt x="820" y="762" on="0"/>
        <pt x="820" y="701" on="1"/>
        <pt x="820" y="640" on="0"/>
      </contour>
      <contour>
        <pt x="200" y="786" on="1"/>
        <pt x="172" y="822" on="1"/>
        <pt x="100" y="914" on="0"/>
        <pt x="100" y="955" on="1"/>
        <pt x="100" y="992" on="0"/>
        <pt x="118" y="1017" on="1"/>
        <pt x="258" y="1200" on="1"/>
        <pt x="1100" y="1200" on="1"/>
        <pt x="1100" y="1062" on="1"/>
        <pt x="263" y="1062" on="1"/>
        <pt x="242" y="1037" on="1"/>
        <pt x="237" y="1032" on="0"/>
        <pt x="237" y="1024" on="1"/>
        <pt x="237" y="992" on="0"/>
        <pt x="304" y="916" on="1"/>
        <pt x="388" y="820" on="1"/>
        <pt x="388" y="323" on="1"/>
        <pt x="388" y="138" on="0"/>
        <pt x="650" y="138" on="1"/>
        <pt x="912" y="138" on="0"/>
        <pt x="912" y="323" on="1"/>
        <pt x="912" y="502" on="1"/>
        <pt x="702" y="502" on="0"/>
        <pt x="702" y="701" on="1"/>
        <pt x="702" y="900" on="0"/>
        <pt x="912" y="900" on="1"/>
        <pt x="1100" y="900" on="0"/>
        <pt x="1100" y="778" on="1"/>
        <pt x="1100" y="323" on="1"/>
        <pt x="1100" y="0" on="0"/>
        <pt x="650" y="0" on="1"/>
        <pt x="200" y="0" on="0"/>
        <pt x="200" y="323" on="1"/>
      </contour>
    </TTGlyph>
    <TTGlyph name="uni1786" xMin="100" yMin="0" xMax="1100" yMax="1200">
      <contour>
        <pt x="912" y="640" on="1"/>
        <pt x="912" y="762" on="1"/>
        <pt x="820" y="762" on="0"/>
        <pt x="820" y="701" on="1"/>
        <pt x="820" y="640" on="0"/>
      </contour>
      <contour>
        <pt x="200" y="400" on="1"/>
        <pt x="200" y="786" on="1"/>
        <pt x="172" y="822" on="1"/>
        <pt x="100" y="914" on="0"/>
        <pt x="100" y="955" on="1"/>
        <pt x="100" y="992" on="0"/>
        <pt x="118" y="1017" on="1"/>
        <pt x="258" y="1200" on="1"/>
        <pt x="1100" y="1200" on="1"/>
        <pt x="1100" y="1062" on="1"/>
        <pt x="263" y="1062" on="1"/>
        <pt x="242" y="1037" on="1"/>
        <pt x="237" y="1032" on="0"/>
        <pt x="237" y="1024" on="1"/>
        <pt x="237" y="992" on="0"/>
        <pt x="304" y="916" on="1"/>
        <pt x="388" y="820" on="1"/>
        <pt x="388" y="400" on="1"/>
        <pt x="636" y="400" on="1"/>
        <pt x="678" y="323" on="1"/>
        <pt x="728" y="231" on="0"/>
        <pt x="795" y="138" on="0"/>
        <pt x="820" y="138" on="1"/>
        <pt x="845" y="138" on="0"/>
        <pt x="912" y="231" on="0"/>
        <pt x="912" y="323" on="1"/>
        <pt x="912" y="502" on="1"/>
        <pt x="702" y="502" on="0"/>
        <pt x="702" y="701" on="1"/>
        <pt x="702" y="900" on="0"/>
        <pt x="912" y="900" on="1"/>
        <pt x="1100" y="900" on="0"/>
        <pt x="1100" y="778" on="1"/>
        <pt x="1100" y="323" on="1"/>
        <pt x="1100" y="185" on="0"/>
        <pt x="950" y="0" on="0"/>
        <pt x="820" y="0" on="1"/>
        <pt x="690" y="0" on="0"/>
        <pt x="615" y="93" on="1"/>
        <pt x="557" y="164" on="0"/>
        <pt x="514" y="262" on="1"/>
        <pt x="388" y="262" on="1"/>
        <pt x="388" y="0" on="1"/>
        <pt x="200" y="0" on="1"/>
        <pt x="100" y="162" on="0"/>
        <pt x="100" y="281" on="1"/>
        <pt x="100" y="400" on="0"/>
      </contour>
    </TTGlyph>
    <TTGlyph name="uni1787" xMin="100" yMin="0" xMax="1100" yMax="1400">
      <contour>
        <pt x="388" y="166" on="1"/>
        <pt x="651" y="405" on="1"/>
        <pt x="912" y="167" on="1"/>
        <pt x="912" y="923" on="1"/>
        <pt x="1100" y="923" on="1"/>
        <pt x="1100" y="0" on="1"/>
        <pt x="882" y="0" on="1"/>
        <pt x="651" y="210" on="1"/>
        <pt x="419" y="0" on="1"/>
        <pt x="200" y="0" on="1"/>
        <pt x="200" y="786" on="1"/>
        <pt x="172" y="822" on="1"/>
        <pt x="100" y="914" on="0"/>
        <pt x="100" y="955" on="1"/>
        <pt x="100" y="992" on="0"/>
        <pt x="118" y="1017" on="1"/>
        <pt x="258" y="1200" on="1"/>
        <pt x="800" y="1200" on="1"/>
        <pt x="912" y="1200" on="0"/>
        <pt x="912" y="1250" on="1"/>
        <pt x="912" y="1400" on="1"/>
        <pt x="1100" y="1400" on="1"/>
        <pt x="1100" y="1250" on="1"/>
        <pt x="1100" y="1062" on="0"/>
        <pt x="800" y="1062" on="1"/>
        <pt x="263" y="1062" on="1"/>
        <pt x="242" y="1037" on="1"/>
        <pt x="237" y="1032" on="0"/>
        <pt x="237" y="1024" on="1"/>
        <pt x="237" y="992" on="0"/>
        <pt x="304" y="916" on="1"/>
        <pt x="388" y="820" on="1"/>
      </contour>
    </TTGlyph>
    <TTGlyph name="uni1788" xMin="200" yMin="0" xMax="2362" yMax="1200">
      <contour>
        <pt x="388" y="310" on="1"/>
        <pt x="388" y="138" on="1"/>
        <pt x="480" y="138" on="0"/>
        <pt x="480" y="249" on="1"/>
        <pt x="480" y="310" on="0"/>
      </contour>
      <contour>
        <pt x="200" y="877" on="1"/>
        <pt x="200" y="1200" on="0"/>
        <pt x="625" y="1200" on="1"/>
        <pt x="1050" y="1200" on="0"/>
        <pt x="1050" y="877" on="1"/>
        <pt x="1050" y="323" on="1"/>
        <pt x="1050" y="138" on="0"/>
        <pt x="1287" y="138" on="1"/>
        <pt x="1524" y="138" on="0"/>
        <pt x="1524" y="323" on="1"/>
        <pt x="1524" y="806" on="1"/>
        <pt x="1444" y="905" on="1"/>
        <pt x="1404" y="955" on="1"/>
        <pt x="1383" y="980" on="0"/>
        <pt x="1383" y="1005" on="1"/>
        <pt x="1383" y="1029" on="0"/>
        <pt x="1402" y="1053" on="1"/>
        <pt x="1439" y="1102" on="1"/>
        <pt x="1514" y="1200" on="1"/>
        <pt x="1762" y="1200" on="1"/>
        <pt x="1762" y="1062" on="1"/>
        <pt x="1514" y="1062" on="1"/>
        <pt x="1712" y="840" on="1"/>
        <pt x="1712" y="323" on="1"/>
        <pt x="1712" y="138" on="0"/>
        <pt x="1943" y="138" on="1"/>
        <pt x="2174" y="138" on="0"/>
        <pt x="2174" y="323" on="1"/>
        <pt x="2174" y="806" on="1"/>
        <pt x="2069" y="905" on="1"/>
        <pt x="2017" y="955" on="1"/>
        <pt x="1986" y="984" on="0"/>
        <pt x="1986" y="1012" on="1"/>
        <pt x="1986" y="1033" on="0"/>
        <pt x="2002" y="1053" on="1"/>
        <pt x="2039" y="1102" on="1"/>
        <pt x="2114" y="1200" on="1"/>
        <pt x="2362" y="1200" on="1"/>
        <pt x="2362" y="1062" on="1"/>
        <pt x="2114" y="1062" on="1"/>
        <pt x="2362" y="840" on="1"/>
        <pt x="2362" y="323" on="1"/>
        <pt x="2362" y="0" on="0"/>
        <pt x="1943" y="0" on="1"/>
        <pt x="1724" y="0" on="0"/>
        <pt x="1618" y="98" on="1"/>
        <pt x="1512" y="0" on="0"/>
        <pt x="1287" y="0" on="1"/>
        <pt x="862" y="0" on="0"/>
        <pt x="862" y="323" on="1"/>
        <pt x="862" y="877" on="1"/>
        <pt x="862" y="1062" on="0"/>
        <pt x="625" y="1062" on="1"/>
        <pt x="388" y="1062" on="0"/>
        <pt x="388" y="877" on="1"/>
        <pt x="388" y="448" on="1"/>
        <pt x="598" y="448" on="0"/>
        <pt x="598" y="249" on="1"/>
        <pt x="598" y="0" on="0"/>
        <pt x="388" y="0" on="1"/>
        <pt x="200" y="0" on="0"/>
        <pt x="200" y="122" on="1"/>
      </contour>
    </TTGlyph>
    <TTGlyph name="uni1789" xMin="200" yMin="-500" xMax="1750" yMax="1200">
      <contour>
        <pt x="1400" y="-100" on="1"/>
        <pt x="1750" y="-100" on="1"/>
        <pt x="1750" y="-260" on="1"/>
        <pt x="1750" y="-500" on="0"/>
        <pt x="1422" y="-500" on="1"/>
        <pt x="1185" y="-500" on="0"/>
        <pt x="1025" y="-400" on="1"/>
        <pt x="864" y="-300" on="0"/>
        <pt x="600" y="-300" on="1"/>
        <pt x="200" y="-300" on="1"/>
        <pt x="200" y="-180" on="1"/>
        <pt x="600" y="-180" on="1"/>
        <pt x="947" y="-180" on="0"/>
        <pt x="1114" y="-280" on="1"/>
        <pt x="1281" y="-380" on="0"/>
        <pt x="1422" y="-380" on="1"/>
        <pt x="1562" y="-380" on="0"/>
        <pt x="1562" y="-260" on="1"/>
        <pt x="1562" y="-220" on="1"/>
        <pt x="1400" y="-220" on="1"/>
      </contour>
      <contour>
        <pt x="388" y="310" on="1"/>
        <pt x="388" y="138" on="1"/>
        <pt x="480" y="138" on="0"/>
        <pt x="480" y="249" on="1"/>
        <pt x="480" y="310" on="0"/>
      </contour>
      <contour>
        <pt x="200" y="923" on="1"/>
        <pt x="200" y="1036" on="0"/>
        <pt x="275" y="1118" on="1"/>
        <pt x="350" y="1200" on="0"/>
        <pt x="445" y="1200" on="1"/>
        <pt x="539" y="1200" on="0"/>
        <pt x="650" y="1076" on="1"/>
        <pt x="762" y="1200" on="0"/>
        <pt x="857" y="1200" on="1"/>
        <pt x="950" y="1200" on="0"/>
        <pt x="1025" y="1119" on="1"/>
        <pt x="1126" y="1200" on="0"/>
        <pt x="1331" y="1200" on="1"/>
        <pt x="1550" y="1200" on="0"/>
        <pt x="1650" y="1108" on="1"/>
        <pt x="1750" y="1015" on="0"/>
        <pt x="1750" y="877" on="1"/>
        <pt x="1750" y="0" on="1"/>
        <pt x="1562" y="0" on="1"/>
        <pt x="1562" y="877" on="1"/>
        <pt x="1562" y="969" on="0"/>
        <pt x="1504" y="1015" on="1"/>
        <pt x="1445" y="1062" on="0"/>
        <pt x="1331" y="1062" on="1"/>
        <pt x="1217" y="1062" on="0"/>
        <pt x="1159" y="1015" on="1"/>
        <pt x="1100" y="969" on="0"/>
        <pt x="1100" y="877" on="1"/>
        <pt x="1100" y="0" on="1"/>
        <pt x="912" y="0" on="1"/>
        <pt x="912" y="923" on="1"/>
        <pt x="912" y="1050" on="0"/>
        <pt x="840" y="1050" on="1"/>
        <pt x="791" y="1050" on="0"/>
        <pt x="709" y="956" on="1"/>
        <pt x="682" y="925" on="0"/>
        <pt x="650" y="925" on="1"/>
        <pt x="618" y="925" on="0"/>
        <pt x="591" y="956" on="1"/>
        <pt x="510" y="1050" on="0"/>
        <pt x="461" y="1050" on="1"/>
        <pt x="388" y="1050" on="0"/>
        <pt x="388" y="923" on="1"/>
        <pt x="388" y="448" on="1"/>
        <pt x="598" y="448" on="0"/>
        <pt x="598" y="249" on="1"/>
        <pt x="598" y="0" on="0"/>
        <pt x="388" y="0" on="1"/>
        <pt x="200" y="0" on="0"/>
        <pt x="200" y="122" on="1"/>
      </contour>
    </TTGlyph>
    <TTGlyph name="uni1789.a" xMin="200" yMin="0" xMax="1750" yMax="1200">
      <contour>
        <pt x="388" y="310" on="1"/>
        <pt x="388" y="138" on="1"/>
        <pt x="480" y="138" on="0"/>
        <pt x="480" y="249" on="1"/>
        <pt x="480" y="310" on="0"/>
      </contour>
      <contour>
        <pt x="200" y="923" on="1"/>
        <pt x="200" y="1036" on="0"/>
        <pt x="275" y="1118" on="1"/>
        <pt x="350" y="1200" on="0"/>
        <pt x="445" y="1200" on="1"/>
        <pt x="539" y="1200" on="0"/>
        <pt x="650" y="1076" on="1"/>
        <pt x="762" y="1200" on="0"/>
        <pt x="857" y="1200" on="1"/>
        <pt x="950" y="1200" on="0"/>
        <pt x="1025" y="1119" on="1"/>
        <pt x="1126" y="1200" on="0"/>
        <pt x="1331" y="1200" on="1"/>
        <pt x="1550" y="1200" on="0"/>
        <pt x="1650" y="1108" on="1"/>
        <pt x="1750" y="1015" on="0"/>
        <pt x="1750" y="877" on="1"/>
        <pt x="1750" y="0" on="1"/>
        <pt x="1562" y="0" on="1"/>
        <pt x="1562" y="877" on="1"/>
        <pt x="1562" y="969" on="0"/>
        <pt x="1504" y="1015" on="1"/>
        <pt x="1445" y="1062" on="0"/>
        <pt x="1331" y="1062" on="1"/>
        <pt x="1217" y="1062" on="0"/>
        <pt x="1159" y="1015" on="1"/>
        <pt x="1100" y="969" on="0"/>
        <pt x="1100" y="877" on="1"/>
        <pt x="1100" y="0" on="1"/>
        <pt x="912" y="0" on="1"/>
        <pt x="912" y="923" on="1"/>
        <pt x="912" y="1050" on="0"/>
        <pt x="840" y="1050" on="1"/>
        <pt x="791" y="1050" on="0"/>
        <pt x="709" y="956" on="1"/>
        <pt x="682" y="925" on="0"/>
        <pt x="650" y="925" on="1"/>
        <pt x="618" y="925" on="0"/>
        <pt x="591" y="956" on="1"/>
        <pt x="510" y="1050" on="0"/>
        <pt x="461" y="1050" on="1"/>
        <pt x="388" y="1050" on="0"/>
        <pt x="388" y="923" on="1"/>
        <pt x="388" y="448" on="1"/>
        <pt x="598" y="448" on="0"/>
        <pt x="598" y="249" on="1"/>
        <pt x="598" y="0" on="0"/>
        <pt x="388" y="0" on="1"/>
        <pt x="200" y="0" on="0"/>
        <pt x="200" y="122" on="1"/>
      </contour>
    </TTGlyph>
    <TTGlyph name="uni178917C917B617C6" xMin="200" yMin="-800" xMax="2338" yMax="1750">
      <contour>
        <pt x="1400" y="-100" on="1"/>
        <pt x="1750" y="-100" on="1"/>
        <pt x="1750" y="-260" on="1"/>
        <pt x="1750" y="-500" on="0"/>
        <pt x="1422" y="-500" on="1"/>
        <pt x="1185" y="-500" on="0"/>
        <pt x="1025" y="-400" on="1"/>
        <pt x="864" y="-300" on="0"/>
        <pt x="600" y="-300" on="1"/>
        <pt x="200" y="-300" on="1"/>
        <pt x="200" y="-180" on="1"/>
        <pt x="600" y="-180" on="1"/>
        <pt x="947" y="-180" on="0"/>
        <pt x="1114" y="-280" on="1"/>
        <pt x="1281" y="-380" on="0"/>
        <pt x="1422" y="-380" on="1"/>
        <pt x="1562" y="-380" on="0"/>
        <pt x="1562" y="-260" on="1"/>
        <pt x="1562" y="-220" on="1"/>
        <pt x="1400" y="-220" on="1"/>
      </contour>
      <contour>
        <pt x="388" y="310" on="1"/>
        <pt x="388" y="138" on="1"/>
        <pt x="480" y="138" on="0"/>
        <pt x="480" y="249" on="1"/>
        <pt x="480" y="310" on="0"/>
      </contour>
      <contour>
        <pt x="200" y="923" on="1"/>
        <pt x="200" y="1036" on="0"/>
        <pt x="275" y="1118" on="1"/>
        <pt x="350" y="1200" on="0"/>
        <pt x="445" y="1200" on="1"/>
        <pt x="539" y="1200" on="0"/>
        <pt x="650" y="1076" on="1"/>
        <pt x="762" y="1200" on="0"/>
        <pt x="857" y="1200" on="1"/>
        <pt x="950" y="1200" on="0"/>
        <pt x="1025" y="1119" on="1"/>
        <pt x="1126" y="1200" on="0"/>
        <pt x="1331" y="1200" on="1"/>
        <pt x="1550" y="1200" on="0"/>
        <pt x="1650" y="1108" on="1"/>
        <pt x="1750" y="1015" on="0"/>
        <pt x="1750" y="877" on="1"/>
        <pt x="1750" y="0" on="1"/>
        <pt x="1562" y="0" on="1"/>
        <pt x="1562" y="877" on="1"/>
        <pt x="1562" y="969" on="0"/>
        <pt x="1504" y="1015" on="1"/>
        <pt x="1445" y="1062" on="0"/>
        <pt x="1331" y="1062" on="1"/>
        <pt x="1217" y="1062" on="0"/>
        <pt x="1159" y="1015" on="1"/>
        <pt x="1100" y="969" on="0"/>
        <pt x="1100" y="877" on="1"/>
        <pt x="1100" y="0" on="1"/>
        <pt x="912" y="0" on="1"/>
        <pt x="912" y="923" on="1"/>
        <pt x="912" y="1050" on="0"/>
        <pt x="840" y="1050" on="1"/>
        <pt x="791" y="1050" on="0"/>
        <pt x="709" y="956" on="1"/>
        <pt x="682" y="925" on="0"/>
        <pt x="650" y="925" on="1"/>
        <pt x="618" y="925" on="0"/>
        <pt x="591" y="956" on="1"/>
        <pt x="510" y="1050" on="0"/>
        <pt x="461" y="1050" on="1"/>
        <pt x="388" y="1050" on="0"/>
        <pt x="388" y="923" on="1"/>
        <pt x="388" y="448" on="1"/>
        <pt x="598" y="448" on="0"/>
        <pt x="598" y="249" on="1"/>
        <pt x="598" y="0" on="0"/>
        <pt x="388" y="0" on="1"/>
        <pt x="200" y="0" on="0"/>
        <pt x="200" y="122" on="1"/>
      </contour>
      <contour>
        <pt x="1110" y="-500" on="1"/>
        <pt x="1110" y="-800" on="1"/>
        <pt x="922" y="-800" on="1"/>
        <pt x="922" y="-600" on="1"/>
        <pt x="837" y="-600" on="1"/>
        <pt x="837" y="-500" on="1"/>
      </contour>
      <contour>
        <pt x="2018" y="1200" on="1"/>
        <pt x="2186" y="1200" on="0"/>
        <pt x="2338" y="1068" on="0"/>
        <pt x="2338" y="937" on="1"/>
        <pt x="2338" y="0" on="1"/>
        <pt x="2150" y="0" on="1"/>
        <pt x="2150" y="937" on="1"/>
        <pt x="2150" y="1009" on="0"/>
        <pt x="2093" y="1062" on="0"/>
        <pt x="2018" y="1062" on="1"/>
        <pt x="1750" y="1062" on="1"/>
        <pt x="1750" y="1200" on="1"/>
      </contour>
      <contour>
        <pt x="1947" y="1615" on="0"/>
        <pt x="1904" y="1592" on="0"/>
        <pt x="1880" y="1548" on="0"/>
        <pt x="1880" y="1525" on="1"/>
        <pt x="1880" y="1502" on="0"/>
        <pt x="1904" y="1458" on="0"/>
        <pt x="1947" y="1435" on="0"/>
        <pt x="1970" y="1435" on="1"/>
        <pt x="1993" y="1435" on="0"/>
        <pt x="2037" y="1458" on="0"/>
        <pt x="2060" y="1502" on="0"/>
        <pt x="2060" y="1525" on="1"/>
        <pt x="2060" y="1548" on="0"/>
        <pt x="2036" y="1592" on="0"/>
        <pt x="1993" y="1615" on="0"/>
        <pt x="1970" y="1615" on="1"/>
      </contour>
      <contour>
        <pt x="1970" y="1750" on="1"/>
        <pt x="2027" y="1750" on="0"/>
        <pt x="2134" y="1692" on="0"/>
        <pt x="2195" y="1584" on="0"/>
        <pt x="2195" y="1525" on="1"/>
        <pt x="2195" y="1466" on="0"/>
        <pt x="2136" y="1359" on="0"/>
        <pt x="2029" y="1300" on="0"/>
        <pt x="1970" y="1300" on="1"/>
        <pt x="1912" y="1300" on="0"/>
        <pt x="1805" y="1359" on="0"/>
        <pt x="1745" y="1466" on="0"/>
        <pt x="1745" y="1525" on="1"/>
        <pt x="1745" y="1584" on="0"/>
        <pt x="1806" y="1692" on="0"/>
        <pt x="1913" y="1750" on="0"/>
      </contour>
    </TTGlyph>
    <TTGlyph name="uni178A" xMin="200" yMin="0" xMax="1100" yMax="1400">
      <contour>
        <pt x="388" y="166" on="1"/>
        <pt x="651" y="405" on="1"/>
        <pt x="912" y="167" on="1"/>
        <pt x="912" y="823" on="1"/>
        <pt x="1100" y="823" on="1"/>
        <pt x="1100" y="0" on="1"/>
        <pt x="882" y="0" on="1"/>
        <pt x="651" y="210" on="1"/>
        <pt x="419" y="0" on="1"/>
        <pt x="200" y="0" on="1"/>
        <pt x="200" y="823" on="1"/>
        <pt x="388" y="823" on="1"/>
      </contour>
      <contour>
        <pt x="200" y="1250" on="1"/>
        <pt x="388" y="1250" on="1"/>
        <pt x="388" y="1100" on="1"/>
        <pt x="800" y="1100" on="1"/>
        <pt x="912" y="1100" on="0"/>
        <pt x="912" y="1150" on="1"/>
        <pt x="912" y="1400" on="1"/>
        <pt x="1100" y="1400" on="1"/>
        <pt x="1100" y="1150" on="1"/>
        <pt x="1100" y="962" on="0"/>
        <pt x="800" y="962" on="1"/>
        <pt x="200" y="962" on="1"/>
      </contour>
    </TTGlyph>
    <TTGlyph name="uni178B" xMin="80" yMin="0" xMax="1100" yMax="1400">
      <contour>
        <pt x="200" y="1015" on="1"/>
        <pt x="200" y="1062" on="0"/>
        <pt x="80" y="1062" on="1"/>
        <pt x="80" y="1200" on="1"/>
        <pt x="238" y="1200" on="1"/>
        <pt x="388" y="1200" on="0"/>
        <pt x="388" y="1098" on="1"/>
        <pt x="388" y="323" on="1"/>
        <pt x="388" y="138" on="0"/>
        <pt x="650" y="138" on="1"/>
        <pt x="912" y="138" on="0"/>
        <pt x="912" y="323" on="1"/>
        <pt x="912" y="746" on="1"/>
        <pt x="645" y="955" on="1"/>
        <pt x="614" y="984" on="0"/>
        <pt x="614" y="1012" on="1"/>
        <pt x="614" y="1033" on="0"/>
        <pt x="630" y="1053" on="1"/>
        <pt x="667" y="1102" on="1"/>
        <pt x="742" y="1200" on="1"/>
        <pt x="842" y="1200" on="1"/>
        <pt x="912" y="1200" on="0"/>
        <pt x="912" y="1250" on="1"/>
        <pt x="912" y="1400" on="1"/>
        <pt x="1100" y="1400" on="1"/>
        <pt x="1100" y="1250" on="1"/>
        <pt x="1100" y="1062" on="0"/>
        <pt x="842" y="1062" on="1"/>
        <pt x="742" y="1062" on="1"/>
        <pt x="1100" y="840" on="1"/>
        <pt x="1100" y="323" on="1"/>
        <pt x="1100" y="0" on="0"/>
        <pt x="650" y="0" on="1"/>
        <pt x="200" y="0" on="0"/>
        <pt x="200" y="323" on="1"/>
      </contour>
    </TTGlyph>
    <TTGlyph name="uni178C" xMin="200" yMin="-50" xMax="1100" yMax="1200">
      <contour>
        <pt x="912" y="153" on="1"/>
        <pt x="897" y="143" on="0"/>
        <pt x="880" y="133" on="1"/>
        <pt x="660" y="0" on="0"/>
        <pt x="500" y="0" on="1"/>
        <pt x="340" y="0" on="0"/>
        <pt x="200" y="185" on="0"/>
        <pt x="200" y="323" on="1"/>
        <pt x="200" y="586" on="1"/>
        <pt x="556" y="636" on="1"/>
        <pt x="912" y="687" on="0"/>
        <pt x="912" y="877" on="1"/>
        <pt x="912" y="923" on="1"/>
        <pt x="912" y="1050" on="0"/>
        <pt x="840" y="1050" on="1"/>
        <pt x="791" y="1050" on="0"/>
        <pt x="709" y="956" on="1"/>
        <pt x="682" y="925" on="0"/>
        <pt x="650" y="925" on="1"/>
        <pt x="618" y="925" on="0"/>
        <pt x="591" y="956" on="1"/>
        <pt x="510" y="1050" on="0"/>
        <pt x="461" y="1050" on="1"/>
        <pt x="388" y="1050" on="0"/>
        <pt x="388" y="923" on="1"/>
        <pt x="388" y="897" on="1"/>
        <pt x="388" y="863" on="0"/>
        <pt x="488" y="863" on="1"/>
        <pt x="488" y="719" on="1"/>
        <pt x="338" y="719" on="1"/>
        <pt x="200" y="719" on="0"/>
        <pt x="200" y="863" on="1"/>
        <pt x="200" y="923" on="1"/>
        <pt x="200" y="1036" on="0"/>
        <pt x="275" y="1118" on="1"/>
        <pt x="350" y="1200" on="0"/>
        <pt x="445" y="1200" on="1"/>
        <pt x="539" y="1200" on="0"/>
        <pt x="650" y="1076" on="1"/>
        <pt x="762" y="1200" on="0"/>
        <pt x="857" y="1200" on="1"/>
        <pt x="951" y="1200" on="0"/>
        <pt x="1026" y="1118" on="1"/>
        <pt x="1100" y="1036" on="0"/>
        <pt x="1100" y="923" on="1"/>
        <pt x="1100" y="877" on="1"/>
        <pt x="1100" y="575" on="0"/>
        <pt x="566" y="499" on="1"/>
        <pt x="388" y="473" on="1"/>
        <pt x="388" y="323" on="1"/>
        <pt x="388" y="231" on="0"/>
        <pt x="445" y="138" on="0"/>
        <pt x="515" y="138" on="1"/>
        <pt x="585" y="138" on="0"/>
        <pt x="912" y="341" on="0"/>
        <pt x="912" y="403" on="1"/>
        <pt x="912" y="480" on="1"/>
        <pt x="1100" y="480" on="1"/>
        <pt x="1100" y="-50" on="1"/>
        <pt x="912" y="-50" on="1"/>
      </contour>
    </TTGlyph>
    <TTGlyph name="uni178D" xMin="200" yMin="0" xMax="1700" yMax="1200">
      <contour>
        <pt x="388" y="310" on="1"/>
        <pt x="388" y="138" on="1"/>
        <pt x="480" y="138" on="0"/>
        <pt x="480" y="249" on="1"/>
        <pt x="480" y="310" on="0"/>
      </contour>
      <contour>
        <pt x="200" y="923" on="1"/>
        <pt x="200" y="1036" on="0"/>
        <pt x="275" y="1118" on="1"/>
        <pt x="350" y="1200" on="0"/>
        <pt x="445" y="1200" on="1"/>
        <pt x="539" y="1200" on="0"/>
        <pt x="650" y="1076" on="1"/>
        <pt x="762" y="1200" on="0"/>
        <pt x="857" y="1200" on="1"/>
        <pt x="951" y="1200" on="0"/>
        <pt x="1026" y="1118" on="1"/>
        <pt x="1100" y="1036" on="0"/>
        <pt x="1100" y="923" on="1"/>
        <pt x="1100" y="400" on="1"/>
        <pt x="1236" y="400" on="1"/>
        <pt x="1278" y="323" on="1"/>
        <pt x="1328" y="231" on="0"/>
        <pt x="1395" y="138" on="0"/>
        <pt x="1420" y="138" on="1"/>
        <pt x="1445" y="138" on="0"/>
        <pt x="1512" y="231" on="0"/>
        <pt x="1512" y="323" on="1"/>
        <pt x="1512" y="806" on="1"/>
        <pt x="1407" y="905" on="1"/>
        <pt x="1355" y="955" on="1"/>
        <pt x="1324" y="984" on="0"/>
        <pt x="1324" y="1012" on="1"/>
        <pt x="1324" y="1033" on="0"/>
        <pt x="1340" y="1053" on="1"/>
        <pt x="1377" y="1102" on="1"/>
        <pt x="1452" y="1200" on="1"/>
        <pt x="1700" y="1200" on="1"/>
        <pt x="1700" y="1062" on="1"/>
        <pt x="1452" y="1062" on="1"/>
        <pt x="1700" y="840" on="1"/>
        <pt x="1700" y="323" on="1"/>
        <pt x="1700" y="185" on="0"/>
        <pt x="1550" y="0" on="0"/>
        <pt x="1420" y="0" on="1"/>
        <pt x="1290" y="0" on="0"/>
        <pt x="1215" y="93" on="1"/>
        <pt x="1157" y="164" on="0"/>
        <pt x="1114" y="262" on="1"/>
        <pt x="1100" y="262" on="1"/>
        <pt x="1100" y="0" on="1"/>
        <pt x="912" y="0" on="1"/>
        <pt x="912" y="923" on="1"/>
        <pt x="912" y="1050" on="0"/>
        <pt x="840" y="1050" on="1"/>
        <pt x="791" y="1050" on="0"/>
        <pt x="709" y="956" on="1"/>
        <pt x="682" y="925" on="0"/>
        <pt x="650" y="925" on="1"/>
        <pt x="618" y="925" on="0"/>
        <pt x="591" y="956" on="1"/>
        <pt x="510" y="1050" on="0"/>
        <pt x="461" y="1050" on="1"/>
        <pt x="388" y="1050" on="0"/>
        <pt x="388" y="923" on="1"/>
        <pt x="388" y="448" on="1"/>
        <pt x="598" y="448" on="0"/>
        <pt x="598" y="249" on="1"/>
        <pt x="598" y="0" on="0"/>
        <pt x="388" y="0" on="1"/>
        <pt x="200" y="0" on="0"/>
        <pt x="200" y="122" on="1"/>
      </contour>
    </TTGlyph>
    <TTGlyph name="uni178E" xMin="200" yMin="0" xMax="2338" yMax="1200">
      <contour>
        <pt x="388" y="310" on="1"/>
        <pt x="388" y="138" on="1"/>
        <pt x="480" y="138" on="0"/>
        <pt x="480" y="249" on="1"/>
        <pt x="480" y="310" on="0"/>
      </contour>
      <contour>
        <pt x="2338" y="0" on="1"/>
        <pt x="2150" y="0" on="1"/>
        <pt x="2150" y="877" on="1"/>
        <pt x="2150" y="1062" on="0"/>
        <pt x="1919" y="1062" on="1"/>
        <pt x="1688" y="1062" on="0"/>
        <pt x="1688" y="877" on="1"/>
        <pt x="1688" y="0" on="1"/>
        <pt x="1470" y="0" on="1"/>
        <pt x="1270" y="182" on="1"/>
        <pt x="1069" y="0" on="1"/>
        <pt x="850" y="0" on="1"/>
        <pt x="850" y="877" on="1"/>
        <pt x="850" y="1062" on="0"/>
        <pt x="619" y="1062" on="1"/>
        <pt x="388" y="1062" on="0"/>
        <pt x="388" y="877" on="1"/>
        <pt x="388" y="448" on="1"/>
        <pt x="598" y="448" on="0"/>
        <pt x="598" y="249" on="1"/>
        <pt x="598" y="0" on="0"/>
        <pt x="388" y="0" on="1"/>
        <pt x="200" y="0" on="0"/>
        <pt x="200" y="122" on="1"/>
        <pt x="200" y="877" on="1"/>
        <pt x="200" y="1200" on="0"/>
        <pt x="619" y="1200" on="1"/>
        <pt x="1038" y="1200" on="0"/>
        <pt x="1038" y="877" on="1"/>
        <pt x="1038" y="166" on="1"/>
        <pt x="1270" y="377" on="1"/>
        <pt x="1500" y="167" on="1"/>
        <pt x="1500" y="877" on="1"/>
        <pt x="1500" y="1200" on="0"/>
        <pt x="1919" y="1200" on="1"/>
        <pt x="2338" y="1200" on="0"/>
        <pt x="2338" y="877" on="1"/>
      </contour>
    </TTGlyph>
    <TTGlyph name="uni178F" xMin="200" yMin="0" xMax="1100" yMax="1200">
      <contour>
        <pt x="1100" y="1200" on="1"/>
        <pt x="1100" y="1062" on="1"/>
        <pt x="200" y="1062" on="1"/>
        <pt x="200" y="1200" on="1"/>
      </contour>
      <contour>
        <pt x="388" y="310" on="1"/>
        <pt x="388" y="138" on="1"/>
        <pt x="480" y="138" on="0"/>
        <pt x="480" y="249" on="1"/>
        <pt x="480" y="310" on="0"/>
      </contour>
      <contour>
        <pt x="1100" y="0" on="1"/>
        <pt x="912" y="0" on="1"/>
        <pt x="912" y="600" on="1"/>
        <pt x="912" y="785" on="0"/>
        <pt x="650" y="785" on="1"/>
        <pt x="388" y="785" on="0"/>
        <pt x="388" y="600" on="1"/>
        <pt x="388" y="448" on="1"/>
        <pt x="598" y="448" on="0"/>
        <pt x="598" y="249" on="1"/>
        <pt x="598" y="0" on="0"/>
        <pt x="388" y="0" on="1"/>
        <pt x="200" y="0" on="0"/>
        <pt x="200" y="122" on="1"/>
        <pt x="200" y="600" on="1"/>
        <pt x="200" y="923" on="0"/>
        <pt x="650" y="923" on="1"/>
        <pt x="1100" y="923" on="0"/>
        <pt x="1100" y="600" on="1"/>
      </contour>
    </TTGlyph>
    <TTGlyph name="uni1790" xMin="100" yMin="0" xMax="1100" yMax="1400">
      <contour>
        <pt x="912" y="640" on="1"/>
        <pt x="912" y="762" on="1"/>
        <pt x="820" y="762" on="0"/>
        <pt x="820" y="701" on="1"/>
        <pt x="820" y="640" on="0"/>
      </contour>
      <contour>
        <pt x="200" y="786" on="1"/>
        <pt x="172" y="822" on="1"/>
        <pt x="100" y="914" on="0"/>
        <pt x="100" y="955" on="1"/>
        <pt x="100" y="992" on="0"/>
        <pt x="118" y="1017" on="1"/>
        <pt x="258" y="1200" on="1"/>
        <pt x="800" y="1200" on="1"/>
        <pt x="912" y="1200" on="0"/>
        <pt x="912" y="1250" on="1"/>
        <pt x="912" y="1400" on="1"/>
        <pt x="1100" y="1400" on="1"/>
        <pt x="1100" y="1250" on="1"/>
        <pt x="1100" y="1062" on="0"/>
        <pt x="800" y="1062" on="1"/>
        <pt x="263" y="1062" on="1"/>
        <pt x="242" y="1037" on="1"/>
        <pt x="237" y="1032" on="0"/>
        <pt x="237" y="1024" on="1"/>
        <pt x="237" y="992" on="0"/>
        <pt x="304" y="916" on="1"/>
        <pt x="388" y="820" on="1"/>
        <pt x="388" y="323" on="1"/>
        <pt x="388" y="138" on="0"/>
        <pt x="650" y="138" on="1"/>
        <pt x="912" y="138" on="0"/>
        <pt x="912" y="323" on="1"/>
        <pt x="912" y="502" on="1"/>
        <pt x="702" y="502" on="0"/>
        <pt x="702" y="701" on="1"/>
        <pt x="702" y="900" on="0"/>
        <pt x="912" y="900" on="1"/>
        <pt x="1100" y="900" on="0"/>
        <pt x="1100" y="778" on="1"/>
        <pt x="1100" y="323" on="1"/>
        <pt x="1100" y="0" on="0"/>
        <pt x="650" y="0" on="1"/>
        <pt x="200" y="0" on="0"/>
        <pt x="200" y="323" on="1"/>
      </contour>
    </TTGlyph>
    <TTGlyph name="uni1791" xMin="200" yMin="0" xMax="1100" yMax="1200">
      <contour>
        <pt x="1038" y="467" on="1"/>
        <pt x="1038" y="323" on="1"/>
        <pt x="1038" y="0" on="0"/>
        <pt x="644" y="0" on="1"/>
        <pt x="250" y="0" on="0"/>
        <pt x="250" y="323" on="1"/>
        <pt x="250" y="480" on="1"/>
        <pt x="438" y="480" on="1"/>
        <pt x="438" y="323" on="1"/>
        <pt x="438" y="138" on="0"/>
        <pt x="644" y="138" on="1"/>
        <pt x="850" y="138" on="0"/>
        <pt x="850" y="323" on="1"/>
        <pt x="850" y="482" on="1"/>
        <pt x="734" y="499" on="1"/>
        <pt x="200" y="575" on="0"/>
        <pt x="200" y="877" on="1"/>
        <pt x="200" y="1015" on="0"/>
        <pt x="300" y="1108" on="1"/>
        <pt x="400" y="1200" on="0"/>
        <pt x="650" y="1200" on="1"/>
        <pt x="900" y="1200" on="0"/>
        <pt x="1000" y="1108" on="1"/>
        <pt x="1100" y="1015" on="0"/>
        <pt x="1100" y="897" on="1"/>
        <pt x="1100" y="847" on="1"/>
        <pt x="912" y="847" on="1"/>
        <pt x="912" y="897" on="1"/>
        <pt x="912" y="969" on="0"/>
        <pt x="853" y="1016" on="1"/>
        <pt x="795" y="1062" on="0"/>
        <pt x="650" y="1062" on="1"/>
        <pt x="505" y="1062" on="0"/>
        <pt x="446" y="1016" on="1"/>
        <pt x="388" y="969" on="0"/>
        <pt x="388" y="877" on="1"/>
        <pt x="388" y="687" on="0"/>
        <pt x="744" y="636" on="1"/>
        <pt x="858" y="620" on="1"/>
        <pt x="867" y="644" on="0"/>
        <pt x="887" y="664" on="1"/>
        <pt x="923" y="700" on="0"/>
        <pt x="975" y="700" on="1"/>
        <pt x="1027" y="700" on="0"/>
        <pt x="1100" y="627" on="0"/>
        <pt x="1100" y="575" on="1"/>
        <pt x="1100" y="523" on="0"/>
        <pt x="1064" y="487" on="1"/>
        <pt x="1052" y="475" on="0"/>
      </contour>
    </TTGlyph>
    <TTGlyph name="uni1792" xMin="100" yMin="0" xMax="1100" yMax="1200">
      <contour>
        <pt x="912" y="640" on="1"/>
        <pt x="912" y="762" on="1"/>
        <pt x="820" y="762" on="0"/>
        <pt x="820" y="701" on="1"/>
        <pt x="820" y="640" on="0"/>
      </contour>
      <contour>
        <pt x="1100" y="0" on="1"/>
        <pt x="882" y="0" on="1"/>
        <pt x="651" y="210" on="1"/>
        <pt x="419" y="0" on="1"/>
        <pt x="200" y="0" on="1"/>
        <pt x="200" y="786" on="1"/>
        <pt x="172" y="822" on="1"/>
        <pt x="100" y="914" on="0"/>
        <pt x="100" y="955" on="1"/>
        <pt x="100" y="992" on="0"/>
        <pt x="118" y="1017" on="1"/>
        <pt x="258" y="1200" on="1"/>
        <pt x="1100" y="1200" on="1"/>
        <pt x="1100" y="1062" on="1"/>
        <pt x="263" y="1062" on="1"/>
        <pt x="242" y="1037" on="1"/>
        <pt x="237" y="1032" on="0"/>
        <pt x="237" y="1024" on="1"/>
        <pt x="237" y="992" on="0"/>
        <pt x="304" y="916" on="1"/>
        <pt x="388" y="820" on="1"/>
        <pt x="388" y="166" on="1"/>
        <pt x="651" y="405" on="1"/>
        <pt x="912" y="167" on="1"/>
        <pt x="912" y="502" on="1"/>
        <pt x="702" y="502" on="0"/>
        <pt x="702" y="701" on="1"/>
        <pt x="702" y="900" on="0"/>
        <pt x="912" y="900" on="1"/>
        <pt x="1100" y="900" on="0"/>
        <pt x="1100" y="778" on="1"/>
      </contour>
    </TTGlyph>
    <TTGlyph name="uni1793" xMin="200" yMin="0" xMax="1100" yMax="1200">
      <contour>
        <pt x="734" y="499" on="1"/>
        <pt x="200" y="575" on="0"/>
        <pt x="200" y="877" on="1"/>
        <pt x="200" y="1015" on="0"/>
        <pt x="300" y="1108" on="1"/>
        <pt x="400" y="1200" on="0"/>
        <pt x="650" y="1200" on="1"/>
        <pt x="900" y="1200" on="0"/>
        <pt x="1000" y="1108" on="1"/>
        <pt x="1100" y="1015" on="0"/>
        <pt x="1100" y="897" on="1"/>
        <pt x="1100" y="863" on="1"/>
        <pt x="1100" y="719" on="0"/>
        <pt x="962" y="719" on="1"/>
        <pt x="812" y="719" on="1"/>
        <pt x="812" y="863" on="1"/>
        <pt x="912" y="863" on="0"/>
        <pt x="912" y="897" on="1"/>
        <pt x="912" y="969" on="0"/>
        <pt x="853" y="1016" on="1"/>
        <pt x="795" y="1062" on="0"/>
        <pt x="650" y="1062" on="1"/>
        <pt x="505" y="1062" on="0"/>
        <pt x="446" y="1016" on="1"/>
        <pt x="388" y="969" on="0"/>
        <pt x="388" y="877" on="1"/>
        <pt x="388" y="687" on="0"/>
        <pt x="744" y="636" on="1"/>
        <pt x="1100" y="586" on="0"/>
        <pt x="1100" y="363" on="1"/>
        <pt x="1100" y="283" on="1"/>
        <pt x="1100" y="155" on="0"/>
        <pt x="950" y="0" on="0"/>
        <pt x="820" y="0" on="1"/>
        <pt x="690" y="0" on="0"/>
        <pt x="615" y="93" on="1"/>
        <pt x="557" y="164" on="0"/>
        <pt x="464" y="212" on="0"/>
        <pt x="388" y="212" on="1"/>
        <pt x="388" y="0" on="1"/>
        <pt x="200" y="0" on="1"/>
        <pt x="200" y="504" on="1"/>
        <pt x="388" y="503" on="1"/>
        <pt x="388" y="350" on="1"/>
        <pt x="566" y="350" on="0"/>
        <pt x="728" y="231" on="0"/>
        <pt x="795" y="138" on="0"/>
        <pt x="820" y="138" on="1"/>
        <pt x="845" y="138" on="0"/>
        <pt x="912" y="201" on="0"/>
        <pt x="912" y="273" on="1"/>
        <pt x="912" y="363" on="1"/>
        <pt x="912" y="473" on="0"/>
      </contour>
    </TTGlyph>
    <TTGlyph name="uni1794" xMin="59" yMin="0" xMax="1100" yMax="1200">
      <contour>
        <pt x="200" y="806" on="1"/>
        <pt x="120" y="905" on="1"/>
        <pt x="80" y="955" on="1"/>
        <pt x="59" y="980" on="0"/>
        <pt x="59" y="1005" on="1"/>
        <pt x="59" y="1029" on="0"/>
        <pt x="78" y="1053" on="1"/>
        <pt x="115" y="1102" on="1"/>
        <pt x="190" y="1200" on="1"/>
        <pt x="438" y="1200" on="1"/>
        <pt x="438" y="1062" on="1"/>
        <pt x="190" y="1062" on="1"/>
        <pt x="388" y="840" on="1"/>
        <pt x="388" y="323" on="1"/>
        <pt x="388" y="138" on="0"/>
        <pt x="650" y="138" on="1"/>
        <pt x="912" y="138" on="0"/>
        <pt x="912" y="323" on="1"/>
        <pt x="912" y="806" on="1"/>
        <pt x="807" y="905" on="1"/>
        <pt x="755" y="955" on="1"/>
        <pt x="724" y="984" on="0"/>
        <pt x="724" y="1012" on="1"/>
        <pt x="724" y="1033" on="0"/>
        <pt x="740" y="1053" on="1"/>
        <pt x="777" y="1102" on="1"/>
        <pt x="852" y="1200" on="1"/>
        <pt x="1100" y="1200" on="1"/>
        <pt x="1100" y="1062" on="1"/>
        <pt x="852" y="1062" on="1"/>
        <pt x="1100" y="840" on="1"/>
        <pt x="1100" y="323" on="1"/>
        <pt x="1100" y="0" on="0"/>
        <pt x="650" y="0" on="1"/>
        <pt x="200" y="0" on="0"/>
        <pt x="200" y="323" on="1"/>
      </contour>
    </TTGlyph>
    <TTGlyph name="uni1794.a" xMin="100" yMin="-120" xMax="1150" yMax="1200">
      <contour>
        <pt x="1100" y="-120" on="1"/>
        <pt x="912" y="-120" on="1"/>
        <pt x="912" y="118" on="1"/>
        <pt x="743" y="0" on="0"/>
        <pt x="550" y="0" on="1"/>
        <pt x="360" y="0" on="0"/>
        <pt x="200" y="185" on="0"/>
        <pt x="200" y="323" on="1"/>
        <pt x="200" y="786" on="1"/>
        <pt x="172" y="822" on="1"/>
        <pt x="100" y="914" on="0"/>
        <pt x="100" y="955" on="1"/>
        <pt x="100" y="992" on="0"/>
        <pt x="118" y="1017" on="1"/>
        <pt x="258" y="1200" on="1"/>
        <pt x="1150" y="1200" on="1"/>
        <pt x="1150" y="1062" on="1"/>
        <pt x="263" y="1062" on="1"/>
        <pt x="242" y="1037" on="1"/>
        <pt x="237" y="1032" on="0"/>
        <pt x="237" y="1024" on="1"/>
        <pt x="237" y="992" on="0"/>
        <pt x="304" y="916" on="1"/>
        <pt x="388" y="820" on="1"/>
        <pt x="388" y="323" on="1"/>
        <pt x="388" y="231" on="0"/>
        <pt x="465" y="138" on="0"/>
        <pt x="550" y="138" on="1"/>
        <pt x="645" y="138" on="0"/>
        <pt x="912" y="291" on="0"/>
        <pt x="912" y="383" on="1"/>
        <pt x="912" y="900" on="1"/>
        <pt x="1100" y="900" on="1"/>
      </contour>
    </TTGlyph>
    <TTGlyph name="uni179417C917B6" xMin="100" yMin="-120" xMax="1688" yMax="1700">
      <contour>
        <pt x="912" y="-120" on="1"/>
        <pt x="912" y="118" on="1"/>
        <pt x="743" y="0" on="0"/>
        <pt x="550" y="0" on="1"/>
        <pt x="360" y="0" on="0"/>
        <pt x="200" y="185" on="0"/>
        <pt x="200" y="323" on="1"/>
        <pt x="200" y="786" on="1"/>
        <pt x="172" y="822" on="1"/>
        <pt x="100" y="914" on="0"/>
        <pt x="100" y="955" on="1"/>
        <pt x="100" y="992" on="0"/>
        <pt x="118" y="1017" on="1"/>
        <pt x="258" y="1200" on="1"/>
        <pt x="1368" y="1200" on="1"/>
        <pt x="1536" y="1200" on="0"/>
        <pt x="1688" y="1068" on="0"/>
        <pt x="1688" y="937" on="1"/>
        <pt x="1688" y="0" on="1"/>
        <pt x="1500" y="0" on="1"/>
        <pt x="1500" y="937" on="1"/>
        <pt x="1500" y="1009" on="0"/>
        <pt x="1443" y="1062" on="0"/>
        <pt x="1368" y="1062" on="1"/>
        <pt x="263" y="1062" on="1"/>
        <pt x="242" y="1037" on="1"/>
        <pt x="237" y="1032" on="0"/>
        <pt x="237" y="1024" on="1"/>
        <pt x="237" y="992" on="0"/>
        <pt x="304" y="916" on="1"/>
        <pt x="388" y="820" on="1"/>
        <pt x="388" y="323" on="1"/>
        <pt x="388" y="231" on="0"/>
        <pt x="465" y="138" on="0"/>
        <pt x="550" y="138" on="1"/>
        <pt x="645" y="138" on="0"/>
        <pt x="912" y="291" on="0"/>
        <pt x="912" y="383" on="1"/>
        <pt x="912" y="900" on="1"/>
        <pt x="1100" y="900" on="1"/>
        <pt x="1100" y="-120" on="1"/>
      </contour>
      <contour>
        <pt x="420" y="1300" on="1"/>
        <pt x="420" y="1700" on="1"/>
        <pt x="570" y="1700" on="1"/>
        <pt x="570" y="1300" on="1"/>
      </contour>
      <contour>
        <pt x="730" y="1300" on="1"/>
        <pt x="730" y="1700" on="1"/>
        <pt x="880" y="1700" on="1"/>
        <pt x="880" y="1300" on="1"/>
      </contour>
    </TTGlyph>
    <TTGlyph name="uni179417C917C5" xMin="100" yMin="-120" xMax="1688" yMax="1750">
      <contour>
        <pt x="912" y="-120" on="1"/>
        <pt x="912" y="118" on="1"/>
        <pt x="743" y="0" on="0"/>
        <pt x="550" y="0" on="1"/>
        <pt x="360" y="0" on="0"/>
        <pt x="200" y="185" on="0"/>
        <pt x="200" y="323" on="1"/>
        <pt x="200" y="786" on="1"/>
        <pt x="172" y="822" on="1"/>
        <pt x="100" y="914" on="0"/>
        <pt x="100" y="955" on="1"/>
        <pt x="100" y="992" on="0"/>
        <pt x="118" y="1017" on="1"/>
        <pt x="258" y="1200" on="1"/>
        <pt x="1368" y="1200" on="1"/>
        <pt x="1536" y="1200" on="0"/>
        <pt x="1688" y="1068" on="0"/>
        <pt x="1688" y="937" on="1"/>
        <pt x="1688" y="0" on="1"/>
        <pt x="1500" y="0" on="1"/>
        <pt x="1500" y="937" on="1"/>
        <pt x="1500" y="1009" on="0"/>
        <pt x="1443" y="1062" on="0"/>
        <pt x="1368" y="1062" on="1"/>
        <pt x="263" y="1062" on="1"/>
        <pt x="242" y="1037" on="1"/>
        <pt x="237" y="1032" on="0"/>
        <pt x="237" y="1024" on="1"/>
        <pt x="237" y="992" on="0"/>
        <pt x="304" y="916" on="1"/>
        <pt x="388" y="820" on="1"/>
        <pt x="388" y="323" on="1"/>
        <pt x="388" y="231" on="0"/>
        <pt x="465" y="138" on="0"/>
        <pt x="550" y="138" on="1"/>
        <pt x="645" y="138" on="0"/>
        <pt x="912" y="291" on="0"/>
        <pt x="912" y="383" on="1"/>
        <pt x="912" y="900" on="1"/>
        <pt x="1100" y="900" on="1"/>
        <pt x="1100" y="-120" on="1"/>
      </contour>
      <contour>
        <pt x="420" y="1300" on="1"/>
        <pt x="420" y="1700" on="1"/>
        <pt x="570" y="1700" on="1"/>
        <pt x="570" y="1300" on="1"/>
      </contour>
      <contour>
        <pt x="730" y="1300" on="1"/>
        <pt x="730" y="1700" on="1"/>
        <pt x="880" y="1700" on="1"/>
        <pt x="880" y="1300" on="1"/>
      </contour>
      <contour>
        <pt x="1500" y="1537" on="1"/>
        <pt x="1500" y="1579" on="0"/>
        <pt x="1473" y="1612" on="0"/>
        <pt x="1428" y="1612" on="1"/>
        <pt x="1300" y="1612" on="1"/>
        <pt x="1300" y="1750" on="1"/>
        <pt x="1428" y="1750" on="1"/>
        <pt x="1586" y="1750" on="0"/>
        <pt x="1688" y="1638" on="0"/>
        <pt x="1688" y="1537" on="1"/>
        <pt x="1688" y="1237" on="1"/>
        <pt x="1500" y="1239" on="1"/>
      </contour>
    </TTGlyph>
    <TTGlyph name="uni179417D2178A17B6" xMin="100" yMin="-500" xMax="1688" yMax="1200">
      <contour>
        <pt x="986" y="-120" on="1"/>
        <pt x="1070" y="-187" on="0"/>
        <pt x="1070" y="-283" on="1"/>
        <pt x="1070" y="-500" on="1"/>
        <pt x="903" y="-500" on="1"/>
        <pt x="903" y="-283" on="1"/>
        <pt x="903" y="-217" on="0"/>
        <pt x="851" y="-183" on="1"/>
        <pt x="799" y="-150" on="0"/>
        <pt x="670" y="-150" on="1"/>
        <pt x="541" y="-150" on="0"/>
        <pt x="490" y="-183" on="1"/>
        <pt x="437" y="-217" on="0"/>
        <pt x="437" y="-283" on="1"/>
        <pt x="437" y="-366" on="1"/>
        <pt x="437" y="-400" on="0"/>
        <pt x="491" y="-400" on="1"/>
        <pt x="624" y="-400" on="1"/>
        <pt x="624" y="-500" on="1"/>
        <pt x="403" y="-500" on="1"/>
        <pt x="270" y="-500" on="0"/>
        <pt x="270" y="-386" on="1"/>
        <pt x="270" y="-283" on="1"/>
        <pt x="270" y="-184" on="0"/>
        <pt x="359" y="-116" on="1"/>
        <pt x="448" y="-50" on="0"/>
        <pt x="670" y="-50" on="1"/>
        <pt x="822" y="-50" on="0"/>
        <pt x="912" y="-81" on="1"/>
        <pt x="912" y="118" on="1"/>
        <pt x="743" y="0" on="0"/>
        <pt x="550" y="0" on="1"/>
        <pt x="360" y="0" on="0"/>
        <pt x="200" y="185" on="0"/>
        <pt x="200" y="323" on="1"/>
        <pt x="200" y="786" on="1"/>
        <pt x="172" y="822" on="1"/>
        <pt x="100" y="914" on="0"/>
        <pt x="100" y="955" on="1"/>
        <pt x="100" y="992" on="0"/>
        <pt x="118" y="1017" on="1"/>
        <pt x="258" y="1200" on="1"/>
        <pt x="1368" y="1200" on="1"/>
        <pt x="1536" y="1200" on="0"/>
        <pt x="1688" y="1068" on="0"/>
        <pt x="1688" y="937" on="1"/>
        <pt x="1688" y="0" on="1"/>
        <pt x="1500" y="0" on="1"/>
        <pt x="1500" y="937" on="1"/>
        <pt x="1500" y="1009" on="0"/>
        <pt x="1443" y="1062" on="0"/>
        <pt x="1368" y="1062" on="1"/>
        <pt x="263" y="1062" on="1"/>
        <pt x="242" y="1037" on="1"/>
        <pt x="237" y="1032" on="0"/>
        <pt x="237" y="1024" on="1"/>
        <pt x="237" y="992" on="0"/>
        <pt x="304" y="916" on="1"/>
        <pt x="388" y="820" on="1"/>
        <pt x="388" y="323" on="1"/>
        <pt x="388" y="231" on="0"/>
        <pt x="465" y="138" on="0"/>
        <pt x="550" y="138" on="1"/>
        <pt x="645" y="138" on="0"/>
        <pt x="912" y="291" on="0"/>
        <pt x="912" y="383" on="1"/>
        <pt x="912" y="900" on="1"/>
        <pt x="1100" y="900" on="1"/>
        <pt x="1100" y="-120" on="1"/>
      </contour>
    </TTGlyph>
    <TTGlyph name="uni1795" xMin="100" yMin="0" xMax="1100" yMax="1400">
      <contour>
        <pt x="912" y="640" on="1"/>
        <pt x="912" y="762" on="1"/>
        <pt x="820" y="762" on="0"/>
        <pt x="820" y="701" on="1"/>
        <pt x="820" y="640" on="0"/>
      </contour>
      <contour>
        <pt x="1100" y="0" on="1"/>
        <pt x="882" y="0" on="1"/>
        <pt x="651" y="210" on="1"/>
        <pt x="419" y="0" on="1"/>
        <pt x="200" y="0" on="1"/>
        <pt x="200" y="786" on="1"/>
        <pt x="172" y="822" on="1"/>
        <pt x="100" y="914" on="0"/>
        <pt x="100" y="955" on="1"/>
        <pt x="100" y="992" on="0"/>
        <pt x="118" y="1017" on="1"/>
        <pt x="258" y="1200" on="1"/>
        <pt x="800" y="1200" on="1"/>
        <pt x="912" y="1200" on="0"/>
        <pt x="912" y="1250" on="1"/>
        <pt x="912" y="1400" on="1"/>
        <pt x="1100" y="1400" on="1"/>
        <pt x="1100" y="1250" on="1"/>
        <pt x="1100" y="1062" on="0"/>
        <pt x="800" y="1062" on="1"/>
        <pt x="263" y="1062" on="1"/>
        <pt x="242" y="1037" on="1"/>
        <pt x="237" y="1032" on="0"/>
        <pt x="237" y="1024" on="1"/>
        <pt x="237" y="992" on="0"/>
        <pt x="304" y="916" on="1"/>
        <pt x="388" y="820" on="1"/>
        <pt x="388" y="166" on="1"/>
        <pt x="651" y="405" on="1"/>
        <pt x="912" y="167" on="1"/>
        <pt x="912" y="502" on="1"/>
        <pt x="702" y="502" on="0"/>
        <pt x="702" y="701" on="1"/>
        <pt x="702" y="900" on="0"/>
        <pt x="912" y="900" on="1"/>
        <pt x="1100" y="900" on="0"/>
        <pt x="1100" y="778" on="1"/>
      </contour>
    </TTGlyph>
    <TTGlyph name="uni1796" xMin="200" yMin="0" xMax="1100" yMax="1200">
      <contour>
        <pt x="388" y="310" on="1"/>
        <pt x="388" y="138" on="1"/>
        <pt x="480" y="138" on="0"/>
        <pt x="480" y="249" on="1"/>
        <pt x="480" y="310" on="0"/>
      </contour>
      <contour>
        <pt x="200" y="923" on="1"/>
        <pt x="200" y="1036" on="0"/>
        <pt x="275" y="1118" on="1"/>
        <pt x="350" y="1200" on="0"/>
        <pt x="445" y="1200" on="1"/>
        <pt x="539" y="1200" on="0"/>
        <pt x="650" y="1076" on="1"/>
        <pt x="762" y="1200" on="0"/>
        <pt x="857" y="1200" on="1"/>
        <pt x="951" y="1200" on="0"/>
        <pt x="1026" y="1118" on="1"/>
        <pt x="1100" y="1036" on="0"/>
        <pt x="1100" y="923" on="1"/>
        <pt x="1100" y="0" on="1"/>
        <pt x="912" y="0" on="1"/>
        <pt x="912" y="923" on="1"/>
        <pt x="912" y="1050" on="0"/>
        <pt x="840" y="1050" on="1"/>
        <pt x="791" y="1050" on="0"/>
        <pt x="709" y="956" on="1"/>
        <pt x="682" y="925" on="0"/>
        <pt x="650" y="925" on="1"/>
        <pt x="618" y="925" on="0"/>
        <pt x="591" y="956" on="1"/>
        <pt x="510" y="1050" on="0"/>
        <pt x="461" y="1050" on="1"/>
        <pt x="388" y="1050" on="0"/>
        <pt x="388" y="923" on="1"/>
        <pt x="388" y="448" on="1"/>
        <pt x="598" y="448" on="0"/>
        <pt x="598" y="249" on="1"/>
        <pt x="598" y="0" on="0"/>
        <pt x="388" y="0" on="1"/>
        <pt x="200" y="0" on="0"/>
        <pt x="200" y="122" on="1"/>
      </contour>
    </TTGlyph>
    <TTGlyph name="uni1797" xMin="40" yMin="0" xMax="1100" yMax="1200">
      <contour>
        <pt x="1100" y="1200" on="1"/>
        <pt x="1100" y="1062" on="1"/>
        <pt x="200" y="1062" on="1"/>
        <pt x="200" y="1200" on="1"/>
      </contour>
      <contour>
        <pt x="388" y="540" on="0"/>
        <pt x="458" y="348" on="0"/>
        <pt x="458" y="224" on="1"/>
        <pt x="458" y="0" on="0"/>
        <pt x="236" y="0" on="1"/>
        <pt x="80" y="0" on="0"/>
        <pt x="40" y="223" on="1"/>
        <pt x="147" y="264" on="1"/>
        <pt x="181" y="174" on="0"/>
        <pt x="236" y="174" on="1"/>
        <pt x="270" y="174" on="0"/>
        <pt x="270" y="224" on="1"/>
        <pt x="270" y="267" on="0"/>
        <pt x="200" y="507" on="0"/>
        <pt x="200" y="600" on="1"/>
        <pt x="200" y="923" on="0"/>
        <pt x="650" y="923" on="1"/>
        <pt x="1100" y="923" on="0"/>
        <pt x="1100" y="600" on="1"/>
        <pt x="1100" y="0" on="1"/>
        <pt x="912" y="0" on="1"/>
        <pt x="912" y="600" on="1"/>
        <pt x="912" y="785" on="0"/>
        <pt x="650" y="785" on="1"/>
        <pt x="388" y="785" on="0"/>
        <pt x="388" y="600" on="1"/>
      </contour>
    </TTGlyph>
    <TTGlyph name="uni1798" xMin="59" yMin="0" xMax="1100" yMax="1200">
      <contour>
        <pt x="1100" y="323" on="1"/>
        <pt x="1100" y="0" on="0"/>
        <pt x="650" y="0" on="1"/>
        <pt x="200" y="0" on="0"/>
        <pt x="200" y="323" on="1"/>
        <pt x="200" y="806" on="1"/>
        <pt x="120" y="905" on="1"/>
        <pt x="80" y="955" on="1"/>
        <pt x="59" y="980" on="0"/>
        <pt x="59" y="1005" on="1"/>
        <pt x="59" y="1029" on="0"/>
        <pt x="78" y="1053" on="1"/>
        <pt x="115" y="1102" on="1"/>
        <pt x="190" y="1200" on="1"/>
        <pt x="438" y="1200" on="1"/>
        <pt x="438" y="1062" on="1"/>
        <pt x="190" y="1062" on="1"/>
        <pt x="388" y="840" on="1"/>
        <pt x="388" y="669" on="1"/>
        <pt x="912" y="669" on="1"/>
        <pt x="912" y="806" on="1"/>
        <pt x="807" y="905" on="1"/>
        <pt x="755" y="955" on="1"/>
        <pt x="724" y="984" on="0"/>
        <pt x="724" y="1012" on="1"/>
        <pt x="724" y="1033" on="0"/>
        <pt x="740" y="1053" on="1"/>
        <pt x="777" y="1102" on="1"/>
        <pt x="852" y="1200" on="1"/>
        <pt x="1100" y="1200" on="1"/>
        <pt x="1100" y="1062" on="1"/>
        <pt x="852" y="1062" on="1"/>
        <pt x="1100" y="840" on="1"/>
      </contour>
      <contour>
        <pt x="912" y="531" on="1"/>
        <pt x="388" y="531" on="1"/>
        <pt x="388" y="323" on="1"/>
        <pt x="388" y="138" on="0"/>
        <pt x="650" y="138" on="1"/>
        <pt x="912" y="138" on="0"/>
        <pt x="912" y="323" on="1"/>
      </contour>
    </TTGlyph>
    <TTGlyph name="uni1799" xMin="200" yMin="0" xMax="1750" yMax="1200">
      <contour>
        <pt x="200" y="1098" on="1"/>
        <pt x="200" y="1200" on="0"/>
        <pt x="350" y="1200" on="1"/>
        <pt x="529" y="1200" on="1"/>
        <pt x="529" y="1062" on="1"/>
        <pt x="388" y="1062" on="0"/>
        <pt x="388" y="1015" on="1"/>
        <pt x="388" y="323" on="1"/>
        <pt x="388" y="231" on="0"/>
        <pt x="505" y="138" on="0"/>
        <pt x="650" y="138" on="1"/>
        <pt x="795" y="138" on="0"/>
        <pt x="912" y="231" on="0"/>
        <pt x="912" y="323" on="1"/>
        <pt x="912" y="806" on="1"/>
        <pt x="832" y="905" on="1"/>
        <pt x="792" y="955" on="1"/>
        <pt x="771" y="980" on="0"/>
        <pt x="771" y="1005" on="1"/>
        <pt x="771" y="1029" on="0"/>
        <pt x="790" y="1053" on="1"/>
        <pt x="827" y="1102" on="1"/>
        <pt x="902" y="1200" on="1"/>
        <pt x="1150" y="1200" on="1"/>
        <pt x="1150" y="1062" on="1"/>
        <pt x="902" y="1062" on="1"/>
        <pt x="1100" y="840" on="1"/>
        <pt x="1100" y="323" on="1"/>
        <pt x="1100" y="231" on="0"/>
        <pt x="1159" y="185" on="1"/>
        <pt x="1217" y="138" on="0"/>
        <pt x="1331" y="138" on="1"/>
        <pt x="1445" y="138" on="0"/>
        <pt x="1504" y="185" on="1"/>
        <pt x="1562" y="231" on="0"/>
        <pt x="1562" y="323" on="1"/>
        <pt x="1562" y="806" on="1"/>
        <pt x="1457" y="905" on="1"/>
        <pt x="1405" y="955" on="1"/>
        <pt x="1374" y="984" on="0"/>
        <pt x="1374" y="1012" on="1"/>
        <pt x="1374" y="1033" on="0"/>
        <pt x="1390" y="1053" on="1"/>
        <pt x="1427" y="1102" on="1"/>
        <pt x="1502" y="1200" on="1"/>
        <pt x="1750" y="1200" on="1"/>
        <pt x="1750" y="1062" on="1"/>
        <pt x="1502" y="1062" on="1"/>
        <pt x="1750" y="840" on="1"/>
        <pt x="1750" y="323" on="1"/>
        <pt x="1750" y="185" on="0"/>
        <pt x="1550" y="0" on="0"/>
        <pt x="1331" y="0" on="1"/>
        <pt x="1112" y="0" on="0"/>
        <pt x="1012" y="93" on="1"/>
        <pt x="1009" y="95" on="0"/>
        <pt x="1006" y="98" on="1"/>
        <pt x="1003" y="95" on="0"/>
        <pt x="1000" y="93" on="1"/>
        <pt x="900" y="0" on="0"/>
        <pt x="650" y="0" on="1"/>
        <pt x="400" y="0" on="0"/>
        <pt x="200" y="185" on="0"/>
        <pt x="200" y="323" on="1"/>
      </contour>
    </TTGlyph>
    <TTGlyph name="uni179A" xMin="12" yMin="0" xMax="388" yMax="1200">
      <contour>
        <pt x="200" y="310" on="1"/>
        <pt x="158" y="310" on="0"/>
        <pt x="158" y="249" on="1"/>
        <pt x="158" y="138" on="0"/>
        <pt x="200" y="138" on="1"/>
      </contour>
      <contour>
        <pt x="200" y="806" on="1"/>
        <pt x="95" y="905" on="1"/>
        <pt x="43" y="955" on="1"/>
        <pt x="12" y="984" on="0"/>
        <pt x="12" y="1012" on="1"/>
        <pt x="12" y="1033" on="0"/>
        <pt x="28" y="1053" on="1"/>
        <pt x="65" y="1102" on="1"/>
        <pt x="140" y="1200" on="1"/>
        <pt x="388" y="1200" on="1"/>
        <pt x="388" y="1062" on="1"/>
        <pt x="140" y="1062" on="1"/>
        <pt x="388" y="840" on="1"/>
        <pt x="388" y="122" on="1"/>
        <pt x="388" y="0" on="0"/>
        <pt x="294" y="0" on="1"/>
        <pt x="200" y="0" on="1"/>
        <pt x="40" y="0" on="0"/>
        <pt x="40" y="249" on="1"/>
        <pt x="40" y="448" on="0"/>
        <pt x="200" y="448" on="1"/>
      </contour>
    </TTGlyph>
    <TTGlyph name="uni179A17C917B617C6" xMin="12" yMin="-500" xMax="968" yMax="1750">
      <contour>
        <pt x="390" y="-70" on="1"/>
        <pt x="390" y="-500" on="1"/>
        <pt x="202" y="-500" on="1"/>
        <pt x="202" y="-170" on="1"/>
        <pt x="97" y="-170" on="1"/>
        <pt x="97" y="-70" on="1"/>
      </contour>
      <contour>
        <pt x="597" y="1615" on="0"/>
        <pt x="554" y="1592" on="0"/>
        <pt x="530" y="1548" on="0"/>
        <pt x="530" y="1525" on="1"/>
        <pt x="530" y="1502" on="0"/>
        <pt x="554" y="1458" on="0"/>
        <pt x="597" y="1435" on="0"/>
        <pt x="620" y="1435" on="1"/>
        <pt x="643" y="1435" on="0"/>
        <pt x="687" y="1458" on="0"/>
        <pt x="710" y="1502" on="0"/>
        <pt x="710" y="1525" on="1"/>
        <pt x="710" y="1548" on="0"/>
        <pt x="686" y="1592" on="0"/>
        <pt x="643" y="1615" on="0"/>
        <pt x="620" y="1615" on="1"/>
      </contour>
      <contour>
        <pt x="620" y="1750" on="1"/>
        <pt x="677" y="1750" on="0"/>
        <pt x="784" y="1692" on="0"/>
        <pt x="845" y="1584" on="0"/>
        <pt x="845" y="1525" on="1"/>
        <pt x="845" y="1466" on="0"/>
        <pt x="786" y="1359" on="0"/>
        <pt x="679" y="1300" on="0"/>
        <pt x="620" y="1300" on="1"/>
        <pt x="562" y="1300" on="0"/>
        <pt x="455" y="1359" on="0"/>
        <pt x="395" y="1466" on="0"/>
        <pt x="395" y="1525" on="1"/>
        <pt x="395" y="1584" on="0"/>
        <pt x="456" y="1692" on="0"/>
        <pt x="563" y="1750" on="0"/>
      </contour>
      <contour>
        <pt x="200" y="310" on="1"/>
        <pt x="158" y="310" on="0"/>
        <pt x="158" y="249" on="1"/>
        <pt x="158" y="138" on="0"/>
        <pt x="200" y="138" on="1"/>
      </contour>
      <contour>
        <pt x="140" y="1062" on="1"/>
        <pt x="388" y="840" on="1"/>
        <pt x="388" y="122" on="1"/>
        <pt x="388" y="0" on="0"/>
        <pt x="294" y="0" on="1"/>
        <pt x="200" y="0" on="1"/>
        <pt x="40" y="0" on="0"/>
        <pt x="40" y="249" on="1"/>
        <pt x="40" y="448" on="0"/>
        <pt x="200" y="448" on="1"/>
        <pt x="200" y="806" on="1"/>
        <pt x="95" y="905" on="1"/>
        <pt x="43" y="955" on="1"/>
        <pt x="12" y="984" on="0"/>
        <pt x="12" y="1012" on="1"/>
        <pt x="12" y="1033" on="0"/>
        <pt x="28" y="1053" on="1"/>
        <pt x="65" y="1102" on="1"/>
        <pt x="140" y="1200" on="1"/>
        <pt x="648" y="1200" on="1"/>
        <pt x="816" y="1200" on="0"/>
        <pt x="968" y="1068" on="0"/>
        <pt x="968" y="937" on="1"/>
        <pt x="968" y="0" on="1"/>
        <pt x="780" y="0" on="1"/>
        <pt x="780" y="937" on="1"/>
        <pt x="780" y="1009" on="0"/>
        <pt x="723" y="1062" on="0"/>
        <pt x="648" y="1062" on="1"/>
      </contour>
    </TTGlyph>
    <TTGlyph name="uni179B" xMin="200" yMin="0" xMax="1700" yMax="1200">
      <contour>
        <pt x="388" y="310" on="1"/>
        <pt x="388" y="138" on="1"/>
        <pt x="480" y="138" on="0"/>
        <pt x="480" y="249" on="1"/>
        <pt x="480" y="310" on="0"/>
      </contour>
      <contour>
        <pt x="1512" y="806" on="1"/>
        <pt x="1407" y="905" on="1"/>
        <pt x="1355" y="955" on="1"/>
        <pt x="1324" y="984" on="0"/>
        <pt x="1324" y="1012" on="1"/>
        <pt x="1324" y="1033" on="0"/>
        <pt x="1340" y="1053" on="1"/>
        <pt x="1377" y="1102" on="1"/>
        <pt x="1452" y="1200" on="1"/>
        <pt x="1700" y="1200" on="1"/>
        <pt x="1700" y="1062" on="1"/>
        <pt x="1452" y="1062" on="1"/>
        <pt x="1700" y="840" on="1"/>
        <pt x="1700" y="323" on="1"/>
        <pt x="1700" y="0" on="0"/>
        <pt x="1281" y="0" on="1"/>
        <pt x="862" y="0" on="0"/>
        <pt x="862" y="323" on="1"/>
        <pt x="862" y="877" on="1"/>
        <pt x="862" y="1062" on="0"/>
        <pt x="625" y="1062" on="1"/>
        <pt x="388" y="1062" on="0"/>
        <pt x="388" y="877" on="1"/>
        <pt x="388" y="448" on="1"/>
        <pt x="598" y="448" on="0"/>
        <pt x="598" y="249" on="1"/>
        <pt x="598" y="0" on="0"/>
        <pt x="388" y="0" on="1"/>
        <pt x="200" y="0" on="0"/>
        <pt x="200" y="122" on="1"/>
        <pt x="200" y="877" on="1"/>
        <pt x="200" y="1200" on="0"/>
        <pt x="625" y="1200" on="1"/>
        <pt x="1050" y="1200" on="0"/>
        <pt x="1050" y="877" on="1"/>
        <pt x="1050" y="323" on="1"/>
        <pt x="1050" y="138" on="0"/>
        <pt x="1281" y="138" on="1"/>
        <pt x="1512" y="138" on="0"/>
        <pt x="1512" y="323" on="1"/>
      </contour>
    </TTGlyph>
    <TTGlyph name="uni179C" xMin="12" yMin="0" xMax="500" yMax="1400">
      <contour>
        <pt x="200" y="310" on="1"/>
        <pt x="158" y="310" on="0"/>
        <pt x="158" y="249" on="1"/>
        <pt x="158" y="138" on="0"/>
        <pt x="200" y="138" on="1"/>
      </contour>
      <contour>
        <pt x="200" y="806" on="1"/>
        <pt x="95" y="905" on="1"/>
        <pt x="43" y="955" on="1"/>
        <pt x="12" y="984" on="0"/>
        <pt x="12" y="1012" on="1"/>
        <pt x="12" y="1033" on="0"/>
        <pt x="28" y="1053" on="1"/>
        <pt x="65" y="1102" on="1"/>
        <pt x="140" y="1200" on="1"/>
        <pt x="240" y="1200" on="1"/>
        <pt x="312" y="1200" on="0"/>
        <pt x="312" y="1250" on="1"/>
        <pt x="312" y="1400" on="1"/>
        <pt x="500" y="1400" on="1"/>
        <pt x="500" y="1250" on="1"/>
        <pt x="500" y="1062" on="0"/>
        <pt x="240" y="1062" on="1"/>
        <pt x="140" y="1062" on="1"/>
        <pt x="388" y="840" on="1"/>
        <pt x="388" y="122" on="1"/>
        <pt x="388" y="0" on="0"/>
        <pt x="294" y="0" on="1"/>
        <pt x="200" y="0" on="1"/>
        <pt x="40" y="0" on="0"/>
        <pt x="40" y="249" on="1"/>
        <pt x="40" y="448" on="0"/>
        <pt x="200" y="448" on="1"/>
      </contour>
    </TTGlyph>
    <TTGlyph name="uni179D" xMin="200" yMin="0" xMax="1200" yMax="1200">
      <contour>
        <pt x="1100" y="1200" on="1"/>
        <pt x="1100" y="1062" on="1"/>
        <pt x="200" y="1062" on="1"/>
        <pt x="200" y="1200" on="1"/>
      </contour>
      <contour>
        <pt x="1100" y="400" on="1"/>
        <pt x="1200" y="400" on="1"/>
        <pt x="1200" y="262" on="1"/>
        <pt x="1100" y="262" on="1"/>
        <pt x="1100" y="0" on="1"/>
        <pt x="912" y="0" on="1"/>
        <pt x="912" y="262" on="1"/>
        <pt x="740" y="262" on="1"/>
        <pt x="740" y="400" on="1"/>
        <pt x="912" y="400" on="1"/>
        <pt x="912" y="600" on="1"/>
        <pt x="912" y="692" on="0"/>
        <pt x="854" y="739" on="1"/>
        <pt x="795" y="785" on="0"/>
        <pt x="650" y="785" on="1"/>
        <pt x="505" y="785" on="0"/>
        <pt x="447" y="739" on="1"/>
        <pt x="388" y="692" on="0"/>
        <pt x="388" y="600" on="1"/>
        <pt x="388" y="320" on="1"/>
        <pt x="457" y="400" on="0"/>
        <pt x="573" y="400" on="1"/>
        <pt x="700" y="400" on="1"/>
        <pt x="700" y="262" on="1"/>
        <pt x="596" y="262" on="1"/>
        <pt x="493" y="262" on="0"/>
        <pt x="450" y="216" on="1"/>
        <pt x="408" y="171" on="0"/>
        <pt x="388" y="86" on="1"/>
        <pt x="388" y="0" on="1"/>
        <pt x="200" y="0" on="1"/>
        <pt x="200" y="600" on="1"/>
        <pt x="200" y="738" on="0"/>
        <pt x="300" y="831" on="1"/>
        <pt x="400" y="923" on="0"/>
        <pt x="650" y="923" on="1"/>
        <pt x="900" y="923" on="0"/>
        <pt x="1000" y="831" on="1"/>
        <pt x="1100" y="738" on="0"/>
        <pt x="1100" y="600" on="1"/>
      </contour>
    </TTGlyph>
    <TTGlyph name="uni179E" xMin="59" yMin="0" xMax="1200" yMax="1200">
      <contour>
        <pt x="912" y="669" on="1"/>
        <pt x="912" y="806" on="1"/>
        <pt x="807" y="905" on="1"/>
        <pt x="755" y="955" on="1"/>
        <pt x="724" y="984" on="0"/>
        <pt x="724" y="1012" on="1"/>
        <pt x="724" y="1033" on="0"/>
        <pt x="740" y="1053" on="1"/>
        <pt x="777" y="1102" on="1"/>
        <pt x="852" y="1200" on="1"/>
        <pt x="1100" y="1200" on="1"/>
        <pt x="1100" y="1062" on="1"/>
        <pt x="852" y="1062" on="1"/>
        <pt x="1100" y="840" on="1"/>
        <pt x="1100" y="669" on="1"/>
        <pt x="1200" y="669" on="1"/>
        <pt x="1200" y="531" on="1"/>
        <pt x="1100" y="531" on="1"/>
        <pt x="1100" y="323" on="1"/>
        <pt x="1100" y="185" on="0"/>
        <pt x="900" y="0" on="0"/>
        <pt x="650" y="0" on="1"/>
        <pt x="400" y="0" on="0"/>
        <pt x="200" y="185" on="0"/>
        <pt x="200" y="323" on="1"/>
        <pt x="200" y="806" on="1"/>
        <pt x="120" y="905" on="1"/>
        <pt x="80" y="955" on="1"/>
        <pt x="59" y="980" on="0"/>
        <pt x="59" y="1005" on="1"/>
        <pt x="59" y="1029" on="0"/>
        <pt x="78" y="1053" on="1"/>
        <pt x="115" y="1102" on="1"/>
        <pt x="190" y="1200" on="1"/>
        <pt x="438" y="1200" on="1"/>
        <pt x="438" y="1062" on="1"/>
        <pt x="190" y="1062" on="1"/>
        <pt x="388" y="840" on="1"/>
        <pt x="388" y="323" on="1"/>
        <pt x="388" y="231" on="0"/>
        <pt x="505" y="138" on="0"/>
        <pt x="650" y="138" on="1"/>
        <pt x="795" y="138" on="0"/>
        <pt x="912" y="231" on="0"/>
        <pt x="912" y="323" on="1"/>
        <pt x="912" y="531" on="1"/>
        <pt x="740" y="531" on="1"/>
        <pt x="740" y="669" on="1"/>
      </contour>
    </TTGlyph>
    <TTGlyph name="uni179F" xMin="200" yMin="0" xMax="1700" yMax="1200">
      <contour>
        <pt x="388" y="310" on="1"/>
        <pt x="388" y="138" on="1"/>
        <pt x="480" y="138" on="0"/>
        <pt x="480" y="249" on="1"/>
        <pt x="480" y="310" on="0"/>
      </contour>
      <contour>
        <pt x="1512" y="806" on="1"/>
        <pt x="1407" y="905" on="1"/>
        <pt x="1355" y="955" on="1"/>
        <pt x="1324" y="984" on="0"/>
        <pt x="1324" y="1012" on="1"/>
        <pt x="1324" y="1033" on="0"/>
        <pt x="1340" y="1053" on="1"/>
        <pt x="1377" y="1102" on="1"/>
        <pt x="1452" y="1200" on="1"/>
        <pt x="1700" y="1200" on="1"/>
        <pt x="1700" y="1062" on="1"/>
        <pt x="1452" y="1062" on="1"/>
        <pt x="1700" y="840" on="1"/>
        <pt x="1700" y="323" on="1"/>
        <pt x="1700" y="0" on="0"/>
        <pt x="1281" y="0" on="1"/>
        <pt x="862" y="0" on="0"/>
        <pt x="862" y="323" on="1"/>
        <pt x="862" y="600" on="1"/>
        <pt x="862" y="785" on="0"/>
        <pt x="625" y="785" on="1"/>
        <pt x="388" y="785" on="0"/>
        <pt x="388" y="600" on="1"/>
        <pt x="388" y="448" on="1"/>
        <pt x="598" y="448" on="0"/>
        <pt x="598" y="249" on="1"/>
        <pt x="598" y="0" on="0"/>
        <pt x="388" y="0" on="1"/>
        <pt x="200" y="0" on="0"/>
        <pt x="200" y="122" on="1"/>
        <pt x="200" y="600" on="1"/>
        <pt x="200" y="738" on="0"/>
        <pt x="300" y="831" on="1"/>
        <pt x="319" y="849" on="0"/>
        <pt x="344" y="863" on="1"/>
        <pt x="310" y="905" on="1"/>
        <pt x="270" y="955" on="1"/>
        <pt x="249" y="980" on="0"/>
        <pt x="249" y="1005" on="1"/>
        <pt x="249" y="1029" on="0"/>
        <pt x="268" y="1053" on="1"/>
        <pt x="305" y="1102" on="1"/>
        <pt x="380" y="1200" on="1"/>
        <pt x="950" y="1200" on="1"/>
        <pt x="950" y="1062" on="1"/>
        <pt x="380" y="1062" on="1"/>
        <pt x="510" y="916" on="1"/>
        <pt x="563" y="923" on="0"/>
        <pt x="625" y="923" on="1"/>
        <pt x="1050" y="923" on="0"/>
        <pt x="1050" y="600" on="1"/>
        <pt x="1050" y="323" on="1"/>
        <pt x="1050" y="138" on="0"/>
        <pt x="1281" y="138" on="1"/>
        <pt x="1512" y="138" on="0"/>
        <pt x="1512" y="323" on="1"/>
      </contour>
    </TTGlyph>
    <TTGlyph name="uni17A0" xMin="59" yMin="0" xMax="1700" yMax="1200">
      <contour>
        <pt x="1512" y="877" on="1"/>
        <pt x="1512" y="969" on="0"/>
        <pt x="1395" y="1062" on="0"/>
        <pt x="1281" y="1062" on="1"/>
        <pt x="1167" y="1062" on="0"/>
        <pt x="1050" y="969" on="0"/>
        <pt x="1050" y="877" on="1"/>
        <pt x="1050" y="323" on="1"/>
        <pt x="1050" y="185" on="0"/>
        <pt x="950" y="92" on="1"/>
        <pt x="850" y="0" on="0"/>
        <pt x="625" y="0" on="1"/>
        <pt x="400" y="0" on="0"/>
        <pt x="300" y="92" on="1"/>
        <pt x="200" y="185" on="0"/>
        <pt x="200" y="323" on="1"/>
        <pt x="200" y="806" on="1"/>
        <pt x="120" y="905" on="1"/>
        <pt x="80" y="955" on="1"/>
        <pt x="59" y="980" on="0"/>
        <pt x="59" y="1005" on="1"/>
        <pt x="59" y="1029" on="0"/>
        <pt x="78" y="1053" on="1"/>
        <pt x="115" y="1102" on="1"/>
        <pt x="190" y="1200" on="1"/>
        <pt x="438" y="1200" on="1"/>
        <pt x="438" y="1062" on="1"/>
        <pt x="190" y="1062" on="1"/>
        <pt x="388" y="840" on="1"/>
        <pt x="388" y="323" on="1"/>
        <pt x="388" y="231" on="0"/>
        <pt x="447" y="184" on="1"/>
        <pt x="505" y="138" on="0"/>
        <pt x="625" y="138" on="1"/>
        <pt x="745" y="138" on="0"/>
        <pt x="804" y="184" on="1"/>
        <pt x="862" y="231" on="0"/>
        <pt x="862" y="323" on="1"/>
        <pt x="862" y="877" on="1"/>
        <pt x="862" y="1015" on="0"/>
        <pt x="1062" y="1200" on="0"/>
        <pt x="1275" y="1200" on="1"/>
        <pt x="1488" y="1200" on="0"/>
        <pt x="1700" y="1038" on="0"/>
        <pt x="1700" y="877" on="1"/>
        <pt x="1700" y="0" on="1"/>
        <pt x="1512" y="0" on="1"/>
      </contour>
    </TTGlyph>
    <TTGlyph name="uni17A1" xMin="200" yMin="-490" xMax="1700" yMax="1200">
      <contour>
        <pt x="1038" y="467" on="1"/>
        <pt x="1038" y="323" on="1"/>
        <pt x="1038" y="0" on="0"/>
        <pt x="644" y="0" on="1"/>
        <pt x="250" y="0" on="0"/>
        <pt x="250" y="323" on="1"/>
        <pt x="250" y="480" on="1"/>
        <pt x="438" y="480" on="1"/>
        <pt x="438" y="323" on="1"/>
        <pt x="438" y="138" on="0"/>
        <pt x="644" y="138" on="1"/>
        <pt x="850" y="138" on="0"/>
        <pt x="850" y="323" on="1"/>
        <pt x="850" y="482" on="1"/>
        <pt x="734" y="499" on="1"/>
        <pt x="200" y="575" on="0"/>
        <pt x="200" y="877" on="1"/>
        <pt x="200" y="1015" on="0"/>
        <pt x="300" y="1108" on="1"/>
        <pt x="400" y="1200" on="0"/>
        <pt x="650" y="1200" on="1"/>
        <pt x="900" y="1200" on="0"/>
        <pt x="1000" y="1108" on="1"/>
        <pt x="1100" y="1015" on="0"/>
        <pt x="1100" y="897" on="1"/>
        <pt x="1100" y="847" on="1"/>
        <pt x="912" y="847" on="1"/>
        <pt x="912" y="897" on="1"/>
        <pt x="912" y="969" on="0"/>
        <pt x="853" y="1016" on="1"/>
        <pt x="795" y="1062" on="0"/>
        <pt x="650" y="1062" on="1"/>
        <pt x="505" y="1062" on="0"/>
        <pt x="446" y="1016" on="1"/>
        <pt x="388" y="969" on="0"/>
        <pt x="388" y="877" on="1"/>
        <pt x="388" y="687" on="0"/>
        <pt x="744" y="636" on="1"/>
        <pt x="858" y="620" on="1"/>
        <pt x="867" y="644" on="0"/>
        <pt x="887" y="664" on="1"/>
        <pt x="923" y="700" on="0"/>
        <pt x="975" y="700" on="1"/>
        <pt x="1027" y="700" on="0"/>
        <pt x="1100" y="627" on="0"/>
        <pt x="1100" y="575" on="1"/>
        <pt x="1100" y="523" on="0"/>
        <pt x="1064" y="487" on="1"/>
        <pt x="1052" y="475" on="0"/>
      </contour>
      <contour>
        <pt x="1512" y="806" on="1"/>
        <pt x="1407" y="905" on="1"/>
        <pt x="1355" y="955" on="1"/>
        <pt x="1324" y="984" on="0"/>
        <pt x="1324" y="1012" on="1"/>
        <pt x="1324" y="1033" on="0"/>
        <pt x="1340" y="1053" on="1"/>
        <pt x="1377" y="1102" on="1"/>
        <pt x="1452" y="1200" on="1"/>
        <pt x="1700" y="1200" on="1"/>
        <pt x="1700" y="1062" on="1"/>
        <pt x="1452" y="1062" on="1"/>
        <pt x="1700" y="840" on="1"/>
        <pt x="1700" y="-490" on="1"/>
        <pt x="1482" y="-490" on="1"/>
        <pt x="1276" y="-303" on="1"/>
        <pt x="1069" y="-490" on="1"/>
        <pt x="850" y="-490" on="1"/>
        <pt x="850" y="-235" on="1"/>
        <pt x="850" y="-194" on="0"/>
        <pt x="750" y="-194" on="1"/>
        <pt x="750" y="-50" on="1"/>
        <pt x="900" y="-50" on="1"/>
        <pt x="1038" y="-50" on="0"/>
        <pt x="1038" y="-194" on="1"/>
        <pt x="1038" y="-324" on="1"/>
        <pt x="1276" y="-108" on="1"/>
        <pt x="1512" y="-323" on="1"/>
      </contour>
    </TTGlyph>
    <TTGlyph name="uni17A2" xMin="59" yMin="0" xMax="1100" yMax="1200">
      <contour>
        <pt x="1100" y="102" on="1"/>
        <pt x="1100" y="0" on="0"/>
        <pt x="950" y="0" on="1"/>
        <pt x="771" y="0" on="1"/>
        <pt x="771" y="138" on="1"/>
        <pt x="912" y="138" on="0"/>
        <pt x="912" y="185" on="1"/>
        <pt x="912" y="531" on="1"/>
        <pt x="388" y="531" on="1"/>
        <pt x="388" y="102" on="1"/>
        <pt x="388" y="0" on="0"/>
        <pt x="238" y="0" on="1"/>
        <pt x="59" y="0" on="1"/>
        <pt x="59" y="138" on="1"/>
        <pt x="200" y="138" on="0"/>
        <pt x="200" y="185" on="1"/>
        <pt x="200" y="806" on="1"/>
        <pt x="120" y="905" on="1"/>
        <pt x="80" y="955" on="1"/>
        <pt x="59" y="980" on="0"/>
        <pt x="59" y="1005" on="1"/>
        <pt x="59" y="1029" on="0"/>
        <pt x="78" y="1053" on="1"/>
        <pt x="115" y="1102" on="1"/>
        <pt x="190" y="1200" on="1"/>
        <pt x="438" y="1200" on="1"/>
        <pt x="438" y="1062" on="1"/>
        <pt x="190" y="1062" on="1"/>
        <pt x="388" y="840" on="1"/>
        <pt x="388" y="669" on="1"/>
        <pt x="912" y="669" on="1"/>
        <pt x="912" y="806" on="1"/>
        <pt x="807" y="905" on="1"/>
        <pt x="755" y="955" on="1"/>
        <pt x="724" y="984" on="0"/>
        <pt x="724" y="1012" on="1"/>
        <pt x="724" y="1033" on="0"/>
        <pt x="740" y="1053" on="1"/>
        <pt x="777" y="1102" on="1"/>
        <pt x="852" y="1200" on="1"/>
        <pt x="1100" y="1200" on="1"/>
        <pt x="1100" y="1062" on="1"/>
        <pt x="852" y="1062" on="1"/>
        <pt x="1100" y="840" on="1"/>
      </contour>
    </TTGlyph>
    <TTGlyph name="uni17A3" xMin="59" yMin="0" xMax="1100" yMax="1200">
      <contour>
        <pt x="1100" y="102" on="1"/>
        <pt x="1100" y="0" on="0"/>
        <pt x="950" y="0" on="1"/>
        <pt x="771" y="0" on="1"/>
        <pt x="771" y="138" on="1"/>
        <pt x="912" y="138" on="0"/>
        <pt x="912" y="185" on="1"/>
        <pt x="912" y="531" on="1"/>
        <pt x="388" y="531" on="1"/>
        <pt x="388" y="102" on="1"/>
        <pt x="388" y="0" on="0"/>
        <pt x="238" y="0" on="1"/>
        <pt x="59" y="0" on="1"/>
        <pt x="59" y="138" on="1"/>
        <pt x="200" y="138" on="0"/>
        <pt x="200" y="185" on="1"/>
        <pt x="200" y="806" on="1"/>
        <pt x="120" y="905" on="1"/>
        <pt x="80" y="955" on="1"/>
        <pt x="59" y="980" on="0"/>
        <pt x="59" y="1005" on="1"/>
        <pt x="59" y="1029" on="0"/>
        <pt x="78" y="1053" on="1"/>
        <pt x="115" y="1102" on="1"/>
        <pt x="190" y="1200" on="1"/>
        <pt x="438" y="1200" on="1"/>
        <pt x="438" y="1062" on="1"/>
        <pt x="190" y="1062" on="1"/>
        <pt x="388" y="840" on="1"/>
        <pt x="388" y="669" on="1"/>
        <pt x="912" y="669" on="1"/>
        <pt x="912" y="806" on="1"/>
        <pt x="807" y="905" on="1"/>
        <pt x="755" y="955" on="1"/>
        <pt x="724" y="984" on="0"/>
        <pt x="724" y="1012" on="1"/>
        <pt x="724" y="1033" on="0"/>
        <pt x="740" y="1053" on="1"/>
        <pt x="777" y="1102" on="1"/>
        <pt x="852" y="1200" on="1"/>
        <pt x="1100" y="1200" on="1"/>
        <pt x="1100" y="1062" on="1"/>
        <pt x="852" y="1062" on="1"/>
        <pt x="1100" y="840" on="1"/>
      </contour>
    </TTGlyph>
    <TTGlyph name="uni17A4" xMin="59" yMin="0" xMax="1700" yMax="1200">
      <contour>
        <pt x="1380" y="1200" on="1"/>
        <pt x="1548" y="1200" on="0"/>
        <pt x="1700" y="1068" on="0"/>
        <pt x="1700" y="937" on="1"/>
        <pt x="1700" y="0" on="1"/>
        <pt x="1512" y="0" on="1"/>
        <pt x="1512" y="937" on="1"/>
        <pt x="1512" y="1009" on="0"/>
        <pt x="1455" y="1062" on="0"/>
        <pt x="1380" y="1062" on="1"/>
        <pt x="1150" y="1062" on="1"/>
        <pt x="1150" y="1200" on="1"/>
      </contour>
      <contour>
        <pt x="1100" y="102" on="1"/>
        <pt x="1100" y="0" on="0"/>
        <pt x="950" y="0" on="1"/>
        <pt x="771" y="0" on="1"/>
        <pt x="771" y="138" on="1"/>
        <pt x="912" y="138" on="0"/>
        <pt x="912" y="185" on="1"/>
        <pt x="912" y="531" on="1"/>
        <pt x="388" y="531" on="1"/>
        <pt x="388" y="102" on="1"/>
        <pt x="388" y="0" on="0"/>
        <pt x="238" y="0" on="1"/>
        <pt x="59" y="0" on="1"/>
        <pt x="59" y="138" on="1"/>
        <pt x="200" y="138" on="0"/>
        <pt x="200" y="185" on="1"/>
        <pt x="200" y="806" on="1"/>
        <pt x="120" y="905" on="1"/>
        <pt x="80" y="955" on="1"/>
        <pt x="59" y="980" on="0"/>
        <pt x="59" y="1005" on="1"/>
        <pt x="59" y="1029" on="0"/>
        <pt x="78" y="1053" on="1"/>
        <pt x="115" y="1102" on="1"/>
        <pt x="190" y="1200" on="1"/>
        <pt x="438" y="1200" on="1"/>
        <pt x="438" y="1062" on="1"/>
        <pt x="190" y="1062" on="1"/>
        <pt x="388" y="840" on="1"/>
        <pt x="388" y="669" on="1"/>
        <pt x="912" y="669" on="1"/>
        <pt x="912" y="806" on="1"/>
        <pt x="807" y="905" on="1"/>
        <pt x="755" y="955" on="1"/>
        <pt x="724" y="984" on="0"/>
        <pt x="724" y="1012" on="1"/>
        <pt x="724" y="1033" on="0"/>
        <pt x="740" y="1053" on="1"/>
        <pt x="777" y="1102" on="1"/>
        <pt x="852" y="1200" on="1"/>
        <pt x="1100" y="1200" on="1"/>
        <pt x="1100" y="1062" on="1"/>
        <pt x="852" y="1062" on="1"/>
        <pt x="1100" y="840" on="1"/>
      </contour>
    </TTGlyph>
    <TTGlyph name="uni17A5" xMin="100" yMin="0" xMax="1100" yMax="1400">
      <contour>
        <pt x="172" y="822" on="1"/>
        <pt x="100" y="914" on="0"/>
        <pt x="100" y="955" on="1"/>
        <pt x="100" y="992" on="0"/>
        <pt x="118" y="1017" on="1"/>
        <pt x="258" y="1200" on="1"/>
        <pt x="800" y="1200" on="1"/>
        <pt x="912" y="1200" on="0"/>
        <pt x="912" y="1250" on="1"/>
        <pt x="912" y="1400" on="1"/>
        <pt x="1100" y="1400" on="1"/>
        <pt x="1100" y="1250" on="1"/>
        <pt x="1100" y="1062" on="0"/>
        <pt x="800" y="1062" on="1"/>
        <pt x="263" y="1062" on="1"/>
        <pt x="242" y="1037" on="1"/>
        <pt x="237" y="1032" on="0"/>
        <pt x="237" y="1024" on="1"/>
        <pt x="237" y="992" on="0"/>
        <pt x="304" y="916" on="1"/>
        <pt x="314" y="904" on="1"/>
        <pt x="178" y="814" on="1"/>
      </contour>
      <contour>
        <pt x="388" y="310" on="1"/>
        <pt x="388" y="138" on="1"/>
        <pt x="480" y="138" on="0"/>
        <pt x="480" y="249" on="1"/>
        <pt x="480" y="310" on="0"/>
      </contour>
      <contour>
        <pt x="200" y="600" on="1"/>
        <pt x="200" y="738" on="0"/>
        <pt x="300" y="831" on="1"/>
        <pt x="400" y="923" on="0"/>
        <pt x="650" y="923" on="1"/>
        <pt x="900" y="923" on="0"/>
        <pt x="1000" y="831" on="1"/>
        <pt x="1100" y="738" on="0"/>
        <pt x="1100" y="600" on="1"/>
        <pt x="1100" y="0" on="1"/>
        <pt x="912" y="0" on="1"/>
        <pt x="912" y="600" on="1"/>
        <pt x="912" y="692" on="0"/>
        <pt x="854" y="739" on="1"/>
        <pt x="795" y="785" on="0"/>
        <pt x="650" y="785" on="1"/>
        <pt x="505" y="785" on="0"/>
        <pt x="447" y="739" on="1"/>
        <pt x="388" y="692" on="0"/>
        <pt x="388" y="600" on="1"/>
        <pt x="388" y="448" on="1"/>
        <pt x="598" y="448" on="0"/>
        <pt x="598" y="249" on="1"/>
        <pt x="598" y="0" on="0"/>
        <pt x="388" y="0" on="1"/>
        <pt x="200" y="0" on="0"/>
        <pt x="200" y="122" on="1"/>
      </contour>
    </TTGlyph>
    <TTGlyph name="uni17A6" xMin="200" yMin="-500" xMax="1700" yMax="1900">
      <contour>
        <pt x="883" y="-283" on="1"/>
        <pt x="883" y="-217" on="0"/>
        <pt x="831" y="-183" on="1"/>
        <pt x="779" y="-150" on="0"/>
        <pt x="650" y="-150" on="1"/>
        <pt x="521" y="-150" on="0"/>
        <pt x="470" y="-183" on="1"/>
        <pt x="417" y="-217" on="0"/>
        <pt x="417" y="-283" on="1"/>
        <pt x="417" y="-366" on="1"/>
        <pt x="417" y="-400" on="0"/>
        <pt x="524" y="-400" on="1"/>
        <pt x="524" y="-500" on="1"/>
        <pt x="383" y="-500" on="1"/>
        <pt x="250" y="-500" on="0"/>
        <pt x="250" y="-426" on="1"/>
        <pt x="250" y="-283" on="1"/>
        <pt x="250" y="-184" on="0"/>
        <pt x="339" y="-116" on="1"/>
        <pt x="428" y="-50" on="0"/>
        <pt x="650" y="-50" on="1"/>
        <pt x="872" y="-50" on="0"/>
        <pt x="961" y="-116" on="1"/>
        <pt x="1050" y="-184" on="0"/>
        <pt x="1050" y="-283" on="1"/>
        <pt x="1050" y="-360" on="0"/>
        <pt x="1312" y="-360" on="1"/>
        <pt x="1512" y="-360" on="0"/>
        <pt x="1512" y="-260" on="1"/>
        <pt x="1512" y="1250" on="1"/>
        <pt x="1512" y="1480" on="0"/>
        <pt x="1312" y="1480" on="1"/>
        <pt x="1112" y="1480" on="0"/>
        <pt x="1052" y="1400" on="1"/>
        <pt x="924" y="1400" on="1"/>
        <pt x="924" y="1900" on="1"/>
        <pt x="1112" y="1900" on="1"/>
        <pt x="1112" y="1552" on="1"/>
        <pt x="1207" y="1610" on="0"/>
        <pt x="1312" y="1610" on="1"/>
        <pt x="1700" y="1610" on="0"/>
        <pt x="1700" y="1250" on="1"/>
        <pt x="1700" y="-260" on="1"/>
        <pt x="1700" y="-500" on="0"/>
        <pt x="1312" y="-500" on="1"/>
        <pt x="883" y="-500" on="0"/>
      </contour>
      <contour>
        <pt x="388" y="310" on="1"/>
        <pt x="388" y="138" on="1"/>
        <pt x="480" y="138" on="0"/>
        <pt x="480" y="249" on="1"/>
        <pt x="480" y="310" on="0"/>
      </contour>
      <contour>
        <pt x="200" y="877" on="1"/>
        <pt x="200" y="1015" on="0"/>
        <pt x="300" y="1108" on="1"/>
        <pt x="400" y="1200" on="0"/>
        <pt x="625" y="1200" on="1"/>
        <pt x="850" y="1200" on="0"/>
        <pt x="950" y="1108" on="1"/>
        <pt x="1050" y="1015" on="0"/>
        <pt x="1050" y="877" on="1"/>
        <pt x="1050" y="0" on="1"/>
        <pt x="862" y="0" on="1"/>
        <pt x="862" y="877" on="1"/>
        <pt x="862" y="969" on="0"/>
        <pt x="804" y="1016" on="1"/>
        <pt x="745" y="1062" on="0"/>
        <pt x="625" y="1062" on="1"/>
        <pt x="505" y="1062" on="0"/>
        <pt x="447" y="1016" on="1"/>
        <pt x="388" y="969" on="0"/>
        <pt x="388" y="877" on="1"/>
        <pt x="388" y="448" on="1"/>
        <pt x="598" y="448" on="0"/>
        <pt x="598" y="249" on="1"/>
        <pt x="598" y="0" on="0"/>
        <pt x="388" y="0" on="1"/>
        <pt x="200" y="0" on="0"/>
        <pt x="200" y="122" on="1"/>
      </contour>
    </TTGlyph>
    <TTGlyph name="uni17A7" xMin="200" yMin="-50" xMax="1100" yMax="1200">
      <contour>
        <pt x="200" y="586" on="1"/>
        <pt x="556" y="636" on="1"/>
        <pt x="912" y="687" on="0"/>
        <pt x="912" y="877" on="1"/>
        <pt x="912" y="969" on="0"/>
        <pt x="854" y="1016" on="1"/>
        <pt x="795" y="1062" on="0"/>
        <pt x="650" y="1062" on="1"/>
        <pt x="505" y="1062" on="0"/>
        <pt x="447" y="1016" on="1"/>
        <pt x="388" y="969" on="0"/>
        <pt x="388" y="897" on="1"/>
        <pt x="388" y="863" on="0"/>
        <pt x="488" y="863" on="1"/>
        <pt x="488" y="719" on="1"/>
        <pt x="338" y="719" on="1"/>
        <pt x="200" y="719" on="0"/>
        <pt x="200" y="863" on="1"/>
        <pt x="200" y="897" on="1"/>
        <pt x="200" y="1015" on="0"/>
        <pt x="300" y="1108" on="1"/>
        <pt x="400" y="1200" on="0"/>
        <pt x="650" y="1200" on="1"/>
        <pt x="900" y="1200" on="0"/>
        <pt x="1000" y="1108" on="1"/>
        <pt x="1100" y="1015" on="0"/>
        <pt x="1100" y="877" on="1"/>
        <pt x="1100" y="575" on="0"/>
        <pt x="566" y="499" on="1"/>
        <pt x="388" y="473" on="1"/>
        <pt x="388" y="323" on="1"/>
        <pt x="388" y="231" on="0"/>
        <pt x="445" y="138" on="0"/>
        <pt x="515" y="138" on="1"/>
        <pt x="585" y="138" on="0"/>
        <pt x="912" y="341" on="0"/>
        <pt x="912" y="403" on="1"/>
        <pt x="912" y="480" on="1"/>
        <pt x="1100" y="480" on="1"/>
        <pt x="1100" y="-50" on="1"/>
        <pt x="912" y="-50" on="1"/>
        <pt x="912" y="153" on="1"/>
        <pt x="897" y="143" on="0"/>
        <pt x="880" y="133" on="1"/>
        <pt x="660" y="0" on="0"/>
        <pt x="500" y="0" on="1"/>
        <pt x="340" y="0" on="0"/>
        <pt x="200" y="185" on="0"/>
        <pt x="200" y="323" on="1"/>
      </contour>
    </TTGlyph>
    <TTGlyph name="uni17A8" xMin="200" yMin="-50" xMax="1100" yMax="1500">
      <contour>
        <pt x="200" y="586" on="1"/>
        <pt x="556" y="636" on="1"/>
        <pt x="912" y="687" on="0"/>
        <pt x="912" y="877" on="1"/>
        <pt x="912" y="969" on="0"/>
        <pt x="854" y="1016" on="1"/>
        <pt x="795" y="1062" on="0"/>
        <pt x="650" y="1062" on="1"/>
        <pt x="505" y="1062" on="0"/>
        <pt x="447" y="1016" on="1"/>
        <pt x="388" y="969" on="0"/>
        <pt x="388" y="897" on="1"/>
        <pt x="388" y="863" on="0"/>
        <pt x="488" y="863" on="1"/>
        <pt x="488" y="719" on="1"/>
        <pt x="338" y="719" on="1"/>
        <pt x="200" y="719" on="0"/>
        <pt x="200" y="863" on="1"/>
        <pt x="200" y="897" on="1"/>
        <pt x="200" y="1015" on="0"/>
        <pt x="300" y="1108" on="1"/>
        <pt x="400" y="1200" on="0"/>
        <pt x="650" y="1200" on="1"/>
        <pt x="900" y="1200" on="0"/>
        <pt x="1000" y="1108" on="1"/>
        <pt x="1100" y="1015" on="0"/>
        <pt x="1100" y="877" on="1"/>
        <pt x="1100" y="575" on="0"/>
        <pt x="566" y="499" on="1"/>
        <pt x="388" y="473" on="1"/>
        <pt x="388" y="323" on="1"/>
        <pt x="388" y="231" on="0"/>
        <pt x="445" y="138" on="0"/>
        <pt x="515" y="138" on="1"/>
        <pt x="585" y="138" on="0"/>
        <pt x="912" y="341" on="0"/>
        <pt x="912" y="403" on="1"/>
        <pt x="912" y="480" on="1"/>
        <pt x="1100" y="480" on="1"/>
        <pt x="1100" y="-50" on="1"/>
        <pt x="912" y="-50" on="1"/>
        <pt x="912" y="153" on="1"/>
        <pt x="897" y="143" on="0"/>
        <pt x="880" y="133" on="1"/>
        <pt x="660" y="0" on="0"/>
        <pt x="500" y="0" on="1"/>
        <pt x="340" y="0" on="0"/>
        <pt x="200" y="185" on="0"/>
        <pt x="200" y="323" on="1"/>
      </contour>
      <contour>
        <pt x="1100" y="1500" on="1"/>
        <pt x="1100" y="1362" on="1"/>
        <pt x="200" y="1362" on="1"/>
        <pt x="200" y="1500" on="1"/>
      </contour>
    </TTGlyph>
    <TTGlyph name="uni17A9" xMin="200" yMin="-50" xMax="1400" yMax="1200">
      <contour>
        <pt x="200" y="586" on="1"/>
        <pt x="556" y="636" on="1"/>
        <pt x="912" y="687" on="0"/>
        <pt x="912" y="877" on="1"/>
        <pt x="912" y="969" on="0"/>
        <pt x="854" y="1016" on="1"/>
        <pt x="795" y="1062" on="0"/>
        <pt x="650" y="1062" on="1"/>
        <pt x="505" y="1062" on="0"/>
        <pt x="447" y="1016" on="1"/>
        <pt x="388" y="969" on="0"/>
        <pt x="388" y="897" on="1"/>
        <pt x="388" y="863" on="0"/>
        <pt x="488" y="863" on="1"/>
        <pt x="488" y="719" on="1"/>
        <pt x="338" y="719" on="1"/>
        <pt x="200" y="719" on="0"/>
        <pt x="200" y="863" on="1"/>
        <pt x="200" y="897" on="1"/>
        <pt x="200" y="1015" on="0"/>
        <pt x="300" y="1108" on="1"/>
        <pt x="400" y="1200" on="0"/>
        <pt x="650" y="1200" on="1"/>
        <pt x="900" y="1200" on="0"/>
        <pt x="1000" y="1108" on="1"/>
        <pt x="1100" y="1015" on="0"/>
        <pt x="1100" y="877" on="1"/>
        <pt x="1100" y="575" on="0"/>
        <pt x="566" y="499" on="1"/>
        <pt x="388" y="473" on="1"/>
        <pt x="388" y="323" on="1"/>
        <pt x="388" y="231" on="0"/>
        <pt x="445" y="138" on="0"/>
        <pt x="515" y="138" on="1"/>
        <pt x="585" y="138" on="0"/>
        <pt x="912" y="341" on="0"/>
        <pt x="912" y="403" on="1"/>
        <pt x="912" y="480" on="1"/>
        <pt x="1100" y="480" on="1"/>
        <pt x="1100" y="-50" on="1"/>
        <pt x="912" y="-50" on="1"/>
        <pt x="912" y="153" on="1"/>
        <pt x="897" y="143" on="0"/>
        <pt x="880" y="133" on="1"/>
        <pt x="660" y="0" on="0"/>
        <pt x="500" y="0" on="1"/>
        <pt x="340" y="0" on="0"/>
        <pt x="200" y="185" on="0"/>
        <pt x="200" y="323" on="1"/>
      </contour>
      <contour>
        <pt x="1400" y="480" on="1"/>
        <pt x="1400" y="-50" on="1"/>
        <pt x="1212" y="-50" on="1"/>
        <pt x="1212" y="480" on="1"/>
      </contour>
    </TTGlyph>
    <TTGlyph name="uni17AA" xMin="100" yMin="-50" xMax="1100" yMax="1700">
      <contour>
        <pt x="200" y="586" on="1"/>
        <pt x="556" y="636" on="1"/>
        <pt x="912" y="687" on="0"/>
        <pt x="912" y="877" on="1"/>
        <pt x="912" y="969" on="0"/>
        <pt x="854" y="1016" on="1"/>
        <pt x="795" y="1062" on="0"/>
        <pt x="650" y="1062" on="1"/>
        <pt x="505" y="1062" on="0"/>
        <pt x="447" y="1016" on="1"/>
        <pt x="388" y="969" on="0"/>
        <pt x="388" y="897" on="1"/>
        <pt x="388" y="863" on="0"/>
        <pt x="488" y="863" on="1"/>
        <pt x="488" y="719" on="1"/>
        <pt x="338" y="719" on="1"/>
        <pt x="200" y="719" on="0"/>
        <pt x="200" y="863" on="1"/>
        <pt x="200" y="897" on="1"/>
        <pt x="200" y="1015" on="0"/>
        <pt x="300" y="1108" on="1"/>
        <pt x="400" y="1200" on="0"/>
        <pt x="650" y="1200" on="1"/>
        <pt x="900" y="1200" on="0"/>
        <pt x="1000" y="1108" on="1"/>
        <pt x="1100" y="1015" on="0"/>
        <pt x="1100" y="877" on="1"/>
        <pt x="1100" y="575" on="0"/>
        <pt x="566" y="499" on="1"/>
        <pt x="388" y="473" on="1"/>
        <pt x="388" y="323" on="1"/>
        <pt x="388" y="231" on="0"/>
        <pt x="445" y="138" on="0"/>
        <pt x="515" y="138" on="1"/>
        <pt x="585" y="138" on="0"/>
        <pt x="912" y="341" on="0"/>
        <pt x="912" y="403" on="1"/>
        <pt x="912" y="480" on="1"/>
        <pt x="1100" y="480" on="1"/>
        <pt x="1100" y="-50" on="1"/>
        <pt x="912" y="-50" on="1"/>
        <pt x="912" y="153" on="1"/>
        <pt x="897" y="143" on="0"/>
        <pt x="880" y="133" on="1"/>
        <pt x="660" y="0" on="0"/>
        <pt x="500" y="0" on="1"/>
        <pt x="340" y="0" on="0"/>
        <pt x="200" y="185" on="0"/>
        <pt x="200" y="323" on="1"/>
      </contour>
      <contour>
        <pt x="172" y="1122" on="1"/>
        <pt x="100" y="1214" on="0"/>
        <pt x="100" y="1255" on="1"/>
        <pt x="100" y="1292" on="0"/>
        <pt x="118" y="1317" on="1"/>
        <pt x="258" y="1500" on="1"/>
        <pt x="800" y="1500" on="1"/>
        <pt x="912" y="1500" on="0"/>
        <pt x="912" y="1550" on="1"/>
        <pt x="912" y="1700" on="1"/>
        <pt x="1100" y="1700" on="1"/>
        <pt x="1100" y="1550" on="1"/>
        <pt x="1100" y="1362" on="0"/>
        <pt x="800" y="1362" on="1"/>
        <pt x="263" y="1362" on="1"/>
        <pt x="242" y="1337" on="1"/>
        <pt x="237" y="1332" on="0"/>
        <pt x="237" y="1324" on="1"/>
        <pt x="237" y="1292" on="0"/>
        <pt x="304" y="1216" on="1"/>
        <pt x="314" y="1204" on="1"/>
        <pt x="178" y="1114" on="1"/>
      </contour>
    </TTGlyph>
    <TTGlyph name="uni17AB" xMin="59" yMin="-500" xMax="1100" yMax="1200">
      <contour>
        <pt x="200" y="-380" on="1"/>
        <pt x="500" y="-380" on="1"/>
        <pt x="912" y="-380" on="0"/>
        <pt x="912" y="-180" on="1"/>
        <pt x="800" y="-180" on="1"/>
        <pt x="800" y="-50" on="1"/>
        <pt x="1100" y="-50" on="1"/>
        <pt x="1100" y="-180" on="1"/>
        <pt x="1100" y="-500" on="0"/>
        <pt x="500" y="-500" on="1"/>
        <pt x="200" y="-500" on="1"/>
      </contour>
      <contour>
        <pt x="912" y="806" on="1"/>
        <pt x="807" y="905" on="1"/>
        <pt x="755" y="955" on="1"/>
        <pt x="724" y="984" on="0"/>
        <pt x="724" y="1012" on="1"/>
        <pt x="724" y="1033" on="0"/>
        <pt x="740" y="1053" on="1"/>
        <pt x="777" y="1102" on="1"/>
        <pt x="852" y="1200" on="1"/>
        <pt x="1100" y="1200" on="1"/>
        <pt x="1100" y="1062" on="1"/>
        <pt x="852" y="1062" on="1"/>
        <pt x="1100" y="840" on="1"/>
        <pt x="1100" y="323" on="1"/>
        <pt x="1100" y="185" on="0"/>
        <pt x="900" y="0" on="0"/>
        <pt x="650" y="0" on="1"/>
        <pt x="400" y="0" on="0"/>
        <pt x="200" y="185" on="0"/>
        <pt x="200" y="323" on="1"/>
        <pt x="200" y="806" on="1"/>
        <pt x="120" y="905" on="1"/>
        <pt x="80" y="955" on="1"/>
        <pt x="59" y="980" on="0"/>
        <pt x="59" y="1005" on="1"/>
        <pt x="59" y="1029" on="0"/>
        <pt x="78" y="1053" on="1"/>
        <pt x="115" y="1102" on="1"/>
        <pt x="190" y="1200" on="1"/>
        <pt x="438" y="1200" on="1"/>
        <pt x="438" y="1062" on="1"/>
        <pt x="190" y="1062" on="1"/>
        <pt x="388" y="840" on="1"/>
        <pt x="388" y="323" on="1"/>
        <pt x="388" y="231" on="0"/>
        <pt x="505" y="138" on="0"/>
        <pt x="650" y="138" on="1"/>
        <pt x="795" y="138" on="0"/>
        <pt x="912" y="231" on="0"/>
        <pt x="912" y="323" on="1"/>
      </contour>
    </TTGlyph>
    <TTGlyph name="uni17AC" xMin="59" yMin="-500" xMax="1250" yMax="1200">
      <contour>
        <pt x="912" y="806" on="1"/>
        <pt x="807" y="905" on="1"/>
        <pt x="755" y="955" on="1"/>
        <pt x="724" y="984" on="0"/>
        <pt x="724" y="1012" on="1"/>
        <pt x="724" y="1033" on="0"/>
        <pt x="740" y="1053" on="1"/>
        <pt x="777" y="1102" on="1"/>
        <pt x="852" y="1200" on="1"/>
        <pt x="1100" y="1200" on="1"/>
        <pt x="1100" y="1062" on="1"/>
        <pt x="852" y="1062" on="1"/>
        <pt x="1100" y="840" on="1"/>
        <pt x="1100" y="323" on="1"/>
        <pt x="1100" y="185" on="0"/>
        <pt x="900" y="0" on="0"/>
        <pt x="650" y="0" on="1"/>
        <pt x="400" y="0" on="0"/>
        <pt x="200" y="185" on="0"/>
        <pt x="200" y="323" on="1"/>
        <pt x="200" y="806" on="1"/>
        <pt x="120" y="905" on="1"/>
        <pt x="80" y="955" on="1"/>
        <pt x="59" y="980" on="0"/>
        <pt x="59" y="1005" on="1"/>
        <pt x="59" y="1029" on="0"/>
        <pt x="78" y="1053" on="1"/>
        <pt x="115" y="1102" on="1"/>
        <pt x="190" y="1200" on="1"/>
        <pt x="438" y="1200" on="1"/>
        <pt x="438" y="1062" on="1"/>
        <pt x="190" y="1062" on="1"/>
        <pt x="388" y="840" on="1"/>
        <pt x="388" y="323" on="1"/>
        <pt x="388" y="231" on="0"/>
        <pt x="505" y="138" on="0"/>
        <pt x="650" y="138" on="1"/>
        <pt x="795" y="138" on="0"/>
        <pt x="912" y="231" on="0"/>
        <pt x="912" y="323" on="1"/>
      </contour>
      <contour>
        <pt x="1080" y="-286" on="1"/>
        <pt x="1127" y="-380" on="0"/>
        <pt x="1170" y="-380" on="1"/>
        <pt x="1250" y="-380" on="1"/>
        <pt x="1250" y="-500" on="1"/>
        <pt x="1170" y="-500" on="1"/>
        <pt x="1074" y="-500" on="0"/>
        <pt x="975" y="-406" on="1"/>
        <pt x="826" y="-500" on="0"/>
        <pt x="500" y="-500" on="1"/>
        <pt x="200" y="-500" on="1"/>
        <pt x="200" y="-380" on="1"/>
        <pt x="500" y="-380" on="1"/>
        <pt x="912" y="-380" on="0"/>
        <pt x="912" y="-180" on="1"/>
        <pt x="800" y="-180" on="1"/>
        <pt x="800" y="-50" on="1"/>
        <pt x="1100" y="-50" on="1"/>
        <pt x="1100" y="-180" on="1"/>
        <pt x="1100" y="-238" on="0"/>
      </contour>
    </TTGlyph>
    <TTGlyph name="uni17AD" xMin="200" yMin="-500" xMax="1100" yMax="1200">
      <contour>
        <pt x="200" y="-380" on="1"/>
        <pt x="500" y="-380" on="1"/>
        <pt x="912" y="-380" on="0"/>
        <pt x="912" y="-180" on="1"/>
        <pt x="800" y="-180" on="1"/>
        <pt x="800" y="-50" on="1"/>
        <pt x="1100" y="-50" on="1"/>
        <pt x="1100" y="-180" on="1"/>
        <pt x="1100" y="-500" on="0"/>
        <pt x="500" y="-500" on="1"/>
        <pt x="200" y="-500" on="1"/>
      </contour>
      <contour>
        <pt x="388" y="310" on="1"/>
        <pt x="388" y="138" on="1"/>
        <pt x="480" y="138" on="0"/>
        <pt x="480" y="249" on="1"/>
        <pt x="480" y="310" on="0"/>
      </contour>
      <contour>
        <pt x="200" y="923" on="1"/>
        <pt x="200" y="1036" on="0"/>
        <pt x="275" y="1118" on="1"/>
        <pt x="350" y="1200" on="0"/>
        <pt x="445" y="1200" on="1"/>
        <pt x="539" y="1200" on="0"/>
        <pt x="650" y="1076" on="1"/>
        <pt x="762" y="1200" on="0"/>
        <pt x="857" y="1200" on="1"/>
        <pt x="951" y="1200" on="0"/>
        <pt x="1026" y="1118" on="1"/>
        <pt x="1100" y="1036" on="0"/>
        <pt x="1100" y="923" on="1"/>
        <pt x="1100" y="0" on="1"/>
        <pt x="912" y="0" on="1"/>
        <pt x="912" y="923" on="1"/>
        <pt x="912" y="1050" on="0"/>
        <pt x="840" y="1050" on="1"/>
        <pt x="791" y="1050" on="0"/>
        <pt x="709" y="956" on="1"/>
        <pt x="682" y="925" on="0"/>
        <pt x="650" y="925" on="1"/>
        <pt x="618" y="925" on="0"/>
        <pt x="591" y="956" on="1"/>
        <pt x="510" y="1050" on="0"/>
        <pt x="461" y="1050" on="1"/>
        <pt x="388" y="1050" on="0"/>
        <pt x="388" y="923" on="1"/>
        <pt x="388" y="448" on="1"/>
        <pt x="598" y="448" on="0"/>
        <pt x="598" y="249" on="1"/>
        <pt x="598" y="0" on="0"/>
        <pt x="388" y="0" on="1"/>
        <pt x="200" y="0" on="0"/>
        <pt x="200" y="122" on="1"/>
      </contour>
    </TTGlyph>
    <TTGlyph name="uni17AE" xMin="200" yMin="-500" xMax="1250" yMax="1200">
      <contour>
        <pt x="1080" y="-286" on="1"/>
        <pt x="1127" y="-380" on="0"/>
        <pt x="1170" y="-380" on="1"/>
        <pt x="1250" y="-380" on="1"/>
        <pt x="1250" y="-500" on="1"/>
        <pt x="1170" y="-500" on="1"/>
        <pt x="1074" y="-500" on="0"/>
        <pt x="975" y="-406" on="1"/>
        <pt x="826" y="-500" on="0"/>
        <pt x="500" y="-500" on="1"/>
        <pt x="200" y="-500" on="1"/>
        <pt x="200" y="-380" on="1"/>
        <pt x="500" y="-380" on="1"/>
        <pt x="912" y="-380" on="0"/>
        <pt x="912" y="-180" on="1"/>
        <pt x="800" y="-180" on="1"/>
        <pt x="800" y="-50" on="1"/>
        <pt x="1100" y="-50" on="1"/>
        <pt x="1100" y="-180" on="1"/>
        <pt x="1100" y="-238" on="0"/>
      </contour>
      <contour>
        <pt x="388" y="310" on="1"/>
        <pt x="388" y="138" on="1"/>
        <pt x="480" y="138" on="0"/>
        <pt x="480" y="249" on="1"/>
        <pt x="480" y="310" on="0"/>
      </contour>
      <contour>
        <pt x="200" y="923" on="1"/>
        <pt x="200" y="1036" on="0"/>
        <pt x="275" y="1118" on="1"/>
        <pt x="350" y="1200" on="0"/>
        <pt x="445" y="1200" on="1"/>
        <pt x="539" y="1200" on="0"/>
        <pt x="650" y="1076" on="1"/>
        <pt x="762" y="1200" on="0"/>
        <pt x="857" y="1200" on="1"/>
        <pt x="951" y="1200" on="0"/>
        <pt x="1026" y="1118" on="1"/>
        <pt x="1100" y="1036" on="0"/>
        <pt x="1100" y="923" on="1"/>
        <pt x="1100" y="0" on="1"/>
        <pt x="912" y="0" on="1"/>
        <pt x="912" y="923" on="1"/>
        <pt x="912" y="1050" on="0"/>
        <pt x="840" y="1050" on="1"/>
        <pt x="791" y="1050" on="0"/>
        <pt x="709" y="956" on="1"/>
        <pt x="682" y="925" on="0"/>
        <pt x="650" y="925" on="1"/>
        <pt x="618" y="925" on="0"/>
        <pt x="591" y="956" on="1"/>
        <pt x="510" y="1050" on="0"/>
        <pt x="461" y="1050" on="1"/>
        <pt x="388" y="1050" on="0"/>
        <pt x="388" y="923" on="1"/>
        <pt x="388" y="448" on="1"/>
        <pt x="598" y="448" on="0"/>
        <pt x="598" y="249" on="1"/>
        <pt x="598" y="0" on="0"/>
        <pt x="388" y="0" on="1"/>
        <pt x="200" y="0" on="0"/>
        <pt x="200" y="122" on="1"/>
      </contour>
    </TTGlyph>
    <TTGlyph name="uni17AF" xMin="100" yMin="0" xMax="1100" yMax="1540">
      <contour>
        <pt x="200" y="1540" on="1"/>
        <pt x="388" y="1540" on="1"/>
        <pt x="388" y="1316" on="1"/>
        <pt x="388" y="1266" on="0"/>
        <pt x="460" y="1200" on="0"/>
        <pt x="530" y="1200" on="1"/>
        <pt x="815" y="1200" on="1"/>
        <pt x="1100" y="1200" on="0"/>
        <pt x="1100" y="897" on="1"/>
        <pt x="1100" y="0" on="1"/>
        <pt x="882" y="0" on="1"/>
        <pt x="651" y="210" on="1"/>
        <pt x="419" y="0" on="1"/>
        <pt x="200" y="0" on="1"/>
        <pt x="200" y="762" on="1"/>
        <pt x="200" y="803" on="0"/>
        <pt x="100" y="803" on="1"/>
        <pt x="100" y="947" on="1"/>
        <pt x="250" y="947" on="1"/>
        <pt x="388" y="947" on="0"/>
        <pt x="388" y="803" on="1"/>
        <pt x="388" y="166" on="1"/>
        <pt x="651" y="405" on="1"/>
        <pt x="912" y="167" on="1"/>
        <pt x="912" y="897" on="1"/>
        <pt x="912" y="1062" on="0"/>
        <pt x="721" y="1062" on="1"/>
        <pt x="530" y="1062" on="1"/>
        <pt x="372" y="1062" on="0"/>
        <pt x="289" y="1132" on="1"/>
        <pt x="200" y="1193" on="0"/>
        <pt x="200" y="1316" on="1"/>
      </contour>
    </TTGlyph>
    <TTGlyph name="uni17B0" xMin="200" yMin="-500" xMax="1100" yMax="1200">
      <contour>
        <pt x="670" y="-246" on="1"/>
        <pt x="912" y="-282" on="1"/>
        <pt x="912" y="-185" on="1"/>
      </contour>
      <contour>
        <pt x="388" y="310" on="1"/>
        <pt x="388" y="138" on="1"/>
        <pt x="480" y="138" on="0"/>
        <pt x="480" y="249" on="1"/>
        <pt x="480" y="310" on="0"/>
      </contour>
      <contour>
        <pt x="383" y="-316" on="1"/>
        <pt x="383" y="-356" on="1"/>
        <pt x="383" y="-395" on="0"/>
        <pt x="469" y="-395" on="1"/>
        <pt x="541" y="-395" on="0"/>
        <pt x="569" y="-372" on="1"/>
        <pt x="596" y="-351" on="0"/>
        <pt x="596" y="-321" on="1"/>
        <pt x="596" y="-265" on="1"/>
      </contour>
      <contour>
        <pt x="200" y="923" on="1"/>
        <pt x="200" y="1036" on="0"/>
        <pt x="275" y="1118" on="1"/>
        <pt x="350" y="1200" on="0"/>
        <pt x="445" y="1200" on="1"/>
        <pt x="539" y="1200" on="0"/>
        <pt x="650" y="1076" on="1"/>
        <pt x="762" y="1200" on="0"/>
        <pt x="857" y="1200" on="1"/>
        <pt x="951" y="1200" on="0"/>
        <pt x="1026" y="1118" on="1"/>
        <pt x="1100" y="1036" on="0"/>
        <pt x="1100" y="923" on="1"/>
        <pt x="1100" y="-275" on="1"/>
        <pt x="1100" y="-332" on="0"/>
        <pt x="981" y="-389" on="0"/>
        <pt x="816" y="-389" on="1"/>
        <pt x="706" y="-363" on="1"/>
        <pt x="706" y="-410" on="0"/>
        <pt x="650" y="-455" on="1"/>
        <pt x="596" y="-500" on="0"/>
        <pt x="466" y="-500" on="1"/>
        <pt x="200" y="-500" on="0"/>
        <pt x="200" y="-360" on="1"/>
        <pt x="200" y="-219" on="1"/>
        <pt x="486" y="-168" on="0"/>
        <pt x="912" y="-84" on="0"/>
        <pt x="912" y="-50" on="1"/>
        <pt x="912" y="923" on="1"/>
        <pt x="912" y="1050" on="0"/>
        <pt x="840" y="1050" on="1"/>
        <pt x="791" y="1050" on="0"/>
        <pt x="709" y="956" on="1"/>
        <pt x="682" y="925" on="0"/>
        <pt x="650" y="925" on="1"/>
        <pt x="618" y="925" on="0"/>
        <pt x="591" y="956" on="1"/>
        <pt x="510" y="1050" on="0"/>
        <pt x="461" y="1050" on="1"/>
        <pt x="388" y="1050" on="0"/>
        <pt x="388" y="923" on="1"/>
        <pt x="388" y="448" on="1"/>
        <pt x="598" y="448" on="0"/>
        <pt x="598" y="249" on="1"/>
        <pt x="598" y="0" on="0"/>
        <pt x="388" y="0" on="1"/>
        <pt x="200" y="0" on="0"/>
        <pt x="200" y="122" on="1"/>
      </contour>
    </TTGlyph>
    <TTGlyph name="uni17B1" xMin="100" yMin="-50" xMax="1180" yMax="1500">
      <contour>
        <pt x="200" y="586" on="1"/>
        <pt x="556" y="636" on="1"/>
        <pt x="912" y="687" on="0"/>
        <pt x="912" y="877" on="1"/>
        <pt x="912" y="969" on="0"/>
        <pt x="854" y="1016" on="1"/>
        <pt x="795" y="1062" on="0"/>
        <pt x="650" y="1062" on="1"/>
        <pt x="505" y="1062" on="0"/>
        <pt x="447" y="1016" on="1"/>
        <pt x="388" y="969" on="0"/>
        <pt x="388" y="897" on="1"/>
        <pt x="388" y="863" on="0"/>
        <pt x="488" y="863" on="1"/>
        <pt x="488" y="719" on="1"/>
        <pt x="338" y="719" on="1"/>
        <pt x="200" y="719" on="0"/>
        <pt x="200" y="863" on="1"/>
        <pt x="200" y="897" on="1"/>
        <pt x="200" y="1015" on="0"/>
        <pt x="300" y="1108" on="1"/>
        <pt x="400" y="1200" on="0"/>
        <pt x="650" y="1200" on="1"/>
        <pt x="900" y="1200" on="0"/>
        <pt x="1000" y="1108" on="1"/>
        <pt x="1100" y="1015" on="0"/>
        <pt x="1100" y="877" on="1"/>
        <pt x="1100" y="575" on="0"/>
        <pt x="566" y="499" on="1"/>
        <pt x="388" y="473" on="1"/>
        <pt x="388" y="323" on="1"/>
        <pt x="388" y="231" on="0"/>
        <pt x="445" y="138" on="0"/>
        <pt x="515" y="138" on="1"/>
        <pt x="585" y="138" on="0"/>
        <pt x="912" y="341" on="0"/>
        <pt x="912" y="403" on="1"/>
        <pt x="912" y="480" on="1"/>
        <pt x="1100" y="480" on="1"/>
        <pt x="1100" y="-50" on="1"/>
        <pt x="912" y="-50" on="1"/>
        <pt x="912" y="153" on="1"/>
        <pt x="897" y="143" on="0"/>
        <pt x="880" y="133" on="1"/>
        <pt x="660" y="0" on="0"/>
        <pt x="500" y="0" on="1"/>
        <pt x="340" y="0" on="0"/>
        <pt x="200" y="185" on="0"/>
        <pt x="200" y="323" on="1"/>
      </contour>
      <contour>
        <pt x="263" y="1362" on="1"/>
        <pt x="242" y="1337" on="1"/>
        <pt x="237" y="1332" on="0"/>
        <pt x="237" y="1324" on="1"/>
        <pt x="237" y="1292" on="0"/>
        <pt x="304" y="1216" on="1"/>
        <pt x="314" y="1204" on="1"/>
        <pt x="178" y="1114" on="1"/>
        <pt x="172" y="1122" on="1"/>
        <pt x="100" y="1214" on="0"/>
        <pt x="100" y="1255" on="1"/>
        <pt x="100" y="1292" on="0"/>
        <pt x="118" y="1317" on="1"/>
        <pt x="258" y="1500" on="1"/>
        <pt x="880" y="1500" on="1"/>
        <pt x="1130" y="1500" on="0"/>
        <pt x="1180" y="1222" on="1"/>
        <pt x="1042" y="1162" on="1"/>
        <pt x="992" y="1362" on="0"/>
        <pt x="880" y="1362" on="1"/>
      </contour>
    </TTGlyph>
    <TTGlyph name="uni17B2" xMin="200" yMin="0" xMax="1150" yMax="1200">
      <contour>
        <pt x="906" y="453" on="1"/>
        <pt x="800" y="360" on="1"/>
        <pt x="687" y="465" on="1"/>
        <pt x="1022" y="762" on="1"/>
        <pt x="644" y="762" on="1"/>
        <pt x="644" y="900" on="1"/>
        <pt x="1022" y="900" on="1"/>
        <pt x="1097" y="802" on="1"/>
        <pt x="1134" y="753" on="1"/>
        <pt x="1150" y="733" on="0"/>
        <pt x="1150" y="712" on="1"/>
        <pt x="1150" y="684" on="0"/>
        <pt x="1119" y="655" on="1"/>
        <pt x="1067" y="605" on="1"/>
        <pt x="1043" y="582" on="1"/>
        <pt x="1100" y="504" on="0"/>
        <pt x="1100" y="400" on="1"/>
        <pt x="1100" y="323" on="1"/>
        <pt x="1100" y="185" on="0"/>
        <pt x="1000" y="92" on="1"/>
        <pt x="900" y="0" on="0"/>
        <pt x="650" y="0" on="1"/>
        <pt x="400" y="0" on="0"/>
        <pt x="300" y="92" on="1"/>
        <pt x="200" y="185" on="0"/>
        <pt x="200" y="323" on="1"/>
        <pt x="200" y="877" on="1"/>
        <pt x="200" y="1015" on="0"/>
        <pt x="300" y="1108" on="1"/>
        <pt x="400" y="1200" on="0"/>
        <pt x="625" y="1200" on="1"/>
        <pt x="910" y="1200" on="0"/>
        <pt x="1050" y="1108" on="1"/>
        <pt x="974" y="986" on="1"/>
        <pt x="855" y="1062" on="0"/>
        <pt x="625" y="1062" on="1"/>
        <pt x="505" y="1062" on="0"/>
        <pt x="447" y="1016" on="1"/>
        <pt x="388" y="969" on="0"/>
        <pt x="388" y="877" on="1"/>
        <pt x="388" y="323" on="1"/>
        <pt x="388" y="231" on="0"/>
        <pt x="447" y="184" on="1"/>
        <pt x="505" y="138" on="0"/>
        <pt x="650" y="138" on="1"/>
        <pt x="795" y="138" on="0"/>
        <pt x="854" y="184" on="1"/>
        <pt x="912" y="231" on="0"/>
        <pt x="912" y="323" on="1"/>
        <pt x="912" y="400" on="1"/>
        <pt x="912" y="429" on="0"/>
      </contour>
    </TTGlyph>
    <TTGlyph name="uni17B3" xMin="100" yMin="-50" xMax="1180" yMax="1890">
      <contour>
        <pt x="200" y="586" on="1"/>
        <pt x="556" y="636" on="1"/>
        <pt x="912" y="687" on="0"/>
        <pt x="912" y="877" on="1"/>
        <pt x="912" y="969" on="0"/>
        <pt x="854" y="1016" on="1"/>
        <pt x="795" y="1062" on="0"/>
        <pt x="650" y="1062" on="1"/>
        <pt x="505" y="1062" on="0"/>
        <pt x="447" y="1016" on="1"/>
        <pt x="388" y="969" on="0"/>
        <pt x="388" y="897" on="1"/>
        <pt x="388" y="863" on="0"/>
        <pt x="488" y="863" on="1"/>
        <pt x="488" y="719" on="1"/>
        <pt x="338" y="719" on="1"/>
        <pt x="200" y="719" on="0"/>
        <pt x="200" y="863" on="1"/>
        <pt x="200" y="897" on="1"/>
        <pt x="200" y="1015" on="0"/>
        <pt x="300" y="1108" on="1"/>
        <pt x="400" y="1200" on="0"/>
        <pt x="650" y="1200" on="1"/>
        <pt x="900" y="1200" on="0"/>
        <pt x="1000" y="1108" on="1"/>
        <pt x="1100" y="1015" on="0"/>
        <pt x="1100" y="877" on="1"/>
        <pt x="1100" y="575" on="0"/>
        <pt x="566" y="499" on="1"/>
        <pt x="388" y="473" on="1"/>
        <pt x="388" y="323" on="1"/>
        <pt x="388" y="231" on="0"/>
        <pt x="445" y="138" on="0"/>
        <pt x="515" y="138" on="1"/>
        <pt x="585" y="138" on="0"/>
        <pt x="912" y="341" on="0"/>
        <pt x="912" y="403" on="1"/>
        <pt x="912" y="480" on="1"/>
        <pt x="1100" y="480" on="1"/>
        <pt x="1100" y="-50" on="1"/>
        <pt x="912" y="-50" on="1"/>
        <pt x="912" y="153" on="1"/>
        <pt x="897" y="143" on="0"/>
        <pt x="880" y="133" on="1"/>
        <pt x="660" y="0" on="0"/>
        <pt x="500" y="0" on="1"/>
        <pt x="340" y="0" on="0"/>
        <pt x="200" y="185" on="0"/>
        <pt x="200" y="323" on="1"/>
      </contour>
      <contour>
        <pt x="875" y="1362" on="1"/>
        <pt x="263" y="1362" on="1"/>
        <pt x="242" y="1337" on="1"/>
        <pt x="237" y="1332" on="0"/>
        <pt x="237" y="1324" on="1"/>
        <pt x="237" y="1292" on="0"/>
        <pt x="304" y="1216" on="1"/>
        <pt x="314" y="1204" on="1"/>
        <pt x="178" y="1114" on="1"/>
        <pt x="172" y="1122" on="1"/>
        <pt x="100" y="1214" on="0"/>
        <pt x="100" y="1255" on="1"/>
        <pt x="100" y="1292" on="0"/>
        <pt x="118" y="1317" on="1"/>
        <pt x="258" y="1500" on="1"/>
        <pt x="761" y="1500" on="1"/>
        <pt x="700" y="1582" on="0"/>
        <pt x="700" y="1668" on="1"/>
        <pt x="700" y="1775" on="0"/>
        <pt x="796" y="1890" on="1"/>
        <pt x="930" y="1823" on="1"/>
        <pt x="854" y="1718" on="0"/>
        <pt x="854" y="1645" on="1"/>
        <pt x="854" y="1602" on="0"/>
        <pt x="881" y="1570" on="1"/>
        <pt x="944" y="1495" on="1"/>
        <pt x="1137" y="1463" on="0"/>
        <pt x="1180" y="1222" on="1"/>
        <pt x="1054" y="1147" on="1"/>
      </contour>
    </TTGlyph>
    <TTGlyph name="uni17B6" xMin="-200" yMin="0" xMax="388" yMax="1200">
      <contour>
        <pt x="68" y="1200" on="1"/>
        <pt x="236" y="1200" on="0"/>
        <pt x="388" y="1068" on="0"/>
        <pt x="388" y="937" on="1"/>
        <pt x="388" y="0" on="1"/>
        <pt x="200" y="0" on="1"/>
        <pt x="200" y="937" on="1"/>
        <pt x="200" y="1009" on="0"/>
        <pt x="143" y="1062" on="0"/>
        <pt x="68" y="1062" on="1"/>
        <pt x="-200" y="1062" on="1"/>
        <pt x="-200" y="1200" on="1"/>
      </contour>
    </TTGlyph>
    <TTGlyph name="uni17B7" xMin="-1050" yMin="1400" xMax="-200" yMax="1800">
      <contour>
        <pt x="-1050" y="1550" on="1"/>
        <pt x="-1050" y="1650" on="0"/>
        <pt x="-890" y="1800" on="0"/>
        <pt x="-740" y="1800" on="1"/>
        <pt x="-591" y="1800" on="0"/>
        <pt x="-450" y="1725" on="1"/>
        <pt x="-310" y="1650" on="0"/>
        <pt x="-200" y="1550" on="1"/>
        <pt x="-200" y="1400" on="1"/>
        <pt x="-950" y="1400" on="1"/>
        <pt x="-1050" y="1400" on="0"/>
      </contour>
      <contour>
        <pt x="-830" y="1670" on="0"/>
        <pt x="-900" y="1610" on="0"/>
        <pt x="-900" y="1530" on="1"/>
        <pt x="-392" y="1530" on="1"/>
        <pt x="-504" y="1610" on="0"/>
        <pt x="-680" y="1670" on="0"/>
        <pt x="-740" y="1670" on="1"/>
      </contour>
    </TTGlyph>
    <TTGlyph name="uni17B7.a" xMin="-1050" yMin="1500" xMax="-200" yMax="1900">
      <contour>
        <pt x="-1050" y="1650" on="1"/>
        <pt x="-1050" y="1750" on="0"/>
        <pt x="-890" y="1900" on="0"/>
        <pt x="-740" y="1900" on="1"/>
        <pt x="-591" y="1900" on="0"/>
        <pt x="-450" y="1825" on="1"/>
        <pt x="-310" y="1750" on="0"/>
        <pt x="-200" y="1650" on="1"/>
        <pt x="-200" y="1500" on="1"/>
        <pt x="-950" y="1500" on="1"/>
        <pt x="-1050" y="1500" on="0"/>
      </contour>
      <contour>
        <pt x="-830" y="1770" on="0"/>
        <pt x="-900" y="1710" on="0"/>
        <pt x="-900" y="1630" on="1"/>
        <pt x="-392" y="1630" on="1"/>
        <pt x="-504" y="1710" on="0"/>
        <pt x="-680" y="1770" on="0"/>
        <pt x="-740" y="1770" on="1"/>
      </contour>
    </TTGlyph>
    <TTGlyph name="uni17B7.r" xMin="-800" yMin="1400" xMax="-50" yMax="1800">
      <contour>
        <pt x="-800" y="1550" on="1"/>
        <pt x="-800" y="1650" on="0"/>
        <pt x="-659" y="1800" on="0"/>
        <pt x="-526" y="1800" on="1"/>
        <pt x="-395" y="1800" on="0"/>
        <pt x="-271" y="1725" on="1"/>
        <pt x="-147" y="1650" on="0"/>
        <pt x="-50" y="1550" on="1"/>
        <pt x="-50" y="1400" on="1"/>
        <pt x="-712" y="1400" on="1"/>
        <pt x="-800" y="1400" on="0"/>
      </contour>
      <contour>
        <pt x="-606" y="1670" on="0"/>
        <pt x="-668" y="1610" on="0"/>
        <pt x="-668" y="1530" on="1"/>
        <pt x="-219" y="1530" on="1"/>
        <pt x="-318" y="1610" on="0"/>
        <pt x="-474" y="1670" on="0"/>
        <pt x="-526" y="1670" on="1"/>
      </contour>
    </TTGlyph>
    <TTGlyph name="uni17B717CD" xMin="-1050" yMin="1400" xMax="-100" yMax="1900">
      <contour>
        <pt x="-330" y="1519" on="1"/>
        <pt x="-282" y="1510" on="0"/>
        <pt x="-197" y="1510" on="1"/>
        <pt x="-197" y="1400" on="1"/>
        <pt x="-950" y="1400" on="1"/>
        <pt x="-1050" y="1400" on="0"/>
        <pt x="-1050" y="1550" on="1"/>
        <pt x="-1050" y="1650" on="0"/>
        <pt x="-890" y="1800" on="0"/>
        <pt x="-790" y="1800" on="1"/>
        <pt x="-691" y="1800" on="0"/>
        <pt x="-565" y="1725" on="1"/>
        <pt x="-534" y="1706" on="0"/>
        <pt x="-504" y="1686" on="1"/>
        <pt x="-456" y="1750" on="0"/>
        <pt x="-343" y="1750" on="1"/>
        <pt x="-247" y="1750" on="0"/>
        <pt x="-247" y="1900" on="1"/>
        <pt x="-100" y="1900" on="1"/>
        <pt x="-100" y="1850" on="1"/>
        <pt x="-100" y="1620" on="0"/>
        <pt x="-343" y="1620" on="1"/>
        <pt x="-372" y="1620" on="0"/>
        <pt x="-384" y="1597" on="1"/>
        <pt x="-357" y="1574" on="0"/>
        <pt x="-330" y="1550" on="1"/>
      </contour>
      <contour>
        <pt x="-538" y="1530" on="1"/>
        <pt x="-539" y="1536" on="0"/>
        <pt x="-539" y="1542" on="1"/>
        <pt x="-638" y="1612" on="0"/>
        <pt x="-682" y="1640" on="1"/>
        <pt x="-730" y="1670" on="0"/>
        <pt x="-790" y="1670" on="1"/>
        <pt x="-830" y="1670" on="0"/>
        <pt x="-900" y="1610" on="0"/>
        <pt x="-900" y="1530" on="1"/>
      </contour>
    </TTGlyph>
    <TTGlyph name="uni17B717CD.r" xMin="-802" yMin="1400" xMax="50" yMax="1900">
      <contour>
        <pt x="-156" y="1519" on="1"/>
        <pt x="-113" y="1510" on="0"/>
        <pt x="-37" y="1510" on="1"/>
        <pt x="-37" y="1400" on="1"/>
        <pt x="-712" y="1400" on="1"/>
        <pt x="-802" y="1400" on="0"/>
        <pt x="-802" y="1550" on="1"/>
        <pt x="-802" y="1650" on="0"/>
        <pt x="-659" y="1800" on="0"/>
        <pt x="-569" y="1800" on="1"/>
        <pt x="-480" y="1800" on="0"/>
        <pt x="-367" y="1725" on="1"/>
        <pt x="-339" y="1706" on="0"/>
        <pt x="-312" y="1686" on="1"/>
        <pt x="-269" y="1750" on="0"/>
        <pt x="-168" y="1750" on="1"/>
        <pt x="-82" y="1750" on="0"/>
        <pt x="-82" y="1900" on="1"/>
        <pt x="50" y="1900" on="1"/>
        <pt x="50" y="1850" on="1"/>
        <pt x="50" y="1620" on="0"/>
        <pt x="-168" y="1620" on="1"/>
        <pt x="-194" y="1620" on="0"/>
        <pt x="-205" y="1597" on="1"/>
        <pt x="-180" y="1574" on="0"/>
        <pt x="-156" y="1550" on="1"/>
      </contour>
      <contour>
        <pt x="-343" y="1530" on="1"/>
        <pt x="-344" y="1536" on="0"/>
        <pt x="-344" y="1542" on="1"/>
        <pt x="-433" y="1612" on="0"/>
        <pt x="-472" y="1640" on="1"/>
        <pt x="-515" y="1670" on="0"/>
        <pt x="-569" y="1670" on="1"/>
        <pt x="-605" y="1670" on="0"/>
        <pt x="-667" y="1610" on="0"/>
        <pt x="-667" y="1530" on="1"/>
      </contour>
    </TTGlyph>
    <TTGlyph name="uni17B8" xMin="-1050" yMin="1400" xMax="-200" yMax="1850">
      <contour>
        <pt x="-900" y="1610" on="0"/>
        <pt x="-900" y="1530" on="1"/>
        <pt x="-392" y="1530" on="1"/>
        <pt x="-504" y="1610" on="0"/>
        <pt x="-680" y="1670" on="0"/>
        <pt x="-740" y="1670" on="1"/>
        <pt x="-830" y="1670" on="0"/>
      </contour>
      <contour>
        <pt x="-200" y="1400" on="1"/>
        <pt x="-950" y="1400" on="1"/>
        <pt x="-1050" y="1400" on="0"/>
        <pt x="-1050" y="1550" on="1"/>
        <pt x="-1050" y="1650" on="0"/>
        <pt x="-890" y="1800" on="0"/>
        <pt x="-740" y="1800" on="1"/>
        <pt x="-591" y="1800" on="0"/>
        <pt x="-450" y="1725" on="1"/>
        <pt x="-391" y="1694" on="0"/>
        <pt x="-338" y="1658" on="1"/>
        <pt x="-338" y="1850" on="1"/>
        <pt x="-200" y="1850" on="1"/>
      </contour>
    </TTGlyph>
    <TTGlyph name="uni17B8.a" xMin="-1050" yMin="1500" xMax="-200" yMax="1900">
      <contour>
        <pt x="-900" y="1687" on="0"/>
        <pt x="-900" y="1616" on="1"/>
        <pt x="-392" y="1616" on="1"/>
        <pt x="-504" y="1687" on="0"/>
        <pt x="-680" y="1740" on="0"/>
        <pt x="-740" y="1740" on="1"/>
        <pt x="-830" y="1740" on="0"/>
      </contour>
      <contour>
        <pt x="-200" y="1500" on="1"/>
        <pt x="-950" y="1500" on="1"/>
        <pt x="-1050" y="1500" on="0"/>
        <pt x="-1050" y="1633" on="1"/>
        <pt x="-1050" y="1722" on="0"/>
        <pt x="-890" y="1856" on="0"/>
        <pt x="-740" y="1856" on="1"/>
        <pt x="-591" y="1856" on="0"/>
        <pt x="-450" y="1789" on="1"/>
        <pt x="-391" y="1761" on="0"/>
        <pt x="-338" y="1729" on="1"/>
        <pt x="-338" y="1900" on="1"/>
        <pt x="-200" y="1900" on="1"/>
      </contour>
    </TTGlyph>
    <TTGlyph name="uni17B8.r" xMin="-800" yMin="1400" xMax="-50" yMax="1850">
      <contour>
        <pt x="-668" y="1610" on="0"/>
        <pt x="-668" y="1530" on="1"/>
        <pt x="-219" y="1530" on="1"/>
        <pt x="-318" y="1610" on="0"/>
        <pt x="-474" y="1670" on="0"/>
        <pt x="-526" y="1670" on="1"/>
        <pt x="-606" y="1670" on="0"/>
      </contour>
      <contour>
        <pt x="-50" y="1400" on="1"/>
        <pt x="-712" y="1400" on="1"/>
        <pt x="-800" y="1400" on="0"/>
        <pt x="-800" y="1550" on="1"/>
        <pt x="-800" y="1650" on="0"/>
        <pt x="-659" y="1800" on="0"/>
        <pt x="-526" y="1800" on="1"/>
        <pt x="-395" y="1800" on="0"/>
        <pt x="-271" y="1725" on="1"/>
        <pt x="-219" y="1694" on="0"/>
        <pt x="-172" y="1658" on="1"/>
        <pt x="-172" y="1850" on="1"/>
        <pt x="-50" y="1850" on="1"/>
      </contour>
    </TTGlyph>
    <TTGlyph name="uni17B9" xMin="-1050" yMin="1400" xMax="-200" yMax="1900">
      <contour>
        <pt x="-900" y="1610" on="0"/>
        <pt x="-900" y="1530" on="1"/>
        <pt x="-392" y="1530" on="1"/>
        <pt x="-504" y="1610" on="0"/>
        <pt x="-680" y="1670" on="0"/>
        <pt x="-740" y="1670" on="1"/>
        <pt x="-830" y="1670" on="0"/>
      </contour>
      <contour>
        <pt x="-238" y="1583" on="1"/>
        <pt x="-218" y="1567" on="0"/>
        <pt x="-200" y="1550" on="1"/>
        <pt x="-200" y="1400" on="1"/>
        <pt x="-950" y="1400" on="1"/>
        <pt x="-1050" y="1400" on="0"/>
        <pt x="-1050" y="1550" on="1"/>
        <pt x="-1050" y="1650" on="0"/>
        <pt x="-890" y="1800" on="0"/>
        <pt x="-740" y="1800" on="1"/>
        <pt x="-662" y="1800" on="0"/>
        <pt x="-587" y="1780" on="1"/>
        <pt x="-582" y="1790" on="0"/>
        <pt x="-576" y="1801" on="1"/>
        <pt x="-549" y="1849" on="0"/>
        <pt x="-453" y="1900" on="0"/>
        <pt x="-402" y="1900" on="1"/>
        <pt x="-351" y="1900" on="0"/>
        <pt x="-255" y="1849" on="0"/>
        <pt x="-200" y="1752" on="0"/>
        <pt x="-200" y="1700" on="1"/>
        <pt x="-200" y="1648" on="0"/>
        <pt x="-226" y="1601" on="1"/>
        <pt x="-232" y="1591" on="0"/>
      </contour>
      <contour>
        <pt x="-329" y="1651" on="1"/>
        <pt x="-327" y="1654" on="0"/>
        <pt x="-325" y="1657" on="1"/>
        <pt x="-314" y="1677" on="0"/>
        <pt x="-314" y="1700" on="1"/>
        <pt x="-314" y="1723" on="0"/>
        <pt x="-338" y="1764" on="0"/>
        <pt x="-379" y="1787" on="0"/>
        <pt x="-402" y="1787" on="1"/>
        <pt x="-424" y="1787" on="0"/>
        <pt x="-466" y="1764" on="0"/>
        <pt x="-478" y="1744" on="1"/>
        <pt x="-479" y="1742" on="0"/>
        <pt x="-480" y="1740" on="1"/>
        <pt x="-465" y="1733" on="0"/>
        <pt x="-450" y="1725" on="1"/>
        <pt x="-386" y="1691" on="0"/>
      </contour>
    </TTGlyph>
    <TTGlyph name="uni17B9.a" xMin="-1050" yMin="1500" xMax="-200" yMax="1900">
      <contour>
        <pt x="-900" y="1668" on="0"/>
        <pt x="-900" y="1604" on="1"/>
        <pt x="-392" y="1604" on="1"/>
        <pt x="-504" y="1668" on="0"/>
        <pt x="-680" y="1716" on="0"/>
        <pt x="-740" y="1716" on="1"/>
        <pt x="-830" y="1716" on="0"/>
      </contour>
      <contour>
        <pt x="-238" y="1646" on="1"/>
        <pt x="-218" y="1634" on="0"/>
        <pt x="-200" y="1620" on="1"/>
        <pt x="-200" y="1500" on="1"/>
        <pt x="-950" y="1500" on="1"/>
        <pt x="-1050" y="1500" on="0"/>
        <pt x="-1050" y="1620" on="1"/>
        <pt x="-1050" y="1700" on="0"/>
        <pt x="-890" y="1820" on="0"/>
        <pt x="-740" y="1820" on="1"/>
        <pt x="-662" y="1820" on="0"/>
        <pt x="-587" y="1804" on="1"/>
        <pt x="-582" y="1812" on="0"/>
        <pt x="-576" y="1821" on="1"/>
        <pt x="-549" y="1859" on="0"/>
        <pt x="-453" y="1900" on="0"/>
        <pt x="-402" y="1900" on="1"/>
        <pt x="-351" y="1900" on="0"/>
        <pt x="-255" y="1859" on="0"/>
        <pt x="-200" y="1782" on="0"/>
        <pt x="-200" y="1740" on="1"/>
        <pt x="-200" y="1698" on="0"/>
        <pt x="-226" y="1661" on="1"/>
        <pt x="-232" y="1653" on="0"/>
      </contour>
      <contour>
        <pt x="-329" y="1701" on="1"/>
        <pt x="-327" y="1703" on="0"/>
        <pt x="-325" y="1706" on="1"/>
        <pt x="-314" y="1722" on="0"/>
        <pt x="-314" y="1740" on="1"/>
        <pt x="-314" y="1758" on="0"/>
        <pt x="-338" y="1791" on="0"/>
        <pt x="-379" y="1810" on="0"/>
        <pt x="-402" y="1810" on="1"/>
        <pt x="-424" y="1810" on="0"/>
        <pt x="-466" y="1791" on="0"/>
        <pt x="-478" y="1775" on="1"/>
        <pt x="-479" y="1774" on="0"/>
        <pt x="-480" y="1772" on="1"/>
        <pt x="-465" y="1766" on="0"/>
        <pt x="-450" y="1760" on="1"/>
        <pt x="-386" y="1733" on="0"/>
      </contour>
    </TTGlyph>
    <TTGlyph name="uni17B9.r" xMin="-800" yMin="1400" xMax="-50" yMax="1900">
      <contour>
        <pt x="-668" y="1610" on="0"/>
        <pt x="-668" y="1530" on="1"/>
        <pt x="-219" y="1530" on="1"/>
        <pt x="-318" y="1610" on="0"/>
        <pt x="-474" y="1670" on="0"/>
        <pt x="-526" y="1670" on="1"/>
        <pt x="-606" y="1670" on="0"/>
      </contour>
      <contour>
        <pt x="-84" y="1583" on="1"/>
        <pt x="-66" y="1567" on="0"/>
        <pt x="-50" y="1550" on="1"/>
        <pt x="-50" y="1400" on="1"/>
        <pt x="-712" y="1400" on="1"/>
        <pt x="-800" y="1400" on="0"/>
        <pt x="-800" y="1550" on="1"/>
        <pt x="-800" y="1650" on="0"/>
        <pt x="-659" y="1800" on="0"/>
        <pt x="-526" y="1800" on="1"/>
        <pt x="-458" y="1800" on="0"/>
        <pt x="-391" y="1780" on="1"/>
        <pt x="-387" y="1790" on="0"/>
        <pt x="-382" y="1801" on="1"/>
        <pt x="-358" y="1849" on="0"/>
        <pt x="-273" y="1900" on="0"/>
        <pt x="-228" y="1900" on="1"/>
        <pt x="-183" y="1900" on="0"/>
        <pt x="-99" y="1849" on="0"/>
        <pt x="-50" y="1752" on="0"/>
        <pt x="-50" y="1700" on="1"/>
        <pt x="-50" y="1648" on="0"/>
        <pt x="-73" y="1601" on="1"/>
        <pt x="-78" y="1591" on="0"/>
      </contour>
      <contour>
        <pt x="-164" y="1651" on="1"/>
        <pt x="-162" y="1654" on="0"/>
        <pt x="-160" y="1657" on="1"/>
        <pt x="-151" y="1677" on="0"/>
        <pt x="-151" y="1700" on="1"/>
        <pt x="-151" y="1723" on="0"/>
        <pt x="-172" y="1764" on="0"/>
        <pt x="-208" y="1787" on="0"/>
        <pt x="-228" y="1787" on="1"/>
        <pt x="-248" y="1787" on="0"/>
        <pt x="-285" y="1764" on="0"/>
        <pt x="-295" y="1744" on="1"/>
        <pt x="-296" y="1742" on="0"/>
        <pt x="-297" y="1740" on="1"/>
        <pt x="-284" y="1733" on="0"/>
        <pt x="-271" y="1725" on="1"/>
        <pt x="-214" y="1691" on="0"/>
      </contour>
    </TTGlyph>
    <TTGlyph name="uni17BA" xMin="-1050" yMin="1400" xMax="-200" yMax="1900">
      <contour>
        <pt x="-900" y="1610" on="0"/>
        <pt x="-900" y="1530" on="1"/>
        <pt x="-392" y="1530" on="1"/>
        <pt x="-504" y="1610" on="0"/>
        <pt x="-680" y="1670" on="0"/>
        <pt x="-740" y="1670" on="1"/>
        <pt x="-830" y="1670" on="0"/>
      </contour>
      <contour>
        <pt x="-558" y="1771" on="1"/>
        <pt x="-558" y="1900" on="1"/>
        <pt x="-420" y="1900" on="1"/>
        <pt x="-420" y="1708" on="1"/>
        <pt x="-378" y="1684" on="0"/>
        <pt x="-338" y="1658" on="1"/>
        <pt x="-338" y="1850" on="1"/>
        <pt x="-200" y="1850" on="1"/>
        <pt x="-200" y="1400" on="1"/>
        <pt x="-950" y="1400" on="1"/>
        <pt x="-1050" y="1400" on="0"/>
        <pt x="-1050" y="1550" on="1"/>
        <pt x="-1050" y="1650" on="0"/>
        <pt x="-890" y="1800" on="0"/>
        <pt x="-740" y="1800" on="1"/>
        <pt x="-647" y="1800" on="0"/>
      </contour>
    </TTGlyph>
    <TTGlyph name="uni17BA.a" xMin="-1050" yMin="1500" xMax="-200" yMax="1900">
      <contour>
        <pt x="-900" y="1668" on="0"/>
        <pt x="-900" y="1604" on="1"/>
        <pt x="-392" y="1604" on="1"/>
        <pt x="-504" y="1668" on="0"/>
        <pt x="-680" y="1716" on="0"/>
        <pt x="-740" y="1716" on="1"/>
        <pt x="-830" y="1716" on="0"/>
      </contour>
      <contour>
        <pt x="-558" y="1797" on="1"/>
        <pt x="-558" y="1900" on="1"/>
        <pt x="-420" y="1900" on="1"/>
        <pt x="-420" y="1746" on="1"/>
        <pt x="-378" y="1727" on="0"/>
        <pt x="-338" y="1706" on="1"/>
        <pt x="-338" y="1860" on="1"/>
        <pt x="-200" y="1860" on="1"/>
        <pt x="-200" y="1500" on="1"/>
        <pt x="-950" y="1500" on="1"/>
        <pt x="-1050" y="1500" on="0"/>
        <pt x="-1050" y="1620" on="1"/>
        <pt x="-1050" y="1700" on="0"/>
        <pt x="-890" y="1820" on="0"/>
        <pt x="-740" y="1820" on="1"/>
        <pt x="-647" y="1820" on="0"/>
      </contour>
    </TTGlyph>
    <TTGlyph name="uni17BA.r" xMin="-800" yMin="1400" xMax="-50" yMax="1900">
      <contour>
        <pt x="-668" y="1610" on="0"/>
        <pt x="-668" y="1530" on="1"/>
        <pt x="-219" y="1530" on="1"/>
        <pt x="-318" y="1610" on="0"/>
        <pt x="-474" y="1670" on="0"/>
        <pt x="-526" y="1670" on="1"/>
        <pt x="-606" y="1670" on="0"/>
      </contour>
      <contour>
        <pt x="-366" y="1771" on="1"/>
        <pt x="-366" y="1900" on="1"/>
        <pt x="-244" y="1900" on="1"/>
        <pt x="-244" y="1708" on="1"/>
        <pt x="-207" y="1684" on="0"/>
        <pt x="-172" y="1658" on="1"/>
        <pt x="-172" y="1850" on="1"/>
        <pt x="-50" y="1850" on="1"/>
        <pt x="-50" y="1400" on="1"/>
        <pt x="-712" y="1400" on="1"/>
        <pt x="-800" y="1400" on="0"/>
        <pt x="-800" y="1550" on="1"/>
        <pt x="-800" y="1650" on="0"/>
        <pt x="-659" y="1800" on="0"/>
        <pt x="-526" y="1800" on="1"/>
        <pt x="-444" y="1800" on="0"/>
      </contour>
    </TTGlyph>
    <TTGlyph name="uni17BB" xMin="-493" yMin="-500" xMax="-200" yMax="-70">
      <contour>
        <pt x="-200" y="-70" on="1"/>
        <pt x="-200" y="-500" on="1"/>
        <pt x="-388" y="-500" on="1"/>
        <pt x="-388" y="-170" on="1"/>
        <pt x="-493" y="-170" on="1"/>
        <pt x="-493" y="-70" on="1"/>
      </contour>
    </TTGlyph>
    <TTGlyph name="uni17BB.b" xMin="-523" yMin="-800" xMax="-250" yMax="-500">
      <contour>
        <pt x="-250" y="-500" on="1"/>
        <pt x="-250" y="-800" on="1"/>
        <pt x="-438" y="-800" on="1"/>
        <pt x="-438" y="-600" on="1"/>
        <pt x="-523" y="-600" on="1"/>
        <pt x="-523" y="-500" on="1"/>
      </contour>
    </TTGlyph>
    <TTGlyph name="uni17BB.n" xMin="-1143" yMin="-500" xMax="-850" yMax="-70">
      <contour>
        <pt x="-850" y="-70" on="1"/>
        <pt x="-850" y="-500" on="1"/>
        <pt x="-1038" y="-500" on="1"/>
        <pt x="-1038" y="-170" on="1"/>
        <pt x="-1143" y="-170" on="1"/>
        <pt x="-1143" y="-70" on="1"/>
      </contour>
    </TTGlyph>
    <TTGlyph name="uni17BB.n2" xMin="-1163" yMin="-800" xMax="-870" yMax="-500">
      <contour>
        <pt x="-870" y="-500" on="1"/>
        <pt x="-870" y="-800" on="1"/>
        <pt x="-1058" y="-800" on="1"/>
        <pt x="-1058" y="-570" on="1"/>
        <pt x="-1163" y="-570" on="1"/>
        <pt x="-1163" y="-500" on="1"/>
      </contour>
    </TTGlyph>
    <TTGlyph name="uni17BC" xMin="-800" yMin="-500" xMax="-200" yMax="-70">
      <contour>
        <pt x="-800" y="-70" on="1"/>
        <pt x="-622" y="-70" on="1"/>
        <pt x="-622" y="-290" on="1"/>
        <pt x="-622" y="-380" on="0"/>
        <pt x="-500" y="-380" on="1"/>
        <pt x="-378" y="-380" on="0"/>
        <pt x="-378" y="-290" on="1"/>
        <pt x="-378" y="-70" on="1"/>
        <pt x="-200" y="-70" on="1"/>
        <pt x="-200" y="-290" on="1"/>
        <pt x="-200" y="-500" on="0"/>
        <pt x="-500" y="-500" on="1"/>
        <pt x="-800" y="-500" on="0"/>
        <pt x="-800" y="-290" on="1"/>
      </contour>
    </TTGlyph>
    <TTGlyph name="uni17BC.b" xMin="-800" yMin="-800" xMax="-200" yMax="-500">
      <contour>
        <pt x="-800" y="-500" on="1"/>
        <pt x="-622" y="-500" on="1"/>
        <pt x="-622" y="-660" on="1"/>
        <pt x="-622" y="-720" on="0"/>
        <pt x="-500" y="-720" on="1"/>
        <pt x="-378" y="-720" on="0"/>
        <pt x="-378" y="-660" on="1"/>
        <pt x="-378" y="-500" on="1"/>
        <pt x="-200" y="-500" on="1"/>
        <pt x="-200" y="-660" on="1"/>
        <pt x="-200" y="-800" on="0"/>
        <pt x="-500" y="-800" on="1"/>
        <pt x="-800" y="-800" on="0"/>
        <pt x="-800" y="-660" on="1"/>
      </contour>
    </TTGlyph>
    <TTGlyph name="uni17BC.n" xMin="-1450" yMin="-500" xMax="-850" yMax="-70">
      <contour>
        <pt x="-1450" y="-70" on="1"/>
        <pt x="-1272" y="-70" on="1"/>
        <pt x="-1272" y="-290" on="1"/>
        <pt x="-1272" y="-380" on="0"/>
        <pt x="-1150" y="-380" on="1"/>
        <pt x="-1028" y="-380" on="0"/>
        <pt x="-1028" y="-290" on="1"/>
        <pt x="-1028" y="-70" on="1"/>
        <pt x="-850" y="-70" on="1"/>
        <pt x="-850" y="-290" on="1"/>
        <pt x="-850" y="-500" on="0"/>
        <pt x="-1150" y="-500" on="1"/>
        <pt x="-1450" y="-500" on="0"/>
        <pt x="-1450" y="-290" on="1"/>
      </contour>
    </TTGlyph>
    <TTGlyph name="uni17BC.n2" xMin="-1450" yMin="-800" xMax="-850" yMax="-500">
      <contour>
        <pt x="-1450" y="-500" on="1"/>
        <pt x="-1272" y="-500" on="1"/>
        <pt x="-1272" y="-653" on="1"/>
        <pt x="-1272" y="-716" on="0"/>
        <pt x="-1150" y="-716" on="1"/>
        <pt x="-1028" y="-716" on="0"/>
        <pt x="-1028" y="-653" on="1"/>
        <pt x="-1028" y="-500" on="1"/>
        <pt x="-850" y="-500" on="1"/>
        <pt x="-850" y="-653" on="1"/>
        <pt x="-850" y="-800" on="0"/>
        <pt x="-1150" y="-800" on="1"/>
        <pt x="-1450" y="-800" on="0"/>
        <pt x="-1450" y="-653" on="1"/>
      </contour>
    </TTGlyph>
    <TTGlyph name="uni17BD" xMin="-850" yMin="-500" xMax="-200" yMax="-70">
      <contour>
        <pt x="-850" y="-70" on="1"/>
        <pt x="-672" y="-70" on="1"/>
        <pt x="-672" y="-360" on="1"/>
        <pt x="-525" y="-230" on="1"/>
        <pt x="-378" y="-360" on="1"/>
        <pt x="-378" y="-70" on="1"/>
        <pt x="-200" y="-70" on="1"/>
        <pt x="-200" y="-500" on="1"/>
        <pt x="-400" y="-500" on="1"/>
        <pt x="-525" y="-370" on="1"/>
        <pt x="-650" y="-500" on="1"/>
        <pt x="-850" y="-500" on="1"/>
      </contour>
    </TTGlyph>
    <TTGlyph name="uni17BD.b" xMin="-850" yMin="-800" xMax="-200" yMax="-500">
      <contour>
        <pt x="-850" y="-500" on="1"/>
        <pt x="-672" y="-500" on="1"/>
        <pt x="-672" y="-707" on="1"/>
        <pt x="-525" y="-620" on="1"/>
        <pt x="-378" y="-707" on="1"/>
        <pt x="-378" y="-500" on="1"/>
        <pt x="-200" y="-500" on="1"/>
        <pt x="-200" y="-800" on="1"/>
        <pt x="-400" y="-800" on="1"/>
        <pt x="-525" y="-713" on="1"/>
        <pt x="-650" y="-800" on="1"/>
        <pt x="-850" y="-800" on="1"/>
      </contour>
    </TTGlyph>
    <TTGlyph name="uni17BD.n" xMin="-1500" yMin="-500" xMax="-850" yMax="-70">
      <contour>
        <pt x="-1500" y="-70" on="1"/>
        <pt x="-1322" y="-70" on="1"/>
        <pt x="-1322" y="-360" on="1"/>
        <pt x="-1175" y="-230" on="1"/>
        <pt x="-1028" y="-360" on="1"/>
        <pt x="-1028" y="-70" on="1"/>
        <pt x="-850" y="-70" on="1"/>
        <pt x="-850" y="-500" on="1"/>
        <pt x="-1050" y="-500" on="1"/>
        <pt x="-1175" y="-370" on="1"/>
        <pt x="-1300" y="-500" on="1"/>
        <pt x="-1500" y="-500" on="1"/>
      </contour>
    </TTGlyph>
    <TTGlyph name="uni17BD.n2" xMin="-1500" yMin="-800" xMax="-850" yMax="-500">
      <contour>
        <pt x="-1500" y="-500" on="1"/>
        <pt x="-1322" y="-500" on="1"/>
        <pt x="-1322" y="-702" on="1"/>
        <pt x="-1175" y="-612" on="1"/>
        <pt x="-1028" y="-702" on="1"/>
        <pt x="-1028" y="-500" on="1"/>
        <pt x="-850" y="-500" on="1"/>
        <pt x="-850" y="-800" on="1"/>
        <pt x="-1050" y="-800" on="1"/>
        <pt x="-1175" y="-709" on="1"/>
        <pt x="-1300" y="-800" on="1"/>
        <pt x="-1500" y="-800" on="1"/>
      </contour>
    </TTGlyph>
    <TTGlyph name="uni17BE" xMin="-1050" yMin="1400" xMax="-200" yMax="1850">
      <contour>
        <pt x="-900" y="1610" on="0"/>
        <pt x="-900" y="1530" on="1"/>
        <pt x="-392" y="1530" on="1"/>
        <pt x="-504" y="1610" on="0"/>
        <pt x="-680" y="1670" on="0"/>
        <pt x="-740" y="1670" on="1"/>
        <pt x="-830" y="1670" on="0"/>
      </contour>
      <contour>
        <pt x="-200" y="1400" on="1"/>
        <pt x="-950" y="1400" on="1"/>
        <pt x="-1050" y="1400" on="0"/>
        <pt x="-1050" y="1550" on="1"/>
        <pt x="-1050" y="1650" on="0"/>
        <pt x="-890" y="1800" on="0"/>
        <pt x="-740" y="1800" on="1"/>
        <pt x="-591" y="1800" on="0"/>
        <pt x="-450" y="1725" on="1"/>
        <pt x="-391" y="1694" on="0"/>
        <pt x="-338" y="1658" on="1"/>
        <pt x="-338" y="1850" on="1"/>
        <pt x="-200" y="1850" on="1"/>
      </contour>
    </TTGlyph>
    <TTGlyph name="uni17BF" xMin="-520" yMin="-500" xMax="388" yMax="1900">
      <contour>
        <pt x="-370" y="1530" on="1"/>
        <pt x="8" y="1530" on="1"/>
        <pt x="-104" y="1610" on="0"/>
        <pt x="-280" y="1670" on="0"/>
        <pt x="-310" y="1670" on="1"/>
        <pt x="-350" y="1670" on="0"/>
        <pt x="-370" y="1610" on="0"/>
      </contour>
      <contour>
        <pt x="200" y="1500" on="1"/>
        <pt x="388" y="1433" on="0"/>
        <pt x="388" y="1210" on="1"/>
        <pt x="388" y="-260" on="1"/>
        <pt x="388" y="-500" on="0"/>
        <pt x="0" y="-500" on="1"/>
        <pt x="-388" y="-500" on="0"/>
        <pt x="-388" y="-260" on="1"/>
        <pt x="-388" y="-50" on="1"/>
        <pt x="-150" y="-50" on="1"/>
        <pt x="-150" y="-160" on="1"/>
        <pt x="-200" y="-160" on="1"/>
        <pt x="-200" y="-260" on="1"/>
        <pt x="-200" y="-360" on="0"/>
        <pt x="0" y="-360" on="1"/>
        <pt x="200" y="-360" on="0"/>
        <pt x="200" y="-260" on="1"/>
        <pt x="200" y="1210" on="1"/>
        <pt x="200" y="1400" on="0"/>
        <pt x="0" y="1400" on="1"/>
        <pt x="-420" y="1400" on="1"/>
        <pt x="-520" y="1400" on="0"/>
        <pt x="-520" y="1550" on="1"/>
        <pt x="-520" y="1650" on="0"/>
        <pt x="-410" y="1800" on="0"/>
        <pt x="-310" y="1800" on="1"/>
        <pt x="-247" y="1800" on="0"/>
        <pt x="-158" y="1771" on="1"/>
        <pt x="-158" y="1900" on="1"/>
        <pt x="-20" y="1900" on="1"/>
        <pt x="-20" y="1708" on="1"/>
        <pt x="22" y="1684" on="0"/>
        <pt x="62" y="1658" on="1"/>
        <pt x="62" y="1850" on="1"/>
        <pt x="200" y="1850" on="1"/>
      </contour>
    </TTGlyph>
</ttFont>
